<?xml version="1.0" encoding="utf-8"?>
<!-- Generator: Adobe Illustrator 23.0.4, SVG Export Plug-In . SVG Version: 6.00 Build 0)  -->
<svg version="1.1" id="Layer_1" xmlns="http://www.w3.org/2000/svg" xmlns:xlink="http://www.w3.org/1999/xlink" x="0px" y="0px"
	 viewBox="0 0 216 216" style="enable-background:new 0 0 216 216;" xml:space="preserve">
<style type="text/css">
	.st0{fill:#231F20;}
</style>
<g>
	<path class="st0" d="M167.3,104c-5.2-1.7-10.7-3.3-15.8-4.6c2.7-3.2,7.3-8.8,10.8-13.5c3.6-4.8,5.3-8.6,5.3-12.4
		c0-3.2-1.2-6.6-3.6-10.7c-4.2-7.5-11.6-14.8-17.8-19.5C141.5,40,134.6,36,128,36c-3.7,0-7.4,1.5-10.3,5.1
		c-3.3,4.4-6.5,9.1-9.3,13.4c-2.3-3.5-6.2-9.6-9.7-14.2c-5.1-6.5-9.1-9.1-15.2-9.1c-11.3,0-23.8,6.9-30.6,11.5
		c-5.4,3.9-13.6,10.4-13.6,18.4c0,2.4,0.8,5,2.8,7.6c3.2,4.5,6.7,8.9,10,12.9c-4.1,1.1-11.1,2.9-16.7,4.6
		C24.5,89.7,20,94.6,20,108.9c0,6.2,0.9,13.3,3.5,21.1c2.7,8.2,8.4,22.5,21.6,18.2c5.2-1.7,10.6-3.6,15.5-5.5
		c-0.3,4.2-0.7,8.3-0.7,14c0,14.3,2.9,18.6,11.9,22.9c8,3.6,18.2,5.2,26.5,5.2c8.7,0,24.2-1,24.2-14.8c0-8.6-0.1-11.1-0.4-16.3
		c3.9,1.5,10.7,4.2,16.3,5.9c3.7,1.2,6.6,1.8,9.3,1.8c4.7,0,8.4-2.3,13-7.3c8.2-8.7,15.9-25.4,15.9-36.5
		C176.7,111.8,174.5,106.3,167.3,104z M71.3,65.1c10-7.2,20.4-8.8,28.2-8.8c3,0,5.6,0.2,7.4,0.5c-5.2,8.2-7.8,14.3-8,17.2
		c-0.2-0.7-1.7-5.1-8-5.1c-6.7,0-13.2,4.2-18,4.2c-3.4,0-4.3-2.8-4.3-4C68.6,67.9,69.3,66.5,71.3,65.1z M59.7,114.7
		c0.1,4.6-0.5,7.3-3.3,8.3c-2.1,0.7-4.4,0-5.5-3.7c-5.3-15.8,0.1-29.6,3-35.7c6,6.9,10.8,11.5,13.7,12.9c-0.5-0.1-1.1,0-1.7,0.3
		C58.8,99,59.5,108.8,59.7,114.7z M96.6,155.7c-17.3,0-28.9-9.4-33.4-14c4.1-1.9,8.1-3.6,10.8-5.2c1.9-1.1,3.9-2.2,5.5-3.9
		c-0.2,0.6-0.3,1.3-0.3,2.1c0,7.2,9.6,9.6,15.3,11.3c4.5,1.3,7.3,2.9,7.3,5.8C101.8,153.8,100.5,155.7,96.6,155.7z M116.3,130.1
		c-2.7-2.6-7.7-4.4-17-4.4c-8.4,0-14.9,1.3-18.1,4.2c0.8-1.6,1.2-3.5,1.2-6c0-2.9-0.7-6.3-2.2-10.9c-2.6-7.9-5.8-13.7-9.7-15.7
		c3.8,0.5,8.8-0.9,16.4-6.3c6.7-4.9,11.3-9.7,12.1-14c0.7,3.7,3.6,8,11.1,13.5c6.8,4.9,12.8,7.6,17.2,7.1c-3.4,1.8-6.7,5.9-9.5,14.6
		c-1.6,4.9-2.5,9-2.5,12.5C115.3,126.8,115.6,128.6,116.3,130.1z M139.6,136.1c-6,8.1-13.4,12.7-17.6,15c-0.4-4.8-0.9-9-1.5-12.2
		c-0.5-2.1-1-4.4-2.2-6.4c0.5,0.4,1.2,0.7,2,1c6.9,2.3,12.2-6.1,15.5-10.9c2.3-3.2,4.3-4.9,6.5-4.9c1.6,0,4,1,4,3.5
		C146.4,123.8,144,129.7,139.6,136.1z M133.2,96.2c-1,0-1.9,0.1-2.9,0.3c1.1-0.8,3-2.8,3-5.9c0-4.8-4.4-10.1-7.1-13.7
		c-2-2.6-3.3-4.8-3.3-6.7c0-2,1.8-3.9,3.9-3.9c1.1,0,2.2,0.4,3.6,1.4c14,10,17.8,24.3,18.8,31C142.9,97.2,136.7,96.2,133.2,96.2z"/>
	<path class="st0" d="M196,61.3c0,1.4-0.2,2.6-0.7,3.8c-0.5,1.2-1.2,2.2-2,3.1c-0.9,0.9-1.9,1.5-3.1,2c-1.2,0.5-2.5,0.7-3.8,0.7
		c-1.4,0-2.7-0.2-3.8-0.7c-1.2-0.5-2.2-1.2-3.1-2c-0.9-0.9-1.5-1.9-2-3.1c-0.5-1.2-0.7-2.5-0.7-3.8c0-1.4,0.2-2.6,0.7-3.8
		c0.5-1.2,1.2-2.2,2-3.1c0.9-0.9,1.9-1.5,3.1-2c1.2-0.5,2.4-0.7,3.8-0.7c1.4,0,2.6,0.2,3.8,0.7c1.2,0.5,2.2,1.2,3.1,2
		c0.9,0.9,1.5,1.9,2,3.1C195.8,58.6,196,59.9,196,61.3z M194.5,61.3c0-1.1-0.2-2.2-0.6-3.2c-0.4-1-1-1.9-1.7-2.6
		c-0.7-0.7-1.6-1.3-2.6-1.7c-1-0.4-2.1-0.6-3.2-0.6c-1.2,0-2.2,0.2-3.2,0.6c-1,0.4-1.8,1-2.6,1.7s-1.3,1.6-1.7,2.6
		c-0.4,1-0.6,2.1-0.6,3.2c0,1.2,0.2,2.2,0.6,3.2c0.4,1,1,1.8,1.7,2.6c0.7,0.7,1.6,1.3,2.6,1.7c1,0.4,2,0.6,3.2,0.6
		c1.1,0,2.2-0.2,3.2-0.6c1-0.4,1.9-1,2.6-1.7c0.7-0.7,1.3-1.6,1.7-2.6C194.2,63.5,194.5,62.4,194.5,61.3z M190.7,59
		c0,0.8-0.2,1.5-0.6,2c-0.4,0.5-1,0.9-1.6,1.1l2.2,4.3h-2.1l-2.1-4.1h-2v4.1h-1.8V55.8h4.6c0.5,0,0.9,0.1,1.3,0.2
		c0.4,0.1,0.8,0.3,1.1,0.6c0.3,0.3,0.6,0.6,0.7,1C190.6,58,190.7,58.5,190.7,59z M188.9,59.1c0-0.5-0.2-0.9-0.5-1.1
		c-0.3-0.2-0.7-0.4-1.2-0.4h-2.8v3h2.8c0.5,0,0.9-0.1,1.2-0.4C188.8,60,188.9,59.6,188.9,59.1z"/>
</g>
</svg>
