<?xml version="1.0" encoding="UTF-8"?>
<svg width="1411px" height="525px" viewBox="0 0 1411 525" version="1.1" xmlns="http://www.w3.org/2000/svg" xmlns:xlink="http://www.w3.org/1999/xlink">
    <!-- Generator: Sketch 57.1 (83088) - https://sketch.com -->
    <title>Logotype/Citibanamex-Tagline/Full-Color</title>
    <desc>Created with Sketch.</desc>
    <g id="Logotype/Citibanamex-Tagline/Full-Color" stroke="none" stroke-width="1" fill="none" fill-rule="evenodd">
        <polyline id="Fill-1" fill="#056DAE" points="117.421 420.04601 117.421 354.42301 157.077 354.42301 157.077 361.08001 124.737 361.08001 124.737 381.70101 143.49 381.70101 143.49 388.35801 124.737 388.35801 124.737 413.38901 158.489 413.38901 158.489 420.04601 117.421 420.04601"></polyline>
        <polyline id="Fill-2" fill="#056DAE" points="172.076 420.04601 172.076 355.64001 179.202 351.70401 179.202 420.04601 172.076 420.04601"></polyline>
        <path d="M244.355,354.42301 C246.98,354.42301 249.375,354.75101 251.526,355.40401 C253.686,356.06001 255.563,357.05901 257.157,358.40201 C258.744,359.74101 259.98,361.44201 260.857,363.49801 C261.734,365.55801 262.169,367.99201 262.169,370.79901 C262.169,374.41601 261.292,377.30301 259.545,379.45501 C257.79,381.60601 255.509,383.18101 252.701,384.18101 C254.197,384.55501 255.7,385.13501 257.203,385.91701 C258.698,386.69901 260.041,387.73201 261.231,389.01401 C262.421,390.30001 263.39,391.89401 264.138,393.80501 C264.885,395.71201 265.259,397.98201 265.259,400.61001 C265.259,407.12201 263.436,411.98901 259.781,415.20901 C256.119,418.43601 250.825,420.04601 243.89,420.04601 L220.354,420.04601 L220.354,354.42301 L244.355,354.42301 Z M227.67,388.07901 L227.67,388.07901 L227.67,413.38901 L244.355,413.38901 L244.813549,413.385714 C249.508467,413.317598 252.857375,412.193667 254.853,410.01301 C256.92,407.76701 257.95,404.76401 257.95,401.01501 C257.95,396.89101 256.699,393.70201 254.197,391.45101 C251.702,389.20101 248.292,388.07901 243.981,388.07901 L243.981,388.07901 Z M227.67,361.08001 L227.67,361.08001 L227.67,381.42301 L243.516,381.42301 L243.931783,381.419404 C247.774037,381.352084 250.541276,380.342286 252.229,378.39001 C253.983,376.36901 254.853,373.92701 254.853,371.06301 C254.853,368.08001 253.983,365.66901 252.229,363.83401 C250.481,361.99501 247.765,361.08001 244.073,361.08001 L244.073,361.08001 Z" id="Combined-Shape" fill="#056DAE"></path>
        <path d="M295.501,369.79601 C300.796,369.79601 304.984,371.03201 308.074,373.50001 C311.156,375.96801 312.697,380.04601 312.697,385.73301 L312.697,420.04601 L305.572,420.04601 L305.671,414.04501 C303.916,415.92201 301.811,417.56301 299.338,418.96601 C296.867,420.37401 293.853,421.07601 290.291,421.07601 C288.353,421.07601 286.453,420.80901 284.576,420.27801 C282.699,419.74801 281.013,418.87501 279.51,417.65401 C278.015,416.43701 276.81,414.82701 275.902,412.82801 C274.994,410.82601 274.544,408.32701 274.544,405.32901 C274.544,402.57901 275.07,400.20201 276.13,398.20301 C277.191,396.20501 278.58,394.56401 280.289,393.28301 C282.005,392.00101 283.996,391.06301 286.277,390.46701 C288.544,389.87601 290.901,389.57901 293.327,389.57901 C295.821,389.57901 298.126,389.84601 300.247,390.37601 C302.367,390.90601 304.137,391.57701 305.572,392.39001 L305.572,386.61101 C305.572,379.40101 302.039,375.79601 294.967,375.79601 C292.366,375.79601 289.993,376.12501 287.856,376.78101 C285.713,377.43701 283.653,378.36001 281.669,379.54601 L279.045,373.79801 C281.227,372.59201 283.722,371.62301 286.529,370.89101 C289.329,370.16201 292.32,369.79601 295.501,369.79601 Z M293.014,395.20101 C289.42,395.20101 286.613,396.03301 284.599,397.68901 C282.585,399.34401 281.578,401.73601 281.578,404.86001 C281.578,408.54901 282.486,411.21901 284.317,412.87401 C286.148,414.53001 288.551,415.35801 291.526,415.35801 C294.692,415.35801 297.446,414.64001 299.804,413.20201 C302.161,411.76401 304.084,410.01301 305.572,407.95301 L305.572,398.01601 C303.962,397.13901 302.207,396.45201 300.315,395.95301 C298.423,395.45301 295.989,395.20101 293.014,395.20101 Z" id="Combined-Shape" fill="#056DAE"></path>
        <path d="M358.724,420.04601 L358.724,391.20401 C358.724,385.88201 357.778,381.98401 355.886,379.50801 C354.002,377.03601 351.103,375.79601 347.196,375.79601 C343.786,375.79601 340.918,377.01701 338.591,379.46201 C336.264,381.90401 335.104,385.81701 335.104,391.20401 L335.104,420.04601 L327.979,420.04601 L327.979,370.83001 L335.104,370.83001 L335.013,376.82601 C336.447,374.76701 338.293,373.07701 340.536,371.76401 C342.787,370.45201 345.48,369.79601 348.6,369.79601 C351.225,369.79601 353.605,370.18901 355.726,370.96701 C357.855,371.75301 359.663,372.97001 361.166,374.62601 C362.661,376.28101 363.82,378.37501 364.637,380.90801 C365.445,383.43701 365.85,386.48501 365.85,390.04801 L365.85,420.04601 L358.724,420.04601" id="Fill-5" fill="#056DAE"></path>
        <path d="M411.037,380.76701 C409.222,379.14201 407.429,377.90601 405.644,377.06301 C403.866,376.22001 401.722,375.79601 399.22,375.79601 C397.282,375.79601 395.489,376.22001 393.834,377.06701 C392.178,377.91801 390.736,379.17201 389.523,380.83501 C388.302,382.50201 387.349,384.52801 386.662,386.91201 C385.976,389.30001 385.632,392.03101 385.632,395.10601 C385.632,401.19801 386.845,406.05001 389.287,409.66201 C391.72,413.27101 395.13,415.07501 399.502,415.07501 C401.882,415.07501 403.942,414.61001 405.689,413.67101 C407.444,412.73301 409.161,411.45101 410.847,409.82601 L415.065,414.32801 C413.006,416.42901 410.725,418.07701 408.222,419.27501 C405.72,420.47701 402.722,421.07601 399.22,421.07601 C396.534,421.07601 393.94,420.56101 391.446,419.53101 C388.943,418.49701 386.738,416.92201 384.831,414.79701 C382.924,412.67201 381.398,410.03301 380.238,406.87401 C379.079,403.71901 378.506,399.98501 378.506,395.67001 C378.506,391.10801 379.132,387.20201 380.383,383.95201 C381.627,380.70601 383.252,378.03201 385.258,375.93801 C387.257,373.84301 389.523,372.29901 392.048,371.29501 C394.581,370.30001 397.129,369.79601 399.693,369.79601 C403.065,369.79601 406.018,370.33801 408.55,371.41401 C411.083,372.48901 413.318,373.85901 415.256,375.52201 L411.037,380.76701" id="Fill-6" fill="#056DAE"></path>
        <path d="M444.88,369.79601 C447.878,369.79601 450.679,370.33001 453.273,371.39101 C455.866,372.45501 458.102,374.04901 459.971,376.17001 C461.848,378.29901 463.335,380.93901 464.426,384.09301 C465.517,387.25201 466.066,390.92101 466.066,395.11001 C466.066,399.29801 465.502,402.99801 464.38,406.21801 C463.259,409.43701 461.726,412.15701 459.788,414.37301 C457.85,416.59401 455.569,418.26401 452.944,419.39001 C450.32,420.51501 447.505,421.07601 444.506,421.07601 C441.508,421.07601 438.709,420.53001 436.114,419.43501 C433.521,418.34501 431.285,416.72001 429.416,414.56001 C427.539,412.40501 426.052,409.73501 424.96,406.54601 C423.862,403.35701 423.32,399.67201 423.32,395.48401 C423.32,391.29901 423.885,387.61001 425.006,384.42101 C426.128,381.23601 427.661,378.56201 429.599,376.40701 C431.537,374.25101 433.818,372.61101 436.442,371.48601 C439.067,370.36101 441.882,369.79601 444.88,369.79601 Z M444.644,375.79601 C440.349,375.79601 436.908,377.41401 434.322,380.64901 C431.735,383.88301 430.446,388.76601 430.446,395.29701 C430.446,401.82701 431.735,406.75601 434.322,410.08601 C436.908,413.41201 440.349,415.07501 444.644,415.07501 C448.947,415.07501 452.403,413.41201 455.02,410.08601 C457.636,406.75601 458.941,401.82701 458.941,395.29701 C458.941,388.76601 457.636,383.88301 455.02,380.64901 C452.403,377.41401 448.947,375.79601 444.644,375.79601 Z" id="Combined-Shape" fill="#056DAE"></path>
        <path d="M544.525,420.04601 L515.923,375.14001 C515.549,374.58001 515.145,373.90801 514.703,373.12601 C514.268,372.34401 513.833,371.56201 513.398,370.78001 C512.963,370.00201 512.536,369.26601 512.131,368.57901 C511.727,367.89301 511.43,367.32801 511.247,366.88901 L511.247,420.04601 L504.212,420.04601 L504.212,354.42301 L511.338,354.42301 L539.666,400.17201 C540.039,400.73201 540.443,401.40801 540.878,402.18601 C541.313,402.96801 541.756,403.75001 542.19,404.53201 C542.626,405.31401 543.045,406.04601 543.449,406.73301 C543.854,407.42301 544.151,407.98401 544.342,408.42301 L544.342,354.42301 L551.468,354.42301 L551.468,420.04601 L544.525,420.04601" id="Fill-8" fill="#056DAE"></path>
        <path d="M585.921,369.79601 C591.216,369.79601 595.404,371.03201 598.494,373.50001 C601.576,375.96801 603.117,380.04601 603.117,385.73301 L603.117,420.04601 L595.992,420.04601 L596.091,414.04501 C594.336,415.92201 592.231,417.56301 589.758,418.96601 C587.287,420.37401 584.273,421.07601 580.71,421.07601 C578.773,421.07601 576.873,420.80901 574.996,420.27801 C573.119,419.74801 571.433,418.87501 569.93,417.65401 C568.435,416.43701 567.23,414.82701 566.322,412.82801 C565.414,410.82601 564.964,408.32701 564.964,405.32901 C564.964,402.57901 565.49,400.20201 566.55,398.20301 C567.611,396.20501 569,394.56401 570.709,393.28301 C572.425,392.00101 574.416,391.06301 576.697,390.46701 C578.963,389.87601 581.321,389.57901 583.747,389.57901 C586.241,389.57901 588.545,389.84601 590.667,390.37601 C592.787,390.90601 594.557,391.57701 595.992,392.39001 L595.992,386.61101 C595.992,379.40101 592.459,375.79601 585.387,375.79601 C582.786,375.79601 580.413,376.12501 578.276,376.78101 C576.133,377.43701 574.073,378.36001 572.089,379.54601 L569.465,373.79801 C571.647,372.59201 574.142,371.62301 576.949,370.89101 C579.749,370.16201 582.74,369.79601 585.921,369.79601 Z M583.434,395.20101 C579.84,395.20101 577.033,396.03301 575.019,397.68901 C573.005,399.34401 571.998,401.73601 571.998,404.86001 C571.998,408.54901 572.906,411.21901 574.737,412.87401 C576.567,414.53001 578.971,415.35801 581.946,415.35801 C585.112,415.35801 587.866,414.64001 590.224,413.20201 C592.581,411.76401 594.504,410.01301 595.992,407.95301 L595.992,398.01601 C594.382,397.13901 592.627,396.45201 590.735,395.95301 C588.843,395.45301 586.409,395.20101 583.434,395.20101 Z" id="Combined-Shape" fill="#056DAE"></path>
        <path d="M648.313,380.76701 C646.497,379.14201 644.704,377.90601 642.919,377.06301 C641.141,376.22001 638.997,375.79601 636.495,375.79601 C634.557,375.79601 632.764,376.22001 631.108,377.06701 C629.453,377.91801 628.011,379.17201 626.798,380.83501 C625.578,382.50201 624.624,384.52801 623.937,386.91201 C623.251,389.30001 622.907,392.03101 622.907,395.10601 C622.907,401.19801 624.12,406.05001 626.562,409.66201 C628.995,413.27101 632.406,415.07501 636.777,415.07501 C639.157,415.07501 641.217,414.61001 642.964,413.67101 C644.719,412.73301 646.436,411.45101 648.122,409.82601 L652.341,414.32801 C650.281,416.42901 648,418.07701 645.497,419.27501 C642.995,420.47701 639.997,421.07601 636.495,421.07601 C633.81,421.07601 631.215,420.56101 628.721,419.53101 C626.218,418.49701 624.014,416.92201 622.106,414.79701 C620.199,412.67201 618.673,410.03301 617.513,406.87401 C616.354,403.71901 615.782,399.98501 615.782,395.67001 C615.782,391.10801 616.407,387.20201 617.658,383.95201 C618.902,380.70601 620.527,378.03201 622.533,375.93801 C624.532,373.84301 626.798,372.29901 629.323,371.29501 C631.856,370.30001 634.404,369.79601 636.968,369.79601 C640.34,369.79601 643.293,370.33801 645.825,371.41401 C648.358,372.48901 650.594,373.85901 652.531,375.52201 L648.313,380.76701" id="Fill-10" fill="#056DAE"></path>
        <polygon id="Path" fill="#056DAE" points="665.272 420.04601 672.398 420.04601 672.398 370.83001 665.272 370.83001"></polygon>
        <path d="M673.809,357.04801 C673.809,358.42501 673.321,359.59601 672.352,360.56501 C671.383,361.53401 670.246,362.01401 668.934,362.01401 C667.492,362.01401 666.272,361.53401 665.272,360.56501 C664.273,359.59601 663.777,358.42501 663.777,357.04801 C663.777,355.61001 664.273,354.40801 665.272,353.43901 C666.272,352.47001 667.492,351.98601 668.934,351.98601 C670.246,351.98601 671.383,352.47001 672.352,353.43901 C673.321,354.40801 673.809,355.61001 673.809,357.04801 L673.809,357.04801 Z" id="Path" fill="#056DAE"></path>
        <path d="M707.271,369.79601 C710.269,369.79601 713.069,370.33001 715.663,371.39101 C718.257,372.45501 720.492,374.04901 722.361,376.17001 C724.238,378.29901 725.726,380.93901 726.817,384.09301 C727.908,387.25201 728.457,390.92101 728.457,395.11001 C728.457,399.29801 727.893,402.99801 726.771,406.21801 C725.649,409.43701 724.116,412.15701 722.178,414.37301 C720.24,416.59401 717.959,418.26401 715.335,419.39001 C712.71,420.51501 709.895,421.07601 706.897,421.07601 C703.898,421.07601 701.099,420.53001 698.505,419.43501 C695.911,418.34501 693.675,416.72001 691.806,414.56001 C689.93,412.40501 688.442,409.73501 687.351,406.54601 C686.252,403.35701 685.71,399.67201 685.71,395.48401 C685.71,391.29901 686.275,387.61001 687.397,384.42101 C688.518,381.23601 690.052,378.56201 691.989,376.40701 C693.927,374.25101 696.209,372.61101 698.833,371.48601 C701.457,370.36101 704.273,369.79601 707.271,369.79601 Z M707.034,375.79601 C702.739,375.79601 699.298,377.41401 696.712,380.64901 C694.126,383.88301 692.836,388.76601 692.836,395.29701 C692.836,401.82701 694.126,406.75601 696.712,410.08601 C699.298,413.41201 702.739,415.07501 707.034,415.07501 C711.337,415.07501 714.793,413.41201 717.41,410.08601 C720.027,406.75601 721.331,401.82701 721.331,395.29701 C721.331,388.76601 720.027,383.88301 717.41,380.64901 C714.793,377.41401 711.337,375.79601 707.034,375.79601 Z" id="Combined-Shape" fill="#056DAE"></path>
        <path d="M772.141,420.04601 L772.141,391.20401 C772.141,385.88201 771.191,381.98401 769.301,379.50801 C767.421,377.03601 764.521,375.79601 760.611,375.79601 C757.204,375.79601 754.335,377.01701 752.008,379.46201 C749.681,381.90401 748.522,385.81701 748.522,391.20401 L748.522,420.04601 L741.396,420.04601 L741.396,370.83001 L748.522,370.83001 L748.43,376.82601 C749.864,374.76701 751.71,373.07701 753.954,371.76401 C756.204,370.45201 758.898,369.79601 762.021,369.79601 C764.641,369.79601 767.021,370.18901 769.141,370.96701 C771.271,371.75301 773.081,372.97001 774.581,374.62601 C776.081,376.28101 777.241,378.37501 778.051,380.90801 C778.861,383.43701 779.271,386.48501 779.271,390.04801 L779.271,420.04601 L772.141,420.04601" id="Fill-13" fill="#056DAE"></path>
        <path d="M812.601,369.79601 C817.891,369.79601 822.081,371.03201 825.171,373.50001 C828.251,375.96801 829.791,380.04601 829.791,385.73301 L829.791,420.04601 L822.671,420.04601 L822.771,414.04501 C821.011,415.92201 818.911,417.56301 816.441,418.96601 C813.961,420.37401 810.951,421.07601 807.391,421.07601 C805.451,421.07601 803.551,420.80901 801.671,420.27801 C799.801,419.74801 798.111,418.87501 796.611,417.65401 C795.111,416.43701 793.911,414.82701 793.001,412.82801 C792.091,410.82601 791.641,408.32701 791.641,405.32901 C791.641,402.57901 792.171,400.20201 793.231,398.20301 C794.291,396.20501 795.681,394.56401 797.391,393.28301 C799.101,392.00101 801.091,391.06301 803.371,390.46701 C805.641,389.87601 808.001,389.57901 810.421,389.57901 C812.921,389.57901 815.221,389.84601 817.341,390.37601 C819.461,390.90601 821.231,391.57701 822.671,392.39001 L822.671,386.61101 C822.671,379.40101 819.141,375.79601 812.061,375.79601 C809.461,375.79601 807.091,376.12501 804.951,376.78101 C802.811,377.43701 800.751,378.36001 798.771,379.54601 L796.141,373.79801 C798.321,372.59201 800.821,371.62301 803.631,370.89101 C806.431,370.16201 809.421,369.79601 812.601,369.79601 Z M810.111,395.20101 C806.521,395.20101 803.711,396.03301 801.701,397.68901 C799.681,399.34401 798.671,401.73601 798.671,404.86001 C798.671,408.54901 799.581,411.21901 801.411,412.87401 C803.241,414.53001 805.651,415.35801 808.621,415.35801 C811.791,415.35801 814.541,414.64001 816.901,413.20201 C819.261,411.76401 821.181,410.01301 822.671,407.95301 L822.671,398.01601 C821.061,397.13901 819.301,396.45201 817.411,395.95301 C815.521,395.45301 813.091,395.20101 810.111,395.20101 Z" id="Combined-Shape" fill="#056DAE"></path>
        <polyline id="Fill-15" fill="#056DAE" points="845.541 420.04601 845.541 355.64001 852.671 351.70401 852.671 420.04601 845.541 420.04601"></polyline>
        <path d="M929.821,351.70401 L929.821,420.04601 L922.691,420.04601 L922.791,414.04501 C921.041,415.92201 918.981,417.56301 916.601,418.96601 C914.231,420.37401 911.351,421.07601 907.981,421.07601 C905.541,421.07601 903.241,420.59101 901.091,419.62201 C898.931,418.65701 897.051,417.17301 895.471,415.17101 C893.871,413.17201 892.621,410.59301 891.711,407.43901 C890.801,404.28001 890.361,400.54501 890.361,396.23501 C890.361,391.86001 890.841,388.03001 891.801,384.74901 C892.771,381.46901 894.091,378.71901 895.771,376.49801 C897.461,374.28201 899.421,372.61101 901.661,371.48601 C903.901,370.36101 906.311,369.79601 908.861,369.79601 C911.981,369.79601 914.621,370.39101 916.811,371.57801 C918.991,372.76801 920.951,374.35801 922.691,376.36101 L922.691,355.64001 L929.821,351.70401 Z M909.441,375.79601 C905.321,375.79601 902.271,377.52401 900.281,380.97701 C898.291,384.43301 897.291,389.48701 897.291,396.14401 C897.291,402.42201 898.381,407.14901 900.561,410.32201 C902.741,413.49201 905.791,415.07501 909.721,415.07501 C912.331,415.07501 914.711,414.43401 916.861,413.14501 C919.011,411.86001 920.961,410.11601 922.691,407.91901 L922.691,383.23901 C921.321,381.16801 919.511,379.40901 917.231,377.96301 C914.961,376.51701 912.361,375.79601 909.441,375.79601 Z" id="Combined-Shape" fill="#056DAE"></path>
        <path d="M963.101,369.79601 C966.291,369.79601 969.121,370.39101 971.581,371.57801 C974.051,372.76801 976.131,374.43901 977.821,376.59401 C979.511,378.74901 980.781,381.31201 981.611,384.28001 C982.461,387.25201 982.881,390.48301 982.881,393.98401 C982.881,394.86201 982.871,395.57901 982.841,396.14001 C982.811,396.70401 982.731,397.26501 982.601,397.82601 L949.891,397.82601 C950.201,403.17001 951.541,407.38101 953.911,410.46001 C956.291,413.53801 959.511,415.07501 963.571,415.07501 C966.441,415.07501 968.871,414.67101 970.831,413.85801 C972.801,413.04601 974.921,411.89001 977.171,410.39101 L980.451,415.44501 C978.941,416.36801 977.541,417.18501 976.231,417.89401 C974.921,418.60001 973.571,419.18801 972.191,419.64901 C970.821,420.10701 969.391,420.46101 967.881,420.71001 C966.381,420.95401 964.691,421.07601 962.821,421.07601 C960.571,421.07601 958.251,420.64101 955.881,419.76301 C953.511,418.89001 951.361,417.43701 949.441,415.40301 C947.521,413.37401 945.931,410.70401 944.661,407.38901 C943.391,404.07801 942.761,400.01501 942.761,395.20101 C942.761,391.26501 943.271,387.73601 944.311,384.60801 C945.341,381.48401 946.761,378.82901 948.571,376.63901 C950.381,374.45401 952.521,372.76801 954.991,371.57801 C957.461,370.39101 960.161,369.79601 963.101,369.79601 Z M963.101,375.79601 C959.411,375.79601 956.401,377.13201 954.061,379.80601 C951.711,382.47601 950.321,386.57601 949.891,392.10801 L976.411,392.10801 C976.101,387.27101 974.881,383.34201 972.761,380.32401 C970.631,377.30701 967.421,375.79601 963.101,375.79601 Z" id="Combined-Shape" fill="#056DAE"></path>
        <path d="M1070.721,420.04601 L1070.721,368.57901 C1070.531,369.20501 1070.301,369.97201 1070.021,370.87601 C1069.741,371.78301 1069.411,372.71801 1069.041,373.68701 C1068.661,374.65601 1068.291,375.64001 1067.921,376.63901 C1067.541,377.64301 1067.181,378.57701 1066.801,379.45501 L1049.351,421.73201 L1032.171,379.45501 C1031.801,378.64201 1031.431,377.71901 1031.051,376.68901 C1030.681,375.65501 1030.321,374.65601 1029.981,373.68701 C1029.641,372.71801 1029.331,371.78301 1029.051,370.87601 C1028.761,369.97201 1028.531,369.20501 1028.341,368.57901 L1028.341,420.04601 L1021.221,420.04601 L1021.221,354.42301 L1029.381,354.42301 L1044.851,393.70201 C1045.221,394.70201 1045.651,395.79601 1046.111,396.98301 C1046.581,398.17301 1047.041,399.35901 1047.471,400.54501 C1047.901,401.73601 1048.321,402.84201 1048.691,403.87601 C1049.061,404.90601 1049.351,405.76401 1049.531,406.45001 C1049.721,405.76401 1050.001,404.89001 1050.381,403.82601 C1050.751,402.76601 1051.151,401.64001 1051.601,400.45401 C1052.031,399.26801 1052.491,398.07701 1052.961,396.89101 C1053.421,395.70501 1053.851,394.64101 1054.221,393.70201 L1069.881,354.42301 L1077.841,354.42301 L1077.841,420.04601 L1070.721,420.04601" id="Fill-18" fill="#056DAE"></path>
        <polygon id="Path" fill="#056DAE" points="1113.281 364.26501 1107.751 364.26501 1117.411 349.26601 1127.441 349.26601"></polygon>
        <path d="M1111.971,369.79601 C1115.161,369.79601 1117.991,370.39101 1120.451,371.57801 C1122.921,372.76801 1125.001,374.43901 1126.691,376.59401 C1128.381,378.74901 1129.641,381.31201 1130.481,384.28001 C1131.331,387.25201 1131.751,390.48301 1131.751,393.98401 C1131.751,394.86201 1131.731,395.57901 1131.701,396.14001 C1131.671,396.70401 1131.601,397.26501 1131.471,397.82601 L1098.751,397.82601 C1099.071,403.17001 1100.411,407.38101 1102.781,410.46001 C1105.151,413.53801 1108.371,415.07501 1112.441,415.07501 C1115.311,415.07501 1117.731,414.67101 1119.701,413.85801 C1121.671,413.04601 1123.781,411.89001 1126.041,410.39101 L1129.321,415.44501 C1127.811,416.36801 1126.411,417.18501 1125.101,417.89401 C1123.781,418.60001 1122.431,419.18801 1121.061,419.64901 C1119.691,420.10701 1118.251,420.46101 1116.751,420.71001 C1115.251,420.95401 1113.561,421.07601 1111.691,421.07601 C1109.441,421.07601 1107.121,420.64101 1104.751,419.76301 C1102.381,418.89001 1100.231,417.43701 1098.311,415.40301 C1096.391,413.37401 1094.791,410.70401 1093.531,407.38901 C1092.261,404.07801 1091.631,400.01501 1091.631,395.20101 C1091.631,391.26501 1092.141,387.73601 1093.181,384.60801 C1094.211,381.48401 1095.631,378.82901 1097.441,376.63901 C1099.251,374.45401 1101.391,372.76801 1103.861,371.57801 C1106.331,370.39101 1109.031,369.79601 1111.971,369.79601 Z M1111.971,375.79601 C1108.281,375.79601 1105.271,377.13201 1102.931,379.80601 C1100.581,382.47601 1099.191,386.57601 1098.751,392.10801 L1125.281,392.10801 C1124.971,387.27101 1123.751,383.34201 1121.631,380.32401 C1119.501,377.30701 1116.291,375.79601 1111.971,375.79601 Z" id="Combined-Shape" fill="#056DAE"></path>
        <polyline id="Fill-20" fill="#056DAE" points="1171.791 420.04601 1162.041 402.98301 1160.531 400.26301 1159.031 402.98301 1149.191 420.04601 1141.881 420.04601 1157.061 394.64101 1142.911 370.83001 1150.691 370.83001 1159.411 386.10701 1160.911 388.82701 1162.411 386.10701 1171.221 370.83001 1178.531 370.83001 1164.381 394.45401 1179.561 420.04601 1171.791 420.04601"></polyline>
        <polygon id="Path" fill="#056DAE" points="1192.591 420.04601 1199.721 420.04601 1199.721 370.83001 1192.591 370.83001"></polygon>
        <path d="M1201.131,357.04801 C1201.131,358.42501 1200.641,359.59601 1199.671,360.56501 C1198.701,361.53401 1197.571,362.01401 1196.251,362.01401 C1194.811,362.01401 1193.591,361.53401 1192.591,360.56501 C1191.591,359.59601 1191.101,358.42501 1191.101,357.04801 C1191.101,355.61001 1191.591,354.40801 1192.591,353.43901 C1193.591,352.47001 1194.811,351.98601 1196.251,351.98601 C1197.571,351.98601 1198.701,352.47001 1199.671,353.43901 C1200.641,354.40801 1201.131,355.61001 1201.131,357.04801 L1201.131,357.04801 Z" id="Path" fill="#056DAE"></path>
        <path d="M1245.561,380.76701 C1243.751,379.14201 1241.951,377.90601 1240.171,377.06301 C1238.391,376.22001 1236.251,375.79601 1233.741,375.79601 C1231.811,375.79601 1230.011,376.22001 1228.361,377.06701 C1226.701,377.91801 1225.261,379.17201 1224.051,380.83501 C1222.831,382.50201 1221.871,384.52801 1221.191,386.91201 C1220.501,389.30001 1220.161,392.03101 1220.161,395.10601 C1220.161,401.19801 1221.371,406.05001 1223.811,409.66201 C1226.241,413.27101 1229.651,415.07501 1234.031,415.07501 C1236.411,415.07501 1238.471,414.61001 1240.211,413.67101 C1241.971,412.73301 1243.691,411.45101 1245.371,409.82601 L1249.591,414.32801 C1247.531,416.42901 1245.251,418.07701 1242.751,419.27501 C1240.241,420.47701 1237.251,421.07601 1233.741,421.07601 C1231.061,421.07601 1228.461,420.56101 1225.971,419.53101 C1223.471,418.49701 1221.261,416.92201 1219.361,414.79701 C1217.451,412.67201 1215.921,410.03301 1214.761,406.87401 C1213.601,403.71901 1213.031,399.98501 1213.031,395.67001 C1213.031,391.10801 1213.661,387.20201 1214.911,383.95201 C1216.151,380.70601 1217.781,378.03201 1219.781,375.93801 C1221.781,373.84401 1224.051,372.29901 1226.571,371.29501 C1229.111,370.30001 1231.651,369.79601 1234.221,369.79601 C1237.591,369.79601 1240.541,370.33801 1243.071,371.41401 C1245.611,372.48901 1247.841,373.85901 1249.781,375.52201 L1245.561,380.76701" id="Fill-22" fill="#056DAE"></path>
        <path d="M1279.401,369.79601 C1282.401,369.79601 1285.201,370.33001 1287.801,371.39101 C1290.391,372.45501 1292.631,374.04901 1294.501,376.17001 C1296.371,378.29901 1297.861,380.93901 1298.951,384.09301 C1300.041,387.25201 1300.591,390.92101 1300.591,395.11001 C1300.591,399.29801 1300.031,402.99801 1298.901,406.21801 C1297.781,409.43701 1296.251,412.15701 1294.311,414.37301 C1292.371,416.59401 1290.091,418.26401 1287.471,419.39001 C1284.841,420.51501 1282.031,421.07601 1279.031,421.07601 C1276.031,421.07601 1273.231,420.53001 1270.641,419.43501 C1268.041,418.34501 1265.811,416.72001 1263.941,414.56001 C1262.061,412.40501 1260.581,409.73501 1259.481,406.54601 C1258.391,403.35701 1257.841,399.67201 1257.841,395.48401 C1257.841,391.29901 1258.411,387.61001 1259.531,384.42101 C1260.651,381.23601 1262.191,378.56201 1264.121,376.40701 C1266.061,374.25101 1268.341,372.61101 1270.971,371.48601 C1273.591,370.36101 1276.411,369.79601 1279.401,369.79601 Z M1279.171,375.79601 C1274.871,375.79601 1271.431,377.41401 1268.851,380.64901 C1266.261,383.88301 1264.971,388.76601 1264.971,395.29701 C1264.971,401.82701 1266.261,406.75601 1268.851,410.08601 C1271.431,413.41201 1274.871,415.07501 1279.171,415.07501 C1283.471,415.07501 1286.931,413.41201 1289.541,410.08601 C1292.161,406.75601 1293.471,401.82701 1293.471,395.29701 C1293.471,388.76601 1292.161,383.88301 1289.541,380.64901 C1286.931,377.41401 1283.471,375.79601 1279.171,375.79601 Z" id="Combined-Shape" fill="#056DAE"></path>
        <path d="M361.678,148.04401 L337.403,148.04401 C320.803,130.93401 298.999,121.62901 276.784,121.62901 C254.185,121.68601 232.758,130.93401 216.115,148.04401 L191.89,148.04401 C210.058,121.06801 242.564,103 276.784,103 C311.514,102.98401 344.083,121.60501 361.678,148.04401 Z" id="Path" fill="#D8232A"></path>
        <path d="M1206.461,121.62501 C1213.131,121.62501 1217.491,124.48401 1223.011,131.55801 C1226.771,136.59301 1231.061,143.16501 1233.511,147.02201 C1236.551,142.27801 1240.021,137.20201 1243.561,132.43001 C1246.801,128.48101 1250.771,126.84901 1254.791,126.84901 C1262.001,126.84901 1269.501,131.22001 1274.461,134.77101 C1281.271,139.93401 1289.311,147.81501 1293.841,155.98901 C1296.421,160.44401 1297.761,164.10001 1297.761,167.61701 C1297.761,171.74901 1295.901,175.83101 1292.031,181.08001 C1288.311,186.12301 1283.291,192.27601 1280.331,195.72501 C1285.881,197.08801 1291.861,198.83701 1297.491,200.69801 C1305.391,203.27101 1307.731,209.18801 1307.731,215.57201 C1307.731,227.56301 1299.381,245.72901 1290.481,255.20601 C1285.411,260.59801 1281.371,263.12601 1276.301,263.12601 C1273.371,263.12601 1270.151,262.48101 1266.181,261.19901 C1260.131,259.26201 1252.701,256.42201 1248.491,254.75001 C1248.841,260.37001 1248.971,263.12101 1248.971,272.48201 C1248.971,287.42601 1232.151,288.54901 1222.671,288.54901 C1213.611,288.54901 1202.541,286.81201 1193.861,282.85901 C1184.091,278.14101 1180.931,273.56301 1180.931,257.97301 C1180.931,251.73301 1181.361,247.31501 1181.681,242.76501 C1176.321,244.82001 1170.511,246.88401 1164.821,248.70401 C1150.451,253.42101 1144.221,237.90101 1141.311,228.93901 C1138.441,220.48701 1137.471,212.73101 1137.471,206.04501 C1137.471,190.49801 1142.391,185.23701 1154.251,181.40301 C1160.281,179.47201 1167.971,177.51801 1172.381,176.36901 C1168.811,172.04201 1165.011,167.19501 1161.521,162.35301 C1159.371,159.51601 1158.471,156.74201 1158.471,154.13601 C1158.471,145.48301 1167.371,138.39901 1173.251,134.14701 C1180.571,129.17601 1194.201,121.62501 1206.461,121.62501 Z M1202.111,231.75901 C1200.381,233.59101 1198.191,234.83901 1196.091,236.02201 C1193.121,237.80901 1188.871,239.71201 1184.381,241.72301 C1189.261,246.77301 1201.901,256.94301 1220.671,256.94301 C1224.931,256.94301 1226.351,254.86301 1226.351,252.53001 C1226.351,249.39601 1223.251,247.74101 1218.371,246.28201 C1212.201,244.40301 1201.751,241.84501 1201.751,234.02201 C1201.751,233.19201 1201.881,232.40101 1202.111,231.75901 Z M1270.441,215.62401 C1268.031,215.62401 1265.801,217.46201 1263.321,220.91501 C1259.631,226.17401 1253.911,235.23601 1246.431,232.78801 C1245.591,232.48901 1244.811,232.18701 1244.271,231.75001 C1245.491,233.92801 1246.061,236.34401 1246.611,238.65501 C1247.301,242.07301 1247.901,246.69901 1248.281,251.89101 C1252.871,249.41401 1260.861,244.42001 1267.411,235.57001 C1272.161,228.68201 1274.791,222.21401 1274.791,219.45301 C1274.791,216.74701 1272.161,215.62401 1270.441,215.62401 Z M1223.351,171.41901 C1222.461,176.01501 1217.501,181.30101 1210.171,186.59901 C1201.941,192.47701 1196.481,193.99001 1192.381,193.43601 C1196.521,195.68601 1200.051,201.95401 1202.871,210.53701 C1204.551,215.54801 1205.291,219.16101 1205.291,222.34801 C1205.291,225.11301 1204.781,227.20101 1203.941,228.90001 C1207.461,225.72201 1214.561,224.28901 1223.651,224.28901 C1233.761,224.28901 1239.141,226.26501 1242.091,229.11001 C1241.401,227.47601 1241.041,225.49101 1241.071,223.18401 C1241.071,219.35701 1242.041,214.94601 1243.751,209.57901 C1246.881,200.15201 1250.411,195.72501 1254.121,193.75101 C1249.391,194.32701 1242.841,191.34601 1235.441,186.04601 C1227.301,180.14701 1224.121,175.47701 1223.351,171.41901 Z M1174.241,178.57301 C1171.051,185.14501 1165.211,200.17001 1170.961,217.34601 C1172.231,221.29701 1174.731,222.04601 1176.961,221.33201 C1180.031,220.33601 1180.651,217.33501 1180.571,212.35801 C1180.401,205.98001 1179.631,195.31601 1187.191,192.93801 C1187.931,192.58401 1188.501,192.51201 1189.081,192.57501 C1185.971,191.03301 1180.781,186.04601 1174.241,178.57301 Z M1253.401,159.85901 C1251.161,159.85901 1249.221,161.87001 1249.221,164.08301 C1249.221,166.13401 1250.671,168.49001 1252.801,171.32801 C1255.741,175.22001 1260.541,180.90101 1260.541,186.16201 C1260.541,189.56501 1258.541,191.73601 1257.331,192.58401 C1258.371,192.35201 1259.411,192.27601 1260.481,192.27601 C1264.281,192.27601 1271.041,193.33101 1277.721,195.06501 C1276.651,187.77701 1272.481,172.23801 1257.291,161.37601 C1255.801,160.32401 1254.551,159.85901 1253.401,159.85901 Z M1223.841,148.91001 C1215.381,148.91001 1204.061,150.64801 1193.181,158.47401 C1191.031,159.96101 1190.301,161.53601 1190.301,162.80901 C1190.301,164.12801 1191.351,167.14101 1195.011,167.14101 C1200.271,167.14101 1207.311,162.55601 1214.561,162.55601 C1221.361,162.55601 1223.011,167.38501 1223.251,168.11501 C1223.451,164.99301 1226.221,158.36301 1231.921,149.46201 C1229.901,149.12601 1227.101,148.91001 1223.841,148.91001 Z" id="Combined-Shape" fill="#D8232A"></path>
        <polygon id="Path" fill="#056DAE" points="327.269 267.79801 348.432 267.79801 348.432 164.69401 327.269 164.69401"></polygon>
        <path d="M309.8,245.36601 L311.003,244.59701 L305.931,264.48301 L305.704,264.62801 C302.257,266.75501 296.471,269.55901 287,269.35701 C272.934,269.12801 263.53,258.27901 263.53,242.40101 L263.53,184.20801 L245.677,184.20801 L245.677,164.82001 L263.53,164.82001 L263.53,143.82801 L284.289,132.69601 L284.289,164.82001 L305.742,164.82001 L305.742,184.20801 L284.289,184.20801 L284.289,238.94101 C284.289,246.95801 287.308,250.56201 294.165,250.56201 C298.885,250.56201 304.159,248.81401 309.8,245.36601 Z" id="Path" fill="#056DAE"></path>
        <polygon id="Path" fill="#056DAE" points="205.893 267.79801 227.036 267.79801 227.036 164.69401 205.893 164.69401"></polygon>
        <path d="M124.319,216.40801 C124.319,235.68601 137.78,249.55101 156.358,249.55101 C165.295,249.55101 173.941,245.55501 181.383,237.96501 L181.832,237.47601 L193.861,251.91701 L193.528,252.29501 C183.545,264.06701 171.61,269.77401 156.951,269.77401 C142.236,269.77401 128.819,264.85501 119.051,255.89301 C108.583,246.20101 103,232.53501 103,216.40801 C103,200.24001 108.583,186.60001 119.051,176.92601 C128.819,167.96801 142.236,163.06501 156.951,163.06501 C171.61,163.06501 183.545,168.73401 193.528,180.51601 L193.861,180.87801 L181.832,195.35301 L181.383,194.89401 C173.941,187.23901 165.295,183.22501 156.358,183.22501 C137.78,183.22501 124.319,197.21001 124.319,216.40801 Z" id="Path" fill="#056DAE"></path>
        <path d="M1127.071,267.82701 L1102.941,267.82701 L1093.131,249.97301 C1089.011,242.51801 1084.301,233.10001 1082.331,229.17601 C1080.571,233.10001 1075.081,243.10601 1071.151,250.16901 L1061.151,267.82701 L1038.261,267.82701 L1069.861,214.46201 L1040.421,164.82401 L1063.891,164.82401 L1071.941,179.34301 C1076.061,186.79801 1080.961,196.01901 1082.731,199.94201 C1084.891,196.01901 1089.791,186.21001 1093.711,178.94901 L1101.561,164.82401 L1124.911,164.82401 L1095.271,214.46201 L1127.071,267.82701 Z" id="Path" fill="#056DAE"></path>
        <path d="M993.391,162.66601 C1022.621,162.66601 1038.291,186.40601 1038.291,214.26601 C1038.291,217.99301 1037.901,221.32901 1037.701,223.48601 L1037.701,223.48601 L966.541,223.48601 C968.701,243.30201 981.421,251.47701 993.981,251.47701 C1002.611,251.47701 1011.791,248.33801 1018.651,243.23801 L1018.651,243.23801 L1029.851,256.44801 C1020.831,265.08001 1008.501,269.98501 992.801,269.98501 C968.671,269.98501 946.331,250.56201 946.331,216.42301 C946.331,181.50001 966.711,162.66601 993.391,162.66601 Z M992.021,180.91201 C978.481,180.91201 968.701,190.32901 966.941,206.80901 L966.941,206.80901 L1017.891,206.80901 C1016.901,192.68301 1008.691,180.91201 992.021,180.91201 Z" id="Combined-Shape" fill="#056DAE"></path>
        <path d="M932.591,208.00301 L932.591,267.82701 L911.831,267.82701 L911.831,209.55601 C911.831,188.75901 905.361,181.30401 892.011,181.30401 C878.481,181.30401 872.481,190.91801 872.481,207.59501 L872.481,267.82701 L851.721,267.82701 L851.721,209.55601 C851.721,188.75901 845.521,181.30401 832.171,181.30401 C818.641,181.30401 811.591,190.91801 811.591,207.59501 L811.591,267.82701 L790.831,267.82701 L790.831,164.82401 L811.591,164.82401 L811.591,174.63301 C816.691,167.17801 826.291,162.66601 836.881,162.66601 C850.821,162.66601 859.641,167.96201 865.141,177.77201 C872.591,168.55201 880.641,162.66601 896.721,162.66601 C920.661,162.66601 932.591,173.47801 932.591,208.00301 Z" id="Path" fill="#056DAE"></path>
        <path d="M731.202,162.66601 C754.156,162.66601 771.941,173.84901 771.941,197.19601 L771.941,197.19601 L771.941,267.82701 L751.186,267.82701 L751.186,257.62501 C744.124,264.68801 733.349,269.98501 722.165,269.98501 C705.489,269.98501 685.418,260.56801 685.418,235.25901 C685.418,212.30301 704.116,201.90501 727.464,201.90501 C737.075,201.90501 745.498,203.27901 751.186,205.82901 L751.186,205.82901 L751.186,198.17701 C751.186,186.99401 742.781,180.71601 730.226,180.71601 C719.631,180.71601 711.391,182.67801 703.347,187.19001 L703.347,187.19001 L695.499,171.88701 C705.308,165.80501 716.682,162.66601 731.202,162.66601 Z M726.875,219.36601 C713.925,219.36601 704.916,225.25201 704.916,234.66901 C704.916,244.87201 712.16,251.73801 725.501,251.73801 C736.291,251.73801 746.479,245.06801 751.186,238.59401 L751.186,238.59401 L751.186,223.87801 C745.693,221.13301 737.862,219.36601 726.875,219.36601 Z" id="Combined-Shape" fill="#056DAE"></path>
        <path d="M528.669,162.66601 C551.623,162.66601 569.412,173.84901 569.412,197.19601 L569.412,197.19601 L569.412,267.82701 L548.653,267.82701 L548.653,257.62501 C541.591,264.68801 530.816,269.98501 519.632,269.98501 C502.956,269.98501 482.884,260.56801 482.884,235.25901 C482.884,212.30301 501.583,201.90501 524.931,201.90501 C534.542,201.90501 542.964,203.27901 548.653,205.82901 L548.653,205.82901 L548.653,198.17701 C548.653,186.99401 540.248,180.71601 527.692,180.71601 C517.098,180.71601 508.858,182.67801 500.814,187.19001 L500.814,187.19001 L492.965,171.88701 C502.775,165.80501 514.149,162.66601 528.669,162.66601 Z M524.341,219.36601 C511.392,219.36601 502.383,225.25201 502.383,234.66901 C502.383,244.87201 509.627,251.73801 522.968,251.73801 C533.758,251.73801 543.946,245.06801 548.653,238.59401 L548.653,238.59401 L548.653,223.87801 C543.16,221.13301 535.329,219.36601 524.341,219.36601 Z" id="Combined-Shape" fill="#056DAE"></path>
        <path d="M672.965,208.77201 L672.965,267.82701 L652.206,267.82701 L652.206,209.55601 C652.206,188.75901 644.358,181.30401 631.016,181.30401 C617.48,181.30401 609.058,190.91801 609.058,207.59501 L609.058,267.82701 L588.299,267.82701 L588.299,164.82401 L609.058,164.82401 L609.058,174.63301 C614.16,167.17801 625.488,162.66601 636.084,162.66601 C660.019,162.66601 672.965,175.96901 672.965,208.77201 Z" id="Path" fill="#056DAE"></path>
        <path d="M403.196,132.69601 L403.196,174.63301 C410.651,167.76601 420.823,162.66601 431.613,162.66601 C453.783,162.66601 473.661,178.75301 473.661,217.99301 C473.661,253.30901 452.018,269.98501 430.632,269.98501 C420.233,269.98501 408.886,264.49201 403.196,258.21301 L403.196,258.21301 L403.196,267.82701 L382.437,267.82701 L382.437,143.82801 L403.196,132.69601 Z M427.886,181.30401 C418.272,181.30401 408.297,187.77901 403,194.44901 L403,194.44901 L403,237.80801 C407.512,243.89101 418.468,251.34601 428.67,251.34601 C443.189,251.34601 453.343,240.35901 453.343,218.58201 C453.343,192.68301 442.796,181.30401 427.886,181.30401 Z" id="Combined-Shape" fill="#056DAE"></path>
        <path d="M1322.99943,163 C1314.4822,163 1308,156.517798 1308,148.000566 C1308,139.483334 1314.4822,133 1322.99943,133 C1331.51667,133 1338,139.482202 1338,148.000566 C1338,156.518931 1331.5178,163 1322.99943,163 Z M1322.99943,135.409875 C1315.85248,135.409875 1310.40988,140.853611 1310.40988,148.000566 C1310.40988,155.147522 1315.85248,160.58786 1322.99943,160.58786 C1330.14639,160.58786 1335.59012,155.152052 1335.59012,148.000566 C1335.59012,140.849081 1330.14639,135.409875 1322.99943,135.409875 L1322.99943,135.409875 Z M1326.36511,149.288173 L1329.73078,155.894945 L1326.44664,155.894945 L1323.24744,149.579216 L1320.08788,149.579216 L1320.08788,155.894945 L1317.30769,155.894945 L1317.30769,139.524103 L1324.49541,139.524103 C1327.4047,139.524103 1329.85535,141.060851 1329.85535,144.468423 C1329.85535,147.04477 1328.48507,148.66532 1326.36511,149.288173 L1326.36511,149.288173 Z M1324.41274,142.22502 L1320.08788,142.22502 L1320.08788,146.878298 L1324.40935,146.878298 C1325.90533,146.878298 1327.02647,146.171643 1327.02647,144.551093 C1327.02986,143.014344 1325.90872,142.22502 1324.41274,142.22502 L1324.41274,142.22502 Z" id="Shape" fill="#056DAE" fill-rule="nonzero"></path>
    </g>
</svg>