<?xml version="1.0" encoding="utf-8"?>
<!-- Generator: Adobe Illustrator 23.0.4, SVG Export Plug-In . SVG Version: 6.00 Build 0)  -->
<svg version="1.1" id="Layer_1" xmlns="http://www.w3.org/2000/svg" xmlns:xlink="http://www.w3.org/1999/xlink" x="0px" y="0px"
	 viewBox="0 0 1152 612" style="enable-background:new 0 0 1152 612;" xml:space="preserve">
<style type="text/css">
	.st0{fill:#CC2C2C;}
	.st1{fill:#004785;}
</style>
<g>
	<path class="st0" d="M1111.88,310.54c-5.19-1.71-10.7-3.33-15.82-4.58c2.73-3.18,7.35-8.85,10.78-13.49
		c3.57-4.84,5.28-8.6,5.28-12.4c0-3.24-1.24-6.61-3.61-10.71c-4.17-7.53-11.58-14.79-17.85-19.55c-4.57-3.27-11.48-7.3-18.12-7.3
		c-3.71,0-7.37,1.5-10.35,5.14c-3.26,4.4-6.46,9.07-9.26,13.44c-2.25-3.55-6.21-9.61-9.68-14.25c-5.09-6.52-9.1-9.15-15.25-9.15
		c-11.29,0-23.85,6.96-30.59,11.54c-5.43,3.92-13.62,10.44-13.62,18.42c0,2.4,0.83,4.96,2.81,7.57c3.21,4.46,6.71,8.93,10,12.91
		c-4.07,1.06-11.15,2.86-16.7,4.64c-10.93,3.53-15.46,8.38-15.46,22.7c0,6.16,0.89,13.31,3.54,21.09
		c2.68,8.26,8.42,22.56,21.66,18.21c5.24-1.68,10.59-3.58,15.53-5.47c-0.3,4.19-0.7,8.26-0.7,14.01c0,14.36,2.91,18.58,11.92,22.93
		c8,3.64,18.2,5.24,26.54,5.24c8.73,0,24.24-1.03,24.24-14.8c0-8.62-0.12-11.16-0.45-16.34c3.88,1.54,10.72,4.16,16.3,5.94
		c3.66,1.18,6.62,1.77,9.33,1.77c4.67,0,8.39-2.33,13.06-7.3c8.2-8.73,15.89-25.47,15.89-36.52
		C1121.31,318.36,1119.15,312.91,1111.88,310.54z M1015.78,271.64c10.02-7.21,20.45-8.81,28.24-8.81c3,0,5.59,0.2,7.45,0.51
		c-5.25,8.2-7.8,14.31-7.98,17.19c-0.23-0.67-1.75-5.12-8.01-5.12c-6.68,0-13.17,4.22-18.02,4.22c-3.37,0-4.33-2.78-4.33-3.99
		C1013.12,274.46,1013.79,273.01,1015.78,271.64z M1004.16,321.28c0.07,4.59-0.5,7.35-3.33,8.27c-2.05,0.66-4.36-0.03-5.52-3.67
		c-5.3-15.82,0.08-29.67,3.01-35.72c6.03,6.89,10.81,11.48,13.68,12.9c-0.54-0.06-1.06,0.01-1.75,0.33
		C1003.29,305.58,1004,315.41,1004.16,321.28z M1041.1,362.36c-17.29,0-28.94-9.37-33.44-14.02c4.14-1.85,8.06-3.61,10.79-5.25
		c1.93-1.09,3.95-2.24,5.55-3.93c-0.22,0.59-0.33,1.32-0.33,2.08c0,7.21,9.63,9.56,15.31,11.3c4.5,1.34,7.36,2.87,7.36,5.76
		C1046.34,360.45,1045.03,362.36,1041.1,362.36z M1060.84,336.72c-2.72-2.62-7.67-4.44-16.99-4.44c-8.37,0-14.92,1.32-18.16,4.25
		c0.77-1.57,1.24-3.49,1.24-6.04c0-2.94-0.68-6.26-2.23-10.88c-2.6-7.91-5.85-13.68-9.67-15.76c3.78,0.51,8.81-0.88,16.4-6.3
		c6.75-4.88,11.32-9.75,12.14-13.99c0.71,3.74,3.64,8.04,11.14,13.48c6.82,4.88,12.85,7.63,17.21,7.1
		c-3.42,1.82-6.67,5.9-9.55,14.58c-1.58,4.94-2.47,9.01-2.47,12.53C1059.87,333.38,1060.2,335.21,1060.84,336.72z M1084.17,342.67
		c-6.03,8.15-13.4,12.75-17.62,15.04c-0.36-4.78-0.9-9.05-1.54-12.19c-0.5-2.13-1.03-4.36-2.15-6.36c0.49,0.4,1.22,0.68,1.98,0.96
		c6.89,2.26,12.17-6.09,15.56-10.94c2.29-3.18,4.34-4.87,6.56-4.87c1.59,0,4.01,1.03,4.01,3.53
		C1090.96,330.36,1088.54,336.32,1084.17,342.67z M1077.78,302.78c-0.99,0-1.94,0.07-2.91,0.28c1.12-0.78,2.96-2.78,2.96-5.92
		c0-4.85-4.42-10.08-7.13-13.67c-1.97-2.61-3.3-4.79-3.3-6.67c0-2.04,1.79-3.89,3.86-3.89c1.05,0,2.21,0.43,3.58,1.4
		c14,10.01,17.84,24.32,18.82,31.04C1087.51,303.75,1081.28,302.78,1077.78,302.78z M249.68,262.03h-22.37
		c-15.29-15.76-35.38-24.34-55.85-24.34c-20.82,0.05-40.56,8.57-55.9,24.34H93.25c16.74-24.85,46.69-41.5,78.22-41.5
		C203.47,220.51,233.47,237.67,249.68,262.03z"/>
	<path class="st1" d="M1140.65,267.82c0,1.37-0.24,2.65-0.74,3.83c-0.49,1.18-1.17,2.2-2.04,3.07c-0.86,0.87-1.88,1.54-3.06,2.03
		c-1.18,0.49-2.46,0.74-3.83,0.74c-1.38,0-2.66-0.25-3.83-0.74c-1.18-0.49-2.2-1.17-3.07-2.03c-0.86-0.87-1.54-1.89-2.04-3.07
		c-0.49-1.18-0.74-2.45-0.74-3.83s0.24-2.65,0.74-3.83c0.49-1.18,1.18-2.2,2.04-3.07c0.87-0.87,1.89-1.54,3.07-2.03
		c1.18-0.49,2.45-0.74,3.83-0.74c1.37,0,2.65,0.25,3.83,0.74c1.18,0.49,2.2,1.17,3.06,2.03c0.87,0.87,1.54,1.89,2.04,3.07
		C1140.4,265.17,1140.65,266.44,1140.65,267.82z M1139.09,267.82c0-1.14-0.21-2.21-0.61-3.2c-0.41-0.99-0.99-1.85-1.72-2.58
		c-0.73-0.73-1.59-1.3-2.58-1.71s-2.05-0.61-3.19-0.61c-1.17,0-2.23,0.2-3.21,0.61c-0.99,0.41-1.84,0.98-2.57,1.71
		c-0.74,0.73-1.3,1.59-1.71,2.58c-0.41,0.99-0.62,2.06-0.62,3.2c0,1.16,0.21,2.23,0.62,3.21s0.98,1.84,1.71,2.57
		c0.74,0.73,1.59,1.31,2.57,1.71c0.98,0.41,2.05,0.61,3.21,0.61c1.14,0,2.21-0.2,3.19-0.61c1-0.41,1.86-0.98,2.58-1.71
		c0.74-0.73,1.31-1.59,1.72-2.57C1138.89,270.05,1139.09,268.98,1139.09,267.82z M1135.37,265.54c0,0.84-0.21,1.52-0.61,2.04
		c-0.41,0.52-0.96,0.87-1.63,1.07l2.16,4.26h-2.1l-2.05-4.07h-2.03v4.07h-1.79v-10.55h4.61c0.47,0,0.91,0.06,1.33,0.18
		c0.41,0.13,0.78,0.32,1.09,0.58c0.3,0.26,0.56,0.59,0.74,0.99C1135.28,264.51,1135.37,264.99,1135.37,265.54z M1133.58,265.6
		c0-0.5-0.16-0.87-0.48-1.13c-0.32-0.25-0.73-0.37-1.21-0.37h-2.78v3h2.78c0.48,0,0.89-0.12,1.21-0.36
		C1133.41,266.49,1133.58,266.12,1133.58,265.6z M314.12,275.5c-9.94,0-19.31,4.7-26.18,11.03v-38.64l-19.13,10.26v114.24h19.13
		v-8.86c5.24,5.78,15.7,10.85,25.28,10.85c19.7,0,39.64-15.36,39.64-47.9C352.86,290.32,334.54,275.5,314.12,275.5z M311.41,357.2
		c-9.4,0-19.49-6.87-23.65-12.47v-39.95c4.88-6.15,14.07-12.11,22.93-12.11c13.74,0,23.45,10.48,23.45,34.35
		C334.14,347.08,324.78,357.2,311.41,357.2z M536.48,317.98v54.41h-19.13V318.7c0-19.16-7.23-26.03-19.52-26.03
		c-12.47,0-20.23,8.86-20.23,24.22v55.5h-19.13v-94.9h19.13v9.04c4.7-6.87,15.14-11.03,24.9-11.03
		C524.56,275.5,536.48,287.76,536.48,317.98z M403.54,275.5c-13.38,0-23.86,2.89-32.9,8.5l7.23,14.1c7.41-4.16,15-5.96,24.76-5.96
		c11.57,0,19.31,5.78,19.31,16.09v7.05c-5.24-2.35-13-3.62-21.86-3.62c-21.51,0-38.74,9.58-38.74,30.73
		c0,23.32,18.49,31.99,33.86,31.99c10.3,0,20.23-4.88,26.74-11.39v9.4h19.13v-65.07C441.08,285.8,424.69,275.5,403.54,275.5z
		 M421.95,345.46c-4.34,5.97-13.72,12.11-23.66,12.11c-12.29,0-18.97-6.33-18.97-15.73c0-8.68,8.3-14.1,20.23-14.1
		c10.12,0,17.34,1.63,22.4,4.16V345.46z M590.14,275.5c-13.38,0-23.86,2.89-32.9,8.5l7.23,14.1c7.41-4.16,15-5.96,24.76-5.96
		c11.57,0,19.31,5.78,19.31,16.09v7.05c-5.24-2.35-13-3.62-21.86-3.62c-21.51,0-38.74,9.58-38.74,30.73
		c0,23.32,18.49,31.99,33.86,31.99c10.3,0,20.23-4.88,26.74-11.39v9.4h19.13v-65.07C627.68,285.8,611.29,275.5,590.14,275.5z
		 M608.55,345.46c-4.34,5.97-13.72,12.11-23.66,12.11c-12.29,0-18.97-6.33-18.97-15.73c0-8.68,8.3-14.1,20.23-14.1
		c10.12,0,17.34,1.63,22.4,4.16L608.55,345.46L608.55,345.46z M775.69,317.27v55.12h-19.13V318.7c0-19.16-5.97-26.03-18.26-26.03
		c-12.47,0-18,8.86-18,24.22v55.5h-19.13V318.7c0-19.16-5.71-26.03-18-26.03c-12.47,0-18.96,8.86-18.96,24.22v55.5h-19.13v-94.9
		h19.13v9.04c4.7-6.87,13.54-11.03,23.3-11.03c12.84,0,20.97,4.88,26.03,13.92c6.87-8.5,14.28-13.92,29.1-13.92
		C764.69,275.5,775.69,285.46,775.69,317.27z M873.07,323.04c0-25.67-14.43-47.54-41.37-47.54c-24.58,0-43.36,17.35-43.36,49.53
		c0,31.45,20.58,49.35,42.81,49.35c14.46,0,25.82-4.52,34.14-12.47l-10.32-12.17c-6.33,4.7-14.78,7.59-22.73,7.59
		c-11.57,0-23.29-7.53-25.28-25.79h65.56C872.71,329.55,873.07,326.48,873.07,323.04z M807.33,316.17
		c1.63-15.18,10.64-23.86,23.11-23.86c15.36,0,22.93,10.85,23.83,23.86H807.33z M954.87,372.39h-22.24l-9.04-16.45
		c-3.8-6.87-8.13-15.55-9.94-19.16c-1.63,3.62-6.69,12.83-10.3,19.34l-9.22,16.27h-21.09l29.12-49.17l-27.13-45.73h21.63l7.41,13.38
		c3.8,6.87,8.31,15.36,9.94,18.98c1.99-3.61,6.51-12.65,10.12-19.34l7.23-13.01h21.51l-27.31,45.73L954.87,372.39z M31,325.02
		c0,17.76,12.4,30.53,29.52,30.53c8.23,0,16.2-3.68,23.06-10.67l0.41-0.45l11.08,13.31l-0.31,0.35c-9.2,10.85-20.19,16.1-33.7,16.1
		c-13.56,0-25.92-4.53-34.92-12.79c-9.64-8.93-14.79-21.52-14.79-36.38c0-14.9,5.14-27.46,14.79-36.38
		c9-8.25,21.36-12.77,34.92-12.77c13.51,0,24.5,5.22,33.7,16.08l0.31,0.33l-11.08,13.34l-0.41-0.42
		c-6.86-7.05-14.82-10.75-23.06-10.75C43.4,294.44,31,307.33,31,325.02z M106.15,277.37h19.48v94.99h-19.48
		C106.15,372.36,106.15,277.37,106.15,277.37z M201.89,351.7l1.11-0.71l-4.67,18.32l-0.21,0.13c-3.18,1.96-8.51,4.54-17.23,4.36
		c-12.96-0.21-21.62-10.21-21.62-24.84v-53.62h-16.45v-17.85h16.45v-19.34l19.13-10.26v29.6h19.76v17.86H178.4v50.43
		c0,7.39,2.78,10.71,9.1,10.71C191.83,356.48,196.69,354.87,201.89,351.7z M217.98,277.37h19.5v94.99h-19.5V277.37z"/>
</g>
</svg>
