<?xml version="1.0" encoding="utf-8"?>
<!-- Generator: Adobe Illustrator 23.0.4, SVG Export Plug-In . SVG Version: 6.00 Build 0)  -->
<svg version="1.1" id="Layer_1" xmlns="http://www.w3.org/2000/svg" xmlns:xlink="http://www.w3.org/1999/xlink" x="0px" y="0px"
	 viewBox="0 0 1224 792" style="enable-background:new 0 0 1224 792;" xml:space="preserve">
<style type="text/css">
	.st0{fill-rule:evenodd;clip-rule:evenodd;fill:#FFFFFF;}
	.st1{fill-rule:evenodd;clip-rule:evenodd;fill:#ED1C24;}
</style>
<g>
	<rect x="835.5" y="405.62" class="st0" width="14.56" height="71.02"/>
	<path class="st0" d="M907.09,461.19c-3.89,2.36-7.5,3.55-10.74,3.55c-4.71,0-6.83-2.48-6.83-8.01v-37.68h14.82v-13.37h-14.82v-22.1
		l-14.28,7.63v14.46h-12.31v13.37h12.31v40.09c0,10.92,6.48,18.38,16.15,18.58c6.56,0.13,10.52-1.83,12.92-3.26l0.15-0.1l3.5-13.69
		L907.09,461.19z"/>
	<rect x="919.14" y="405.62" class="st0" width="14.57" height="71.02"/>
	<path class="st1" d="M942.21,393.17c-13.3-18.82-35.38-30.05-57.86-30.05c-22.47,0-44.56,11.23-57.83,30.05l-0.69,0.97h16.75
		l0.19-0.2c11.4-11.75,26.28-17.97,41.58-17.97c15.3,0,30.17,6.22,41.6,17.97l0.19,0.2h16.73L942.21,393.17z"/>
	<path class="st0" d="M278.06,348.06v44.35c0,6.09,1.69,8.17,6.89,8.17c3.89,0,6.49-0.65,9.6-1.95l-0.65,8.43
		c-3.77,1.56-7.41,2.34-12.6,2.34c-8.44,0-12.98-4.16-12.98-15.44v-45.9h-8.44v-8.17h8.44V323.9l9.73-5.45v21.43h16.88v8.17H278.06z
		"/>
	<path class="st0" d="M350.63,407.98v-39.82c0-14.65-5.19-21.27-16.09-21.27c-9.49,0-16.89,6.35-16.89,21.27v39.82h-9.73v-89.82
		l9.73-6.15v36.16c3.9-5.71,10.26-9.71,18.84-9.71c14.41,0,23.88,8.42,23.88,27.99v41.52H350.63z"/>
	<path class="st0" d="M412.73,407.98v-8.31c-4.81,5.19-11.56,9.73-21.31,9.73c-10.63,0-21.79-5.32-21.79-21.8
		c0-15.31,12.59-21.78,26.09-21.78c6.87,0,12.98,1.68,17.01,3.9v-8.05c0-10.12-4.81-15.05-14.8-15.05c-7.15,0-12.98,1.95-18.57,5.18
		l-3.63-7.9c5.96-3.24,14.01-5.44,22.86-5.44c14.65,0,23.88,6.21,23.88,22.05v47.47H412.73z M412.73,377.49
		c-4.42-2.47-9.22-3.88-17.54-3.88c-9.98,0-15.96,4.8-15.96,13.35c0,10.12,5.58,14.54,13.89,14.54c8.84,0,15.45-4.54,19.61-10.25
		V377.49z"/>
	<polygon class="st0" points="539.92,407.98 522.65,372.18 510.85,388.4 510.85,407.98 501.12,407.98 501.12,318.86 510.85,313.41 
		510.85,372.18 510.85,375.67 513.57,371.52 535.9,339.88 546.8,339.88 528.9,364.01 550.43,407.98 	"/>
	<path class="st0" d="M592.74,373.49c-1.76,4.93-4.07,12.69-5.4,17.26c-1.35-4.56-4.47-12.52-6.21-17.52l-11.92-32.97h-15.53
		l26.44,65.86l-9.85,25.27h15.02l0.14-0.35l33.77-90.79h-15.02L592.74,373.49z"/>
	<path class="st0" d="M729.84,340.27v39.49c-0.05,10.62-4.7,16.4-13.14,16.43c-4.23-0.01-7.45-1.16-9.67-3.88
		c-2.23-2.74-3.49-7.17-3.49-13.82v-38.22h-14.17v38.72c0,9.9,2.07,17.47,6.18,22.61c4.1,5.13,10.23,7.74,18.07,7.74h0.03
		c6.38-0.01,12.54-2.46,16.19-6.67v5.28h14.19v-67.68H729.84z"/>
	<path class="st0" d="M650.81,338.87c-8.52,0-16.12,3.3-21.54,9.39c-5.44,6.06-8.72,14.9-8.72,25.9c0,10.52,3.18,19.31,8.53,25.48
		c5.33,6.17,12.82,9.69,21.36,9.69h0.02c8.69,0,16.37-3.29,21.85-9.41c5.49-6.1,8.75-15,8.75-26.14c0-10.5-3.21-19.24-8.61-25.33
		C667.04,342.33,659.46,338.87,650.81,338.87 M662.38,389.52c-2.79,3.91-6.7,6.3-11.44,6.3c-9.54-0.03-16.05-7.59-16.07-22.03
		c0.03-13.05,5.93-21.39,15.43-21.39c10.17,0.02,16.4,8.35,16.46,21.76C666.76,380.17,665.15,385.6,662.38,389.52"/>
	<path class="st0" d="M478.36,407.98v-39.82c0-14.65-5.2-21.27-16.11-21.27c-9.46,0-16.86,6.35-16.86,21.27v39.82h-9.74v-68.1h9.74
		v8.29c3.88-5.71,10.25-9.71,18.81-9.71c14.41,0,23.89,8.42,23.89,27.99v41.52H478.36z"/>
	<path class="st0" d="M617.11,433.55c-2.33,0-3.3,0.89-3.3,3.5v4.12h6.66v6.59h-6.66v29.45h-7.07v-29.45h-4.67v-6.59h4.67v-4.73
		c0-6.59,4.05-9.06,9.14-9.06c1.86,0,3.85,0.27,5.36,0.68v6.18C619.59,433.75,618.35,433.55,617.11,433.55"/>
	<path class="st0" d="M648.78,448.65c-1.51-0.82-3.09-1.3-5.43-1.3c-4.47,0-7.08,3.16-7.08,9.27v20.59h-7.08v-36.04h7.08v3.43
		c1.65-2.4,4.67-4.19,8.24-4.19c2.89,0,4.67,0.55,6.12,1.51L648.78,448.65z"/>
	<path class="st0" d="M670.36,477.96c-9.07,0-15.87-7.48-15.87-18.74c0-11.81,7.01-18.81,16.07-18.81c9.21,0,16.08,7.34,16.08,18.6
		C686.64,470.96,679.64,477.96,670.36,477.96 M670.29,447.14c-5.36,0-8.66,4.74-8.66,11.88c0,7.89,3.64,12.22,9,12.22
		s8.86-5.42,8.86-12.01C679.5,451.88,676,447.14,670.29,447.14"/>
	<path class="st0" d="M737.27,477.21v-20.39c0-7.28-2.27-9.89-6.94-9.89c-4.74,0-6.94,3.36-6.94,9.2v21.07h-7.08v-20.39
		c0-7.28-2.27-9.89-6.94-9.89c-4.74,0-6.94,3.36-6.94,9.2v21.07h-7.07v-36.04h7.07v3.44c1.79-2.61,4.88-4.19,8.59-4.19
		c4.88,0,7.97,1.85,9.89,5.28c2.61-3.23,5.43-5.28,11.06-5.28c8.38,0,12.36,5.49,12.36,16.13v20.66H737.27z"/>
	<path class="st0" d="M964.12,387.62c0,3.76-2.96,6.72-6.81,6.72c-3.8,0-6.84-2.95-6.84-6.72c0-3.68,3.04-6.64,6.84-6.64
		C961.16,380.99,964.12,383.94,964.12,387.62z M952.17,387.62c0,2.95,2.19,5.3,5.18,5.3c2.92,0,5.07-2.35,5.07-5.26
		c0-2.95-2.15-5.34-5.11-5.34C954.36,382.32,952.17,384.71,952.17,387.62z M956.26,391.1h-1.53v-6.64c0.61-0.12,1.46-0.2,2.55-0.2
		c1.25,0,1.82,0.2,2.31,0.49c0.36,0.28,0.65,0.81,0.65,1.46c0,0.73-0.57,1.3-1.38,1.54v0.08c0.65,0.24,1.01,0.73,1.22,1.62
		c0.2,1.01,0.33,1.42,0.49,1.66h-1.66c-0.2-0.24-0.32-0.85-0.52-1.62c-0.13-0.73-0.53-1.05-1.38-1.05h-0.73V391.1z M956.3,387.34
		h0.73c0.85,0,1.54-0.28,1.54-0.97c0-0.61-0.45-1.01-1.42-1.01c-0.41,0-0.69,0.04-0.85,0.08V387.34z"/>
	<path class="st0" d="M818.93,455.74l-0.32,0.32c-5.15,5.24-11.11,8.01-17.25,8.01c-12.81,0-22.12-9.61-22.12-22.86
		c0-13.23,9.31-22.84,22.12-22.84c6.14,0,12.1,2.78,17.25,8.04l0.32,0.32l8.24-9.96l-0.22-0.27c-6.86-8.09-15.08-12.02-25.19-12.02
		c-10.14,0-19.42,3.41-26.1,9.56c-7.27,6.66-11.1,16.06-11.1,27.18c0,11.13,3.83,20.55,11.1,27.21c6.69,6.18,15.96,9.57,26.1,9.57
		c10.11,0,18.33-3.93,25.19-12.03l0.22-0.25L818.93,455.74z"/>
</g>
</svg>
