<?xml version="1.0" encoding="UTF-8"?>
<svg width="334px" height="198px" viewBox="0 0 334 198" version="1.1" xmlns="http://www.w3.org/2000/svg" xmlns:xlink="http://www.w3.org/1999/xlink">
    <!-- Generator: Sketch 57.1 (83088) - https://sketch.com -->
    <title>Logotype/Puntos-Premia/White</title>
    <desc>Created with Sketch.</desc>
    <g id="Logotype/Puntos-Premia/White" stroke="none" stroke-width="1" fill="none" fill-rule="evenodd">
        <path d="M184.96,57.91 L186.55,60.3 C189.6,59.25 192.89,58.68 196.29,58.97 L197.54,55.82 C193.66,55.4 189.48,56 184.96,57.91 Z" id="Path" fill="#FFFFFF"></path>
        <path d="M207.97,59.69 L206.74,62.79 C209.24,64.5 211.74,66.85 214.18,69.98 L216.94,68.19 C214.23,64.76 211.24,61.85 207.97,59.69" id="Path" fill="#FFFFFF"></path>
        <path d="M222.97,77.33 L220,79.25 C221.61,82.37 223.17,85.92 224.67,89.95 L228.41,88.63 C226.8,84.76 224.99,80.93 222.97,77.33" id="Path" fill="#FFFFFF"></path>
        <path d="M166.17,72 L168.66,72.81 C168.66,72.81 171.79,69.12 176.74,65.54 L175.44,63.6 C172.48,65.86 169.39,68.62 166.17,72" id="Path" fill="#FFFFFF"></path>
        <path d="M232.24,98.85 L228.07,100.32 C228.83,102.97 231.25,110.88 231.97,113.84 L236.37,112.69 C235.59,109.95 233.24,101.82 232.24,98.85" id="Path" fill="#FFFFFF"></path>
        <path d="M234.27,130.99 L239.01,130.99 C239.01,130.99 239.94,126.21 241.62,118.9 L237.18,117.85 C235.79,123.05 234.6,129.56 234.27,130.99" id="Path" fill="#FFFFFF"></path>
        <path d="M241.14,106.81 L244.31,107.76 C245.38,104.44 246.81,100.76 248.68,96.73 L245.94,95.5 C244.21,98.96 242.56,102.75 241.14,106.81" id="Path" fill="#FFFFFF"></path>
        <path d="M260.89,76.18 L259.38,75.06 C258.33,76.3 255.49,79.78 252.16,84.96 L254.4,86.29 C256.28,83.08 258.43,79.71 260.89,76.18" id="Path" fill="#FFFFFF"></path>
        <path d="M71.89,130.97 C71.89,134.15 71.38,136.88 70.36,139.15 C69.34,141.42 67.92,143.29 66.1,144.75 C64.28,146.21 62.12,147.28 59.63,147.96 C57.14,148.64 54.44,148.98 51.55,148.98 L39.17,148.98 L39.17,168.39 L28,168.39 L28,113.61 L52.52,113.61 C55.14,113.61 57.64,113.96 60,114.67 C62.36,115.38 64.42,116.46 66.19,117.92 C67.96,119.38 69.35,121.19 70.37,123.36 C71.38,125.51 71.89,128.05 71.89,130.97 M60.31,131.21 C60.31,128.84 59.57,127.1 58.1,125.99 C56.62,124.88 54.63,124.32 52.11,124.32 L39.17,124.32 L39.17,138.25 L52.28,138.25 C57.63,138.25 60.31,135.9 60.31,131.21" id="Shape" fill="#FFFFFF"></path>
        <path d="M106.03,139.89 C105.12,139.08 104.13,138.43 103.05,137.92 C101.98,137.41 100.83,137.16 99.59,137.16 C98.52,137.16 97.54,137.29 96.66,137.55 C95.77,137.81 95.02,138.28 94.41,138.96 C93.79,139.64 93.31,140.56 92.97,141.71 C92.62,142.86 92.44,144.32 92.44,146.1 L92.44,168.38 L81.26,168.38 L81.26,127.27 L92.44,127.27 L92.44,130.01 C93.4,129.03 94.6,128.18 96.02,127.49 C97.44,126.79 99.14,126.44 101.12,126.44 C102.94,126.44 104.51,126.74 105.82,127.34 C107.13,127.94 108.16,128.61 108.91,129.33 L106.03,139.89 Z" id="Path" fill="#FFFFFF"></path>
        <path d="M150.55,147.88 C150.55,148.66 150.54,149.33 150.51,149.88 C150.48,150.43 150.45,150.91 150.39,151.33 L125.15,151.33 C125.26,152.74 125.58,153.94 126.11,154.93 C126.65,155.92 127.32,156.72 128.12,157.32 C128.92,157.92 129.82,158.36 130.81,158.65 C131.8,158.94 132.8,159.08 133.82,159.08 C135.38,159.08 136.76,158.82 138,158.3 C139.23,157.78 140.25,157.08 141.06,156.19 L148.94,162.61 C147.22,164.75 144.99,166.39 142.23,167.54 C139.47,168.68 136.67,169.26 133.83,169.26 C130.77,169.26 128.03,168.75 125.59,167.74 C123.15,166.72 121.07,165.29 119.36,163.43 C117.65,161.58 116.32,159.33 115.38,156.7 C114.44,154.07 113.97,151.13 113.97,147.9 C113.97,144.77 114.45,141.89 115.42,139.25 C116.38,136.62 117.71,134.35 119.39,132.44 C121.09,130.54 123.07,129.06 125.34,128.02 C127.62,126.98 130.1,126.45 132.78,126.45 C135.56,126.45 138.07,127.01 140.29,128.13 C142.52,129.25 144.38,130.79 145.88,132.75 C147.38,134.71 148.54,136.99 149.34,139.6 C150.14,142.19 150.55,144.96 150.55,147.88 M139.13,140.48 C138.8,139.62 138.34,138.84 137.72,138.13 C137.11,137.43 136.34,136.86 135.43,136.45 C134.52,136.03 133.45,135.82 132.21,135.82 C130.17,135.82 128.57,136.52 127.39,137.93 C126.21,139.34 125.51,141.09 125.3,143.17 L139.77,143.17 C139.66,142.24 139.45,141.34 139.13,140.48" id="Shape" fill="#FFFFFF"></path>
        <path d="M209.21,169.01 L209.21,146.79 C209.21,143.14 208.66,140.63 207.57,139.28 C206.48,137.92 204.79,137.25 202.5,137.25 C200.21,137.25 198.5,137.91 197.38,139.24 C196.26,140.57 195.7,143.01 195.7,146.55 L195.7,169.01 L184.53,169.01 L184.53,146.79 C184.53,143.14 183.98,140.63 182.89,139.28 C181.8,137.92 180.11,137.25 177.81,137.25 C175.52,137.25 173.81,137.91 172.69,139.24 C171.57,140.57 171.01,143.01 171.01,146.55 L171.01,169.01 L159.83,169.01 L159.83,127.92 L171.01,127.92 L170.93,130.66 C171.89,129.67 173.12,128.82 174.6,128.12 C176.07,127.41 177.94,127.06 180.2,127.06 C182.88,127.06 185.11,127.47 186.88,128.27 C188.65,129.08 190.31,130.42 191.88,132.3 C193.33,130.84 195.06,129.6 197.07,128.58 C199.08,127.56 201.84,127.05 205.33,127.05 C208.01,127.05 210.31,127.48 212.21,128.34 C214.11,129.2 215.67,130.46 216.88,132.1 C218.09,133.74 218.97,135.72 219.54,138.04 C220.1,140.36 220.39,142.96 220.39,145.83 L220.39,168.99 L209.21,168.99 L209.21,169.01 Z" id="Path" fill="#FFFFFF"></path>
        <rect id="Rectangle" fill="#FFFFFF" x="231.54" y="132.44" width="11.18" height="35.94"></rect>
        <path d="M277.42,168.38 L277.5,165.64 C276.48,166.68 275.14,167.55 273.48,168.22 C271.82,168.9 269.99,169.24 268.01,169.24 C266.02,169.24 264.1,168.94 262.22,168.34 C260.34,167.74 258.67,166.84 257.19,165.64 C255.71,164.44 254.52,162.93 253.61,161.1 C252.7,159.28 252.25,157.11 252.25,154.61 C252.25,152.37 252.69,150.38 253.57,148.66 C254.45,146.94 255.66,145.52 257.21,144.39 C258.76,143.27 260.56,142.42 262.62,141.85 C264.68,141.28 266.91,140.99 269.31,140.99 C271.24,140.99 272.84,141.16 274.12,141.5 C275.4,141.84 276.5,142.22 277.41,142.63 L277.41,140.6 C277.41,139.14 276.91,137.9 275.92,136.88 C274.92,135.86 273.42,135.35 271.38,135.35 C270.09,135.35 268.95,135.4 267.96,135.51 C266.97,135.61 266.03,135.77 265.15,135.98 C264.27,136.18 263.39,136.46 262.54,136.8 C261.68,137.14 260.77,137.57 259.8,138.09 L255.54,130.58 C256.77,129.9 257.97,129.3 259.12,128.78 C260.27,128.26 261.47,127.83 262.73,127.49 C263.99,127.15 265.32,126.89 266.71,126.71 C268.1,126.53 269.66,126.44 271.37,126.44 C273.94,126.44 276.28,126.75 278.38,127.38 C280.48,128.01 282.28,128.93 283.8,130.16 C285.31,131.39 286.49,132.9 287.32,134.7 C288.15,136.5 288.57,138.55 288.57,140.84 L288.57,168.39 L277.42,168.39 L277.42,168.38 L277.42,168.38 Z M277.42,151.16 C276.47,150.59 275.44,150.16 274.36,149.87 C273.28,149.58 271.76,149.44 269.79,149.44 C267.72,149.44 266.15,149.89 265.05,150.77 C263.97,151.66 263.43,152.93 263.43,154.6 C263.43,156.06 263.9,157.34 264.86,158.43 C265.81,159.53 267.45,160.08 269.79,160.08 C271.59,160.08 273.16,159.7 274.52,158.94 C275.87,158.19 276.84,157.31 277.42,156.32 L277.42,151.16 L277.42,151.16 Z" id="Shape" fill="#FFFFFF"></path>
        <path d="M58.2,79.68 C58.2,81.85 57.85,83.71 57.16,85.26 C56.47,86.81 55.5,88.08 54.25,89.08 C53.01,90.08 51.54,90.81 49.84,91.27 C48.14,91.73 46.3,91.96 44.33,91.96 L35.89,91.96 L35.89,105.2 L28.27,105.2 L28.27,67.84 L44.99,67.84 C46.78,67.84 48.48,68.08 50.09,68.56 C51.7,69.04 53.11,69.78 54.31,70.78 C55.52,71.78 56.47,73.01 57.16,74.49 C57.86,75.95 58.2,77.68 58.2,79.68 M50.31,79.84 C50.31,78.22 49.81,77.03 48.8,76.28 C47.79,75.52 46.43,75.15 44.72,75.15 L35.89,75.15 L35.89,84.65 L44.83,84.65 C48.48,84.64 50.31,83.04 50.31,79.84" id="Shape" fill="#FFFFFF"></path>
        <path d="M81.34,105.19 L81.39,103.32 C80.73,104 79.83,104.57 78.68,105.05 C77.53,105.53 76.19,105.77 74.65,105.77 C70.96,105.77 68.26,104.62 66.56,102.33 C64.86,100.04 64.01,96.91 64.01,92.96 L64.01,77.16 L71.63,77.16 L71.63,92.32 C71.63,93.57 71.74,94.61 71.96,95.44 C72.18,96.28 72.49,96.94 72.88,97.44 C73.28,97.94 73.78,98.29 74.4,98.51 C75.01,98.72 75.7,98.83 76.46,98.83 C78.01,98.83 79.22,98.38 80.07,97.47 C80.92,96.56 81.35,94.9 81.35,92.48 L81.35,77.16 L88.97,77.16 L88.97,105.18 L81.34,105.19 L81.34,105.19 Z" id="Path" fill="#FFFFFF"></path>
        <path d="M113.64,105.19 L113.64,90.03 C113.64,87.54 113.23,85.83 112.4,84.91 C111.57,83.98 110.37,83.52 108.82,83.52 C107.26,83.52 106.06,83.97 105.21,84.88 C104.36,85.79 103.94,87.45 103.94,89.87 L103.94,105.19 L96.32,105.19 L96.32,77.17 L103.94,77.17 L103.89,79.04 C104.55,78.36 105.45,77.78 106.6,77.3 C107.75,76.82 109.1,76.58 110.63,76.58 C114.28,76.58 116.97,77.73 118.69,80.02 C120.41,82.32 121.27,85.44 121.27,89.39 L121.27,105.19 L113.64,105.19 L113.64,105.19 Z" id="Path" fill="#FFFFFF"></path>
        <path d="M144.45,104.07 C143.83,104.57 142.98,104.98 141.93,105.3 C140.87,105.62 139.75,105.78 138.58,105.78 C137.4,105.78 136.34,105.58 135.38,105.17 C134.42,104.76 133.61,104.18 132.95,103.43 C132.29,102.68 131.77,101.79 131.41,100.76 C131.04,99.73 130.86,98.59 130.86,97.35 L130.86,84.11 L126.04,84.11 L126.04,77.17 L130.86,77.17 L130.86,69.97 L138.48,66.29 L138.48,77.18 L145.39,77.18 L145.39,84.12 L138.48,84.12 L138.48,95.38 C138.48,96.73 138.72,97.63 139.2,98.08 C139.67,98.52 140.37,98.75 141.28,98.75 C141.97,98.75 142.63,98.59 143.23,98.27 C143.83,97.95 144.61,97.4 145.56,96.62 L144.45,104.07 Z" id="Path" fill="#FFFFFF"></path>
        <path d="M205.75,97.02 C205.75,98.62 205.44,99.98 204.82,101.1 C204.2,102.22 203.36,103.13 202.3,103.82 C201.24,104.51 200,105.01 198.57,105.31 C197.14,105.61 195.62,105.76 194.02,105.76 C191.72,105.76 189.51,105.47 187.41,104.88 C185.3,104.29 183.49,103.5 181.95,102.5 L184.47,96.9 C186,97.72 187.59,98.35 189.21,98.79 C190.84,99.24 192.58,99.46 194.45,99.46 C195.95,99.46 196.96,99.28 197.49,98.93 C198.02,98.58 198.29,98.04 198.29,97.33 C198.29,96.69 197.99,96.17 197.38,95.78 C196.78,95.39 195.67,94.96 194.06,94.5 C192.34,94 190.78,93.5 189.37,92.98 C187.96,92.46 186.77,91.86 185.78,91.17 C184.79,90.48 184.03,89.63 183.51,88.63 C182.98,87.64 182.71,86.39 182.71,84.89 C182.71,83.43 182.99,82.18 183.56,81.13 C184.13,80.08 184.92,79.22 185.94,78.54 C186.96,77.86 188.18,77.37 189.59,77.04 C191,76.72 192.54,76.56 194.22,76.56 C196.05,76.56 197.89,76.81 199.76,77.31 C201.62,77.81 203.32,78.47 204.86,79.28 L202.45,85.1 C201.03,84.35 199.57,83.79 198.09,83.42 C196.61,83.05 195.27,82.86 194.06,82.86 C192.52,82.86 191.49,83.01 190.96,83.32 C190.43,83.62 190.17,84.08 190.17,84.68 C190.17,84.97 190.24,85.22 190.39,85.45 C190.54,85.68 190.82,85.91 191.24,86.14 C191.66,86.37 192.26,86.63 193.05,86.91 C193.83,87.19 194.87,87.53 196.15,87.92 C197.43,88.35 198.65,88.79 199.82,89.25 C200.99,89.71 202.02,90.28 202.89,90.96 C203.77,91.64 204.46,92.46 204.98,93.44 C205.49,94.45 205.75,95.63 205.75,97.02" id="Path" fill="#FFFFFF"></path>
        <path d="M305.23,53.23 C305.23,67.17 293.63,78.47 279.31,78.47 C264.99,78.47 253.39,67.17 253.39,53.23 C253.39,39.3 265,28 279.31,28 C293.62,28 305.23,39.3 305.23,53.23" id="Path" fill="#ED3124"></path>
        <path d="M265.49,72.89 C265.49,72.89 278.13,82.27 292.5,72.89 C292.5,72.89 279.4,79.53 265.49,72.89" id="Path" fill="#E1B9B0"></path>
        <path d="M254.57,53.23 C254.57,53.23 255.78,78.28 279.51,78.46 C303.23,78.64 304.14,52.78 304.14,52.78 C304.14,52.78 281.77,89 254.57,53.23" id="Path" fill="#F05E5E"></path>
        <path d="M282.04,60.14 C284.87,58.36 287.62,56.43 290.13,54.24 C294.8,50.16 299.81,43.67 295.25,37.77 C293.02,34.89 290,32.52 286.54,31.17 C283.89,30.14 281.32,30.12 278.5,30.13 C274.29,30.14 270.34,31.19 266.77,33.38 C262.86,35.77 260.23,39.68 261.3,44.3 C263.94,55.62 282.04,60.14 282.04,60.14" id="Path" fill="#C7161D"></path>
        <path d="M283.04,73.95 C283.04,73.95 301.23,70.32 301.23,50.67 C301.23,50.67 305.23,72.18 283.04,73.95" id="Path" fill="#B01116"></path>
        <path d="M260.01,43.81 C258.12,48.59 258.21,52.79 258.21,52.79 L255.12,49.78 C255.88,46.86 256.9,44.47 258.02,42.51 L260.01,43.81 Z" id="Path" fill="#F9C0B6"></path>
        <path d="M260.59,42.48 C262.03,39.39 264.37,36.19 268.12,33.84 C268.12,33.84 263.06,34.85 258.91,41.06 L260.59,42.48 Z" id="Path" fill="#F9C0B6"></path>
        <path d="M178.37,91.29 C178.37,98.99 171.96,105.24 164.05,105.24 C156.14,105.24 149.72,99 149.72,91.29 C149.72,83.59 156.13,77.34 164.05,77.34 C171.96,77.34 178.37,83.58 178.37,91.29" id="Path" fill="#ED3124"></path>
        <path d="M156.41,102.15 C156.41,102.15 163.4,107.29 171.34,102.15 C171.33,102.15 164.1,105.79 156.41,102.15" id="Path" fill="#E1B9B0"></path>
        <path d="M150.37,91.29 C150.37,91.29 151.04,105.14 164.15,105.24 C177.26,105.34 177.77,91.05 177.77,91.05 C177.77,91.05 165.4,111.06 150.37,91.29" id="Path" fill="#F05E5E"></path>
        <path d="M165.56,95.1 C167.12,94.11 168.64,93.05 170.03,91.84 C172.61,89.58 175.38,86 172.86,82.74 C171.63,81.15 169.96,79.83 168.05,79.09 C166.59,78.52 165.17,78.51 163.61,78.52 C161.28,78.53 159.11,79.1 157.13,80.32 C154.97,81.64 153.52,83.8 154.11,86.35 C155.55,92.61 165.56,95.1 165.56,95.1" id="Path" fill="#C7161D"></path>
        <path d="M166.11,102.74 C166.11,102.74 176.16,100.73 176.16,89.87 C176.16,89.87 178.37,101.76 166.11,102.74" id="Path" fill="#B01116"></path>
        <path d="M153.38,86.08 C152.34,88.72 152.39,91.04 152.39,91.04 L150.68,89.38 C151.1,87.77 151.66,86.44 152.28,85.36 L153.38,86.08 Z" id="Path" fill="#F9C0B6"></path>
        <path d="M153.7,85.34 C154.49,83.63 155.79,81.86 157.87,80.56 C157.87,80.56 155.07,81.12 152.77,84.55 L153.7,85.34 Z" id="Path" fill="#F9C0B6"></path>
    </g>
</svg>