<?xml version="1.0" encoding="utf-8"?>
<!-- Generator: Adobe Illustrator 23.0.4, SVG Export Plug-In . SVG Version: 6.00 Build 0)  -->
<svg version="1.1" id="Layer_1" xmlns="http://www.w3.org/2000/svg" xmlns:xlink="http://www.w3.org/1999/xlink" x="0px" y="0px"
	 viewBox="0 0 552.4 199.6" style="enable-background:new 0 0 552.4 199.6;" xml:space="preserve">
<style type="text/css">
	.st0{fill-rule:evenodd;clip-rule:evenodd;fill:#FFFFFF;}
</style>
<g>
	<path class="st0" d="M124.9,173.4c-28.8,0-52.2-23.4-52.2-52.1H96c0,15.9,13,28.8,28.9,28.8c15.9,0,28.9-12.9,28.9-28.8
		s-13-28.8-28.9-28.8H104l21.9-35.4H91.6V33.8h76.2l-24.1,38.8c19.6,7.5,33.5,26.5,33.5,48.6C177.2,150.1,153.7,173.4,124.9,173.4"
		/>
	<polygon class="st0" points="67.7,121.4 44.3,121.4 44.3,57.1 26.3,57.1 26.3,33.8 67.7,33.8 	"/>
	<path class="st0" d="M233.3,91c-12.7-17.9-34.8-25.4-55-20.4l8.4-13.6h47.8V33.8h-60.5l-22.6,36.4c11,5.7,19.7,14.9,25.1,25.8
		c12.7-7.2,29.1-3.7,37.7,8.4c9.2,12.9,6.1,30.9-6.9,40.1c-9.4,6.6-21.3,6.8-30.7,1.6c-3.5,7.1-8.4,13.4-14.3,18.5
		c8.5,5.5,18.5,8.4,28.5,8.4c10.4,0,20.9-3.1,30-9.5C244.3,146.9,249.9,114.4,233.3,91"/>
	<path class="st0" d="M337.3,95.5h-5.9l-6.3-8.6c-1.2-1.6-3.4-5-4.1-6.1c0.2,1.2,0.2,4.6,0.2,6.8v8h-7V69.3h6.4l5.8,7.7
		c1.2,1.6,3.5,5.1,4.1,6.2c-0.2-1.2-0.2-4.6-0.2-6.8v-7.1h7V95.5z M298.7,82.4c0-4.7-1.7-7.2-4.6-7.2s-4.6,2.4-4.6,7.1
		c0,4.7,1.7,7.2,4.6,7.2S298.7,87.1,298.7,82.4z M306.3,82.3c0,8.7-5.1,13.5-12.2,13.5c-7.1,0-12.1-4.8-12.1-13.5
		s5.1-13.5,12.2-13.5C301.3,68.9,306.3,73.6,306.3,82.3z M276.2,89.1c-1.8,3.4-4.7,6.8-10.9,6.8c-7.8,0-12-5.8-12-13.5
		c0-8.4,4.9-13.5,12-13.5c6.4,0,9,2.8,10.8,7.7l-6.6,2.6c-0.9-2.4-1.8-4-4.2-4c-3,0-4.3,3-4.3,7.2c0,4,1.3,7.2,4.4,7.2
		c2.3,0,3.3-1.2,4.7-3.7L276.2,89.1z"/>
	<path class="st0" d="M364.9,51.9c0,6-4.5,8.5-10.8,8.5c-4.2,0-8.3-1.4-11.1-3.2l3.5-5.7c1.9,1.3,5.2,2.6,7.7,2.6
		c2.6,0,3.4-0.4,3.4-1.7c0-1-0.9-1.6-4.5-2.4c-6.3-1.5-9.4-3.2-9.4-8.4c0-4.9,4-8.3,10.4-8.3c4.5,0,7.7,1.1,10.5,3l-3.5,5.7
		c-2.3-1.6-4.6-2.5-7.3-2.5c-2.2,0-2.7,0.7-2.7,1.6c0,1,0.9,1.4,4.3,2.2C362,45,364.9,47,364.9,51.9z M330.3,46.9
		c0-4.7-1.7-7.2-4.6-7.2s-4.6,2.4-4.6,7.1c0,4.7,1.7,7.2,4.6,7.2S330.3,51.6,330.3,46.9z M337.9,46.8c0,8.7-5.1,13.6-12.2,13.6
		c-7.1,0-12.1-4.8-12.1-13.5s5.1-13.5,12.2-13.5C332.9,33.3,337.9,38.1,337.9,46.8z M303.9,26.4c0,3.3-1.9,5.9-4.9,5.9
		c-1.4,0-2.2-0.3-3.3-0.9c-1.1-0.6-1.7-1.1-2.3-1.1c-0.8,0-1.2,0.6-1.4,1.9h-3.9c0-3.3,1.9-5.9,4.9-5.9c1.4,0,2.2,0.3,3.3,0.9
		c1.1,0.6,1.7,1.1,2.3,1.1c0.8,0,1.2-0.7,1.4-1.9H303.9z M307.4,60h-5.9l-6.3-8.6c-1.2-1.6-3.4-5-4.1-6.1c0.2,1.2,0.2,4.6,0.2,6.8v8
		h-7V33.7h6.4l5.8,7.7c1.2,1.6,3.5,5.1,4.1,6.2c-0.2-1.2-0.2-4.6-0.2-6.8v-7.1h7V60z M267.6,49.6l-0.5-1.7c-0.9-3.4-1.3-4.8-1.7-6.5
		c-0.3,1.8-0.7,3.2-1.7,6.5l-0.5,1.7H267.6z M278.7,60h-7.9l-1.4-4.6h-7.9L260,60h-7.8l9.5-26.2h7.4L278.7,60z"/>
	<path class="st0" d="M518.8,82.4c0-4.7-1.7-7.2-4.6-7.2c-2.9,0-4.6,2.4-4.6,7.1c0,4.7,1.7,7.2,4.6,7.2
		C517.1,89.6,518.8,87.1,518.8,82.4z M526.3,82.3c0,8.7-5.1,13.5-12.2,13.5c-7.1,0-12.1-4.8-12.1-13.5s5.1-13.5,12.2-13.5
		C521.3,68.9,526.3,73.6,526.3,82.3z M495.7,89.1c-1.8,3.4-4.7,6.8-10.9,6.8c-7.8,0-12-5.8-12-13.5c0-8.4,4.9-13.5,12-13.5
		c6.4,0,9,2.8,10.8,7.7l-6.6,2.6c-0.9-2.4-1.8-4-4.2-4c-3,0-4.3,3-4.3,7.2c0,4,1.3,7.2,4.4,7.2c2.3,0,3.3-1.2,4.7-3.7L495.7,89.1z
		 M464.9,95.5h-7.4V69.3h7.4V95.5z M450.1,95.5h-8.4l-1.8-3c-0.9-1.6-1.9-3.4-2.5-4.8c-0.6,1.4-1.6,3.2-2.5,4.8l-1.8,3h-8.3
		l8.6-13.3l-8.3-13h8.4l1.5,2.5c0.9,1.6,1.9,3.4,2.5,4.8c0.6-1.4,1.6-3.1,2.5-4.8l1.5-2.5h8.3l-8.3,12.8L450.1,95.5z M415.4,61.6
		l-5.9,6h-4.8l2.7-6H415.4z M418.3,95.5h-20.4V69.3H418v6.1h-12.9v3.5h7.8v6h-7.8v4.5h13.2L418.3,95.5L418.3,95.5z M389.1,95.5h-6.8
		v-6.2c0-2.6,0-4.9,0.1-7c-0.8,1.9-2.1,5-3,6.8l-3.4,7.3l-3.4-7.3c-0.9-1.9-2.2-4.9-3-6.8c0.1,2,0.1,4.4,0.1,7v6.2h-6.8V69.3h6.7
		l3.2,7c1.6,3.4,2.9,6.4,3.3,7.9c0.4-1.5,1.6-4.3,3.3-7.9l3.2-7h6.6L389.1,95.5L389.1,95.5z"/>
</g>
</svg>
