<?xml version="1.0" encoding="utf-8"?>
<!-- Generator: Adobe Illustrator 23.0.4, SVG Export Plug-In . SVG Version: 6.00 Build 0)  -->
<svg version="1.1" id="Layer_1" xmlns="http://www.w3.org/2000/svg" xmlns:xlink="http://www.w3.org/1999/xlink" x="0px" y="0px"
	 viewBox="0 0 1224 792" style="enable-background:new 0 0 1224 792;" xml:space="preserve">
<style type="text/css">
	.st0{fill-rule:evenodd;clip-rule:evenodd;fill:#004A90;}
	.st1{fill-rule:evenodd;clip-rule:evenodd;fill:#1A4882;}
	.st2{fill-rule:evenodd;clip-rule:evenodd;fill:#ED3124;}
	.st3{fill-rule:evenodd;clip-rule:evenodd;fill:#E1B9B0;}
	.st4{fill-rule:evenodd;clip-rule:evenodd;fill:#F05E5E;}
	.st5{fill-rule:evenodd;clip-rule:evenodd;fill:#C7161D;}
	.st6{fill-rule:evenodd;clip-rule:evenodd;fill:#B01116;}
	.st7{fill-rule:evenodd;clip-rule:evenodd;fill:#F9C0B6;}
</style>
<g>
	<path class="st0" d="M630.35,355.29l1.59,2.39c3.05-1.05,6.34-1.62,9.74-1.33l1.25-3.15C639.05,352.78,634.87,353.38,630.35,355.29
		z"/>
	<path class="st0" d="M653.36,357.07l-1.23,3.1c2.5,1.71,5,4.06,7.44,7.19l2.76-1.79C659.62,362.14,656.63,359.23,653.36,357.07"/>
	<path class="st0" d="M668.36,374.71l-2.97,1.92c1.61,3.12,3.17,6.67,4.67,10.7l3.74-1.32
		C672.19,382.14,670.38,378.31,668.36,374.71"/>
	<path class="st0" d="M611.56,369.38l2.49,0.81c0,0,3.13-3.69,8.08-7.27l-1.3-1.94C617.87,363.24,614.78,366,611.56,369.38"/>
	<path class="st0" d="M677.63,396.23l-4.17,1.47c0.76,2.65,3.18,10.56,3.9,13.52l4.4-1.15C680.98,407.33,678.63,399.2,677.63,396.23
		"/>
	<path class="st0" d="M679.66,428.37h4.74c0,0,0.93-4.78,2.61-12.09l-4.44-1.05C681.18,420.43,679.99,426.94,679.66,428.37"/>
	<path class="st0" d="M686.53,404.19l3.17,0.95c1.07-3.32,2.5-7,4.37-11.03l-2.74-1.23C689.6,396.34,687.95,400.13,686.53,404.19"/>
	<path class="st0" d="M706.28,373.56l-1.51-1.12c-1.05,1.24-3.89,4.72-7.22,9.9l2.24,1.33
		C701.67,380.46,703.82,377.09,706.28,373.56"/>
	<path class="st0" d="M517.28,428.35c0,3.18-0.51,5.91-1.53,8.18s-2.44,4.14-4.26,5.6s-3.98,2.53-6.47,3.21s-5.19,1.02-8.08,1.02
		h-12.38v19.41h-11.17v-54.78h24.52c2.62,0,5.12,0.35,7.48,1.06c2.36,0.71,4.42,1.79,6.19,3.25s3.16,3.27,4.18,5.44
		C516.77,422.89,517.28,425.43,517.28,428.35 M505.7,428.59c0-2.37-0.74-4.11-2.21-5.22c-1.48-1.11-3.47-1.67-5.99-1.67h-12.94
		v13.93h13.11C503.02,435.63,505.7,433.28,505.7,428.59"/>
	<path class="st0" d="M551.42,437.27c-0.91-0.81-1.9-1.46-2.98-1.97c-1.07-0.51-2.22-0.76-3.46-0.76c-1.07,0-2.05,0.13-2.93,0.39
		c-0.89,0.26-1.64,0.73-2.25,1.41c-0.62,0.68-1.1,1.6-1.44,2.75c-0.35,1.15-0.53,2.61-0.53,4.39v22.28h-11.18v-41.11h11.18v2.74
		c0.96-0.98,2.16-1.83,3.58-2.52c1.42-0.7,3.12-1.05,5.1-1.05c1.82,0,3.39,0.3,4.7,0.9s2.34,1.27,3.09,1.99L551.42,437.27z"/>
	<path class="st0" d="M595.94,445.26c0,0.78-0.01,1.45-0.04,2c-0.03,0.55-0.06,1.03-0.12,1.45h-25.24c0.11,1.41,0.43,2.61,0.96,3.6
		c0.54,0.99,1.21,1.79,2.01,2.39s1.7,1.04,2.69,1.33c0.99,0.29,1.99,0.43,3.01,0.43c1.56,0,2.94-0.26,4.18-0.78
		c1.23-0.52,2.25-1.22,3.06-2.11l7.88,6.42c-1.72,2.14-3.95,3.78-6.71,4.93c-2.76,1.14-5.56,1.72-8.4,1.72
		c-3.06,0-5.8-0.51-8.24-1.52c-2.44-1.02-4.52-2.45-6.23-4.31c-1.71-1.85-3.04-4.1-3.98-6.73s-1.41-5.57-1.41-8.8
		c0-3.13,0.48-6.01,1.45-8.65c0.96-2.63,2.29-4.9,3.97-6.81c1.7-1.9,3.68-3.38,5.95-4.42c2.28-1.04,4.76-1.57,7.44-1.57
		c2.78,0,5.29,0.56,7.51,1.68c2.23,1.12,4.09,2.66,5.59,4.62s2.66,4.24,3.46,6.85C595.53,439.57,595.94,442.34,595.94,445.26
		 M584.52,437.86c-0.33-0.86-0.79-1.64-1.41-2.35c-0.61-0.7-1.38-1.27-2.29-1.68c-0.91-0.42-1.98-0.63-3.22-0.63
		c-2.04,0-3.64,0.7-4.82,2.11c-1.18,1.41-1.88,3.16-2.09,5.24h14.47C585.05,439.62,584.84,438.72,584.52,437.86"/>
	<path class="st0" d="M654.6,466.39v-22.22c0-3.65-0.55-6.16-1.64-7.51c-1.09-1.36-2.78-2.03-5.07-2.03s-4,0.66-5.12,1.99
		s-1.68,3.77-1.68,7.31v22.46h-11.17v-22.22c0-3.65-0.55-6.16-1.64-7.51c-1.09-1.36-2.78-2.03-5.08-2.03c-2.29,0-4,0.66-5.12,1.99
		s-1.68,3.77-1.68,7.31v22.46h-11.18V425.3h11.18l-0.08,2.74c0.96-0.99,2.19-1.84,3.67-2.54c1.47-0.71,3.34-1.06,5.6-1.06
		c2.68,0,4.91,0.41,6.68,1.21c1.77,0.81,3.43,2.15,5,4.03c1.45-1.46,3.18-2.7,5.19-3.72s4.77-1.53,8.26-1.53
		c2.68,0,4.98,0.43,6.88,1.29c1.9,0.86,3.46,2.12,4.67,3.76c1.21,1.64,2.09,3.62,2.66,5.94c0.56,2.32,0.85,4.92,0.85,7.79v23.16
		H654.6V466.39z"/>
	<rect x="676.93" y="429.82" class="st0" width="11.18" height="35.94"/>
	<path class="st0" d="M722.81,465.76l0.08-2.74c-1.02,1.04-2.36,1.91-4.02,2.58c-1.66,0.68-3.49,1.02-5.47,1.02
		c-1.99,0-3.91-0.3-5.79-0.9s-3.55-1.5-5.03-2.7c-1.48-1.2-2.67-2.71-3.58-4.54c-0.91-1.82-1.36-3.99-1.36-6.49
		c0-2.24,0.44-4.23,1.32-5.95s2.09-3.14,3.64-4.27c1.55-1.12,3.35-1.97,5.41-2.54s4.29-0.86,6.69-0.86c1.93,0,3.53,0.17,4.81,0.51
		c1.28,0.34,2.38,0.72,3.29,1.13v-2.03c0-1.46-0.5-2.7-1.49-3.72c-1-1.02-2.5-1.53-4.54-1.53c-1.29,0-2.43,0.05-3.42,0.16
		c-0.99,0.1-1.93,0.26-2.81,0.47c-0.88,0.2-1.76,0.48-2.61,0.82c-0.86,0.34-1.77,0.77-2.74,1.29l-4.26-7.51
		c1.23-0.68,2.43-1.28,3.58-1.8s2.35-0.95,3.61-1.29s2.59-0.6,3.98-0.78c1.39-0.18,2.95-0.27,4.66-0.27c2.57,0,4.91,0.31,7.01,0.94
		c2.1,0.63,3.9,1.55,5.42,2.78c1.51,1.23,2.69,2.74,3.52,4.54c0.83,1.8,1.25,3.85,1.25,6.14v27.55h-11.15V465.76z M722.81,448.54
		c-0.95-0.57-1.98-1-3.06-1.29s-2.6-0.43-4.57-0.43c-2.07,0-3.64,0.45-4.74,1.33c-1.08,0.89-1.62,2.16-1.62,3.83
		c0,1.46,0.47,2.74,1.43,3.83c0.95,1.1,2.59,1.65,4.93,1.65c1.8,0,3.37-0.38,4.73-1.14c1.35-0.75,2.32-1.63,2.9-2.62V448.54z"/>
	<path class="st0" d="M503.59,377.06c0,2.17-0.35,4.03-1.04,5.58s-1.66,2.82-2.91,3.82c-1.24,1-2.71,1.73-4.41,2.19
		s-3.54,0.69-5.51,0.69h-8.44v13.24h-7.62v-37.36h16.72c1.79,0,3.49,0.24,5.1,0.72c1.61,0.48,3.02,1.22,4.22,2.22
		c1.21,1,2.16,2.23,2.85,3.71C503.25,373.33,503.59,375.06,503.59,377.06 M495.7,377.22c0-1.62-0.5-2.81-1.51-3.56
		c-1.01-0.76-2.37-1.13-4.08-1.13h-8.83v9.5h8.94C493.87,382.02,495.7,380.42,495.7,377.22"/>
	<path class="st0" d="M526.73,402.57l0.05-1.87c-0.66,0.68-1.56,1.25-2.71,1.73s-2.49,0.72-4.03,0.72c-3.69,0-6.39-1.15-8.09-3.44
		c-1.7-2.29-2.55-5.42-2.55-9.37v-15.8h7.62v15.16c0,1.25,0.11,2.29,0.33,3.12c0.22,0.84,0.53,1.5,0.92,2
		c0.4,0.5,0.9,0.85,1.52,1.07c0.61,0.21,1.3,0.32,2.06,0.32c1.55,0,2.76-0.45,3.61-1.36c0.85-0.91,1.28-2.57,1.28-4.99v-15.32h7.62
		v28.02L526.73,402.57L526.73,402.57z"/>
	<path class="st0" d="M559.03,402.57v-15.16c0-2.49-0.41-4.2-1.24-5.12c-0.83-0.93-2.03-1.39-3.58-1.39c-1.56,0-2.76,0.45-3.61,1.36
		c-0.85,0.91-1.27,2.57-1.27,4.99v15.32h-7.62v-28.02h7.62l-0.05,1.87c0.66-0.68,1.56-1.26,2.71-1.74c1.15-0.48,2.5-0.72,4.03-0.72
		c3.65,0,6.34,1.15,8.06,3.44c1.72,2.3,2.58,5.42,2.58,9.37v15.8L559.03,402.57L559.03,402.57z"/>
	<path class="st0" d="M589.84,401.45c-0.62,0.5-1.47,0.91-2.52,1.23c-1.06,0.32-2.18,0.48-3.35,0.48c-1.18,0-2.24-0.2-3.2-0.61
		c-0.96-0.41-1.77-0.99-2.43-1.74s-1.18-1.64-1.54-2.67c-0.37-1.03-0.55-2.17-0.55-3.41v-13.24h-4.82v-6.94h4.82v-7.2l7.62-3.68
		v10.89h6.91v6.94h-6.91v11.26c0,1.35,0.24,2.25,0.72,2.7c0.47,0.44,1.17,0.67,2.08,0.67c0.69,0,1.35-0.16,1.95-0.48
		c0.6-0.32,1.38-0.87,2.33-1.65L589.84,401.45z"/>
	<path class="st1" d="M651.14,394.4c0,1.6-0.31,2.96-0.93,4.08s-1.46,2.03-2.52,2.72s-2.3,1.19-3.73,1.49s-2.95,0.45-4.55,0.45
		c-2.3,0-4.51-0.29-6.61-0.88c-2.11-0.59-3.92-1.38-5.46-2.38l2.52-5.6c1.53,0.82,3.12,1.45,4.74,1.89
		c1.63,0.45,3.37,0.67,5.24,0.67c1.5,0,2.51-0.18,3.04-0.53c0.53-0.35,0.8-0.89,0.8-1.6c0-0.64-0.3-1.16-0.91-1.55
		c-0.6-0.39-1.71-0.82-3.32-1.28c-1.72-0.5-3.28-1-4.69-1.52s-2.6-1.12-3.59-1.81c-0.99-0.69-1.75-1.54-2.27-2.54
		c-0.53-0.99-0.8-2.24-0.8-3.74c0-1.46,0.28-2.71,0.85-3.76c0.57-1.05,1.36-1.91,2.38-2.59s2.24-1.17,3.65-1.5
		c1.41-0.32,2.95-0.48,4.63-0.48c1.83,0,3.67,0.25,5.54,0.75c1.86,0.5,3.56,1.16,5.1,1.97l-2.41,5.82
		c-1.42-0.75-2.88-1.31-4.36-1.68s-2.82-0.56-4.03-0.56c-1.54,0-2.57,0.15-3.1,0.46c-0.53,0.3-0.79,0.76-0.79,1.36
		c0,0.29,0.07,0.54,0.22,0.77c0.15,0.23,0.43,0.46,0.85,0.69s1.02,0.49,1.81,0.77c0.78,0.28,1.82,0.62,3.1,1.01
		c1.28,0.43,2.5,0.87,3.67,1.33s2.2,1.03,3.07,1.71c0.88,0.68,1.57,1.5,2.09,2.48C650.88,391.83,651.14,393.01,651.14,394.4"/>
	<path class="st2" d="M750.62,350.61c0,13.94-11.6,25.24-25.92,25.24s-25.92-11.3-25.92-25.24c0-13.93,11.61-25.23,25.92-25.23
		C739.01,325.38,750.62,336.68,750.62,350.61"/>
	<path class="st3" d="M710.88,370.27c0,0,12.64,9.38,27.01,0C737.89,370.27,724.79,376.91,710.88,370.27"/>
	<path class="st4" d="M699.96,350.61c0,0,1.21,25.05,24.94,25.23c23.72,0.18,24.63-25.68,24.63-25.68S727.16,386.38,699.96,350.61"
		/>
	<path class="st5" d="M727.43,357.52c2.83-1.78,5.58-3.71,8.09-5.9c4.67-4.08,9.68-10.57,5.12-16.47c-2.23-2.88-5.25-5.25-8.71-6.6
		c-2.65-1.03-5.22-1.05-8.04-1.04c-4.21,0.01-8.16,1.06-11.73,3.25c-3.91,2.39-6.54,6.3-5.47,10.92
		C709.33,353,727.43,357.52,727.43,357.52"/>
	<path class="st6" d="M728.43,371.33c0,0,18.19-3.63,18.19-23.28C746.62,348.05,750.62,369.56,728.43,371.33"/>
	<path class="st7" d="M705.4,341.19c-1.89,4.78-1.8,8.98-1.8,8.98l-3.09-3.01c0.76-2.92,1.78-5.31,2.9-7.27L705.4,341.19z"/>
	<path class="st7" d="M705.98,339.86c1.44-3.09,3.78-6.29,7.53-8.64c0,0-5.06,1.01-9.21,7.22L705.98,339.86z"/>
	<path class="st2" d="M623.76,388.67c0,7.7-6.41,13.95-14.32,13.95c-7.91,0-14.33-6.24-14.33-13.95c0-7.7,6.41-13.95,14.33-13.95
		C617.35,374.72,623.76,380.96,623.76,388.67"/>
	<path class="st3" d="M601.8,399.53c0,0,6.99,5.14,14.93,0C616.72,399.53,609.49,403.17,601.8,399.53"/>
	<path class="st4" d="M595.76,388.67c0,0,0.67,13.85,13.78,13.95c13.11,0.1,13.62-14.19,13.62-14.19S610.79,408.44,595.76,388.67"/>
	<path class="st5" d="M610.95,392.48c1.56-0.99,3.08-2.05,4.47-3.26c2.58-2.26,5.35-5.84,2.83-9.1c-1.23-1.59-2.9-2.91-4.81-3.65
		c-1.46-0.57-2.88-0.58-4.44-0.57c-2.33,0.01-4.5,0.58-6.48,1.8c-2.16,1.32-3.61,3.48-3.02,6.03
		C600.94,389.99,610.95,392.48,610.95,392.48"/>
	<path class="st6" d="M611.5,400.12c0,0,10.05-2.01,10.05-12.87C621.55,387.25,623.76,399.14,611.5,400.12"/>
	<path class="st7" d="M598.77,383.46c-1.04,2.64-0.99,4.96-0.99,4.96l-1.71-1.66c0.42-1.61,0.98-2.94,1.6-4.02L598.77,383.46z"/>
	<path class="st7" d="M599.09,382.72c0.79-1.71,2.09-3.48,4.17-4.78c0,0-2.8,0.56-5.1,3.99L599.09,382.72z"/>
</g>
</svg>
