<?xml version="1.0" encoding="utf-8"?>
<!-- Generator: Adobe Illustrator 23.0.4, SVG Export Plug-In . SVG Version: 6.00 Build 0)  -->
<svg version="1.1" id="Layer_1" xmlns="http://www.w3.org/2000/svg" xmlns:xlink="http://www.w3.org/1999/xlink" x="0px" y="0px"
	 viewBox="0 0 1152 612" style="enable-background:new 0 0 1152 612;" xml:space="preserve">
<style type="text/css">
	.st0{fill:#666666;}
</style>
<g>
	<path class="st0" d="M1111.88,249.15c-5.19-1.71-10.7-3.33-15.82-4.58c2.73-3.18,7.35-8.85,10.78-13.49
		c3.57-4.84,5.28-8.6,5.28-12.4c0-3.24-1.24-6.61-3.61-10.71c-4.17-7.53-11.58-14.79-17.85-19.55c-4.57-3.27-11.48-7.3-18.12-7.3
		c-3.71,0-7.37,1.5-10.35,5.14c-3.26,4.4-6.46,9.07-9.26,13.44c-2.25-3.55-6.21-9.61-9.68-14.25c-5.09-6.52-9.1-9.15-15.25-9.15
		c-11.29,0-23.85,6.96-30.59,11.54c-5.43,3.92-13.62,10.44-13.62,18.42c0,2.4,0.83,4.96,2.81,7.57c3.21,4.46,6.71,8.93,10,12.91
		c-4.07,1.06-11.15,2.86-16.7,4.64c-10.93,3.53-15.46,8.38-15.46,22.7c0,6.16,0.89,13.31,3.54,21.09
		c2.68,8.26,8.42,22.56,21.66,18.21c5.24-1.68,10.59-3.58,15.53-5.47c-0.3,4.19-0.7,8.26-0.7,14.01c0,14.36,2.91,18.58,11.92,22.93
		c8,3.64,18.2,5.24,26.54,5.24c8.73,0,24.24-1.03,24.24-14.8c0-8.62-0.12-11.16-0.45-16.34c3.88,1.54,10.72,4.16,16.3,5.94
		c3.66,1.18,6.62,1.77,9.33,1.77c4.67,0,8.39-2.33,13.06-7.3c8.2-8.73,15.89-25.47,15.89-36.52
		C1121.31,256.97,1119.15,251.52,1111.88,249.15z M1015.78,210.25c10.02-7.21,20.45-8.81,28.24-8.81c3,0,5.59,0.2,7.45,0.51
		c-5.25,8.2-7.8,14.31-7.98,17.19c-0.23-0.67-1.75-5.12-8.01-5.12c-6.68,0-13.17,4.22-18.02,4.22c-3.37,0-4.33-2.78-4.33-3.99
		C1013.12,213.07,1013.79,211.62,1015.78,210.25z M1004.16,259.89c0.07,4.59-0.5,7.35-3.33,8.27c-2.05,0.66-4.36-0.03-5.52-3.67
		c-5.3-15.82,0.08-29.67,3.01-35.72c6.03,6.89,10.81,11.48,13.68,12.9c-0.54-0.06-1.06,0.01-1.75,0.33
		C1003.29,244.19,1004,254.02,1004.16,259.89z M1041.1,300.97c-17.29,0-28.94-9.37-33.44-14.02c4.14-1.85,8.06-3.61,10.79-5.25
		c1.93-1.09,3.95-2.24,5.55-3.93c-0.22,0.59-0.33,1.32-0.33,2.08c0,7.21,9.63,9.56,15.31,11.3c4.5,1.34,7.36,2.87,7.36,5.76
		C1046.34,299.06,1045.03,300.97,1041.1,300.97z M1060.84,275.33c-2.72-2.62-7.67-4.44-16.99-4.44c-8.37,0-14.92,1.32-18.16,4.25
		c0.77-1.57,1.24-3.49,1.24-6.04c0-2.94-0.68-6.26-2.23-10.88c-2.6-7.91-5.85-13.68-9.67-15.76c3.78,0.51,8.81-0.88,16.4-6.3
		c6.75-4.88,11.32-9.75,12.14-13.99c0.71,3.74,3.64,8.04,11.14,13.48c6.82,4.88,12.85,7.63,17.21,7.1
		c-3.42,1.82-6.67,5.9-9.55,14.58c-1.58,4.94-2.47,9.01-2.47,12.53C1059.87,271.99,1060.2,273.82,1060.84,275.33z M1084.17,281.28
		c-6.03,8.15-13.4,12.75-17.62,15.04c-0.36-4.78-0.9-9.05-1.54-12.19c-0.5-2.13-1.03-4.36-2.15-6.36c0.49,0.4,1.22,0.68,1.98,0.96
		c6.89,2.26,12.17-6.09,15.56-10.94c2.29-3.18,4.34-4.87,6.56-4.87c1.59,0,4.01,1.03,4.01,3.53
		C1090.96,268.97,1088.54,274.93,1084.17,281.28z M1077.78,241.39c-0.99,0-1.94,0.07-2.91,0.28c1.12-0.78,2.96-2.78,2.96-5.92
		c0-4.85-4.42-10.08-7.13-13.67c-1.97-2.61-3.3-4.79-3.3-6.67c0-2.04,1.79-3.89,3.86-3.89c1.05,0,2.21,0.43,3.58,1.4
		c14,10.01,17.84,24.32,18.82,31.04C1087.51,242.36,1081.28,241.39,1077.78,241.39z M249.68,200.64h-22.37
		c-15.29-15.76-35.38-24.34-55.85-24.34c-20.82,0.05-40.56,8.57-55.9,24.34H93.25c16.74-24.85,46.69-41.5,78.22-41.5
		C203.47,159.12,233.47,176.28,249.68,200.64z"/>
	<path class="st0" d="M20.54,451.31v-60.54h36.59v6.14H27.29v19.03h17.3v6.14h-17.3v23.09h31.14v6.14H20.54z M70.96,451.31v-59.42
		l6.57-3.63v63.05H70.96z M156.93,433.37c0,6.01-1.68,10.5-5.05,13.47c-3.38,2.98-8.26,4.46-14.66,4.46H115.5v-60.54h22.14
		c2.42,0,4.63,0.3,6.62,0.9c1.99,0.61,3.72,1.53,5.19,2.77c1.46,1.24,2.6,2.8,3.41,4.7c0.81,1.9,1.21,4.15,1.21,6.74
		c0,3.34-0.81,6-2.42,7.99c-1.62,1.98-3.72,3.44-6.31,4.36c1.38,0.34,2.77,0.88,4.15,1.6c1.38,0.72,2.62,1.68,3.72,2.86
		c1.1,1.19,1.99,2.66,2.68,4.42C156.59,428.86,156.93,430.95,156.93,433.37z M147.33,406.11c0-2.75-0.8-4.98-2.42-6.67
		c-1.61-1.7-4.12-2.54-7.52-2.54h-15.13v18.77h14.62c3.74,0,6.43-0.93,8.04-2.8C146.53,411.01,147.33,408.76,147.33,406.11z
		 M150.19,433.75c0-3.8-1.15-6.75-3.46-8.82c-2.3-2.08-5.45-3.11-9.42-3.11h-15.05v23.35h15.39c4.55,0,7.78-1.04,9.69-3.11
		C149.24,439.98,150.19,437.21,150.19,433.75z M194.13,451.31l0.09-5.54c-1.62,1.73-3.56,3.24-5.84,4.54
		c-2.28,1.3-5.06,1.95-8.35,1.95c-1.79,0-3.54-0.25-5.27-0.74c-1.73-0.49-3.29-1.3-4.67-2.42c-1.38-1.12-2.49-2.61-3.33-4.45
		c-0.84-1.85-1.25-4.15-1.25-6.92c0-2.54,0.49-4.73,1.46-6.57c0.98-1.84,2.26-3.36,3.84-4.54c1.58-1.18,3.42-2.05,5.53-2.6
		c2.09-0.55,4.27-0.82,6.5-0.82c2.3,0,4.43,0.25,6.38,0.74c1.96,0.49,3.59,1.11,4.91,1.86v-5.33c0-6.65-3.26-9.98-9.78-9.98
		c-2.4,0-4.59,0.3-6.56,0.91c-1.98,0.61-3.88,1.46-5.71,2.55l-2.42-5.3c2.01-1.11,4.31-2.01,6.9-2.68c2.58-0.67,5.34-1.01,8.28-1.01
		c4.88,0,8.75,1.14,11.6,3.42c2.84,2.28,4.27,6.04,4.27,11.29v31.66H194.13z M194.13,430.98c-1.49-0.81-3.1-1.44-4.85-1.9
		c-1.75-0.46-3.99-0.69-6.74-0.69c-3.32,0-5.91,0.77-7.76,2.29c-1.86,1.53-2.79,3.73-2.79,6.62c0,3.4,0.84,5.87,2.53,7.39
		c1.69,1.53,3.91,2.29,6.65,2.29c2.92,0,5.46-0.66,7.64-1.99s3.95-2.94,5.32-4.84V430.98z M243.16,451.31V424.7
		c0-4.91-0.87-8.51-2.62-10.79c-1.74-2.28-4.41-3.42-8.02-3.42c-3.15,0-5.79,1.13-7.94,3.38c-2.15,2.25-3.22,5.86-3.22,10.83v26.61
		h-6.57V405.9h6.57l-0.08,5.53c1.32-1.9,3.03-3.46,5.1-4.67c2.08-1.21,4.56-1.82,7.44-1.82c2.42,0,4.62,0.36,6.57,1.08
		c1.96,0.72,3.63,1.85,5.02,3.38c1.38,1.53,2.45,3.46,3.2,5.8c0.75,2.33,1.12,5.15,1.12,8.43v27.68H243.16z M291.43,415.07
		c-1.68-1.5-3.33-2.64-4.98-3.42c-1.64-0.78-3.62-1.17-5.93-1.17c-1.79,0-3.44,0.39-4.97,1.17c-1.53,0.78-2.86,1.94-3.98,3.48
		c-1.13,1.54-2.01,3.41-2.64,5.61c-0.63,2.2-0.95,4.72-0.95,7.56c0,5.62,1.12,10.1,3.37,13.43c2.25,3.33,5.39,4.99,9.42,4.99
		c2.2,0,4.1-0.43,5.71-1.3c1.62-0.87,3.2-2.05,4.76-3.55l3.89,4.15c-1.9,1.94-4,3.46-6.31,4.56c-2.31,1.11-5.07,1.66-8.31,1.66
		c-2.48,0-4.87-0.48-7.17-1.43c-2.31-0.95-4.34-2.41-6.1-4.37c-1.76-1.96-3.17-4.4-4.24-7.31c-1.07-2.91-1.6-6.36-1.6-10.34
		c0-4.21,0.58-7.81,1.73-10.81c1.15-2.99,2.65-5.46,4.5-7.39c1.84-1.93,3.93-3.36,6.26-4.28c2.34-0.92,4.69-1.38,7.05-1.38
		c3.11,0,5.84,0.5,8.17,1.49c2.34,0.99,4.4,2.26,6.19,3.79L291.43,415.07z M342.2,428.3c0,3.86-0.52,7.28-1.56,10.25
		c-1.03,2.97-2.45,5.48-4.24,7.52c-1.79,2.05-3.89,3.59-6.31,4.63s-5.02,1.56-7.78,1.56c-2.77,0-5.35-0.5-7.74-1.51
		c-2.39-1.01-4.46-2.51-6.18-4.5c-1.73-1.99-3.1-4.45-4.11-7.39c-1.01-2.94-1.51-6.34-1.51-10.21c0-3.86,0.52-7.26,1.56-10.21
		c1.03-2.94,2.45-5.41,4.24-7.39c1.79-1.99,3.89-3.5,6.31-4.54s5.02-1.56,7.78-1.56c2.77,0,5.35,0.49,7.74,1.47
		c2.39,0.98,4.46,2.45,6.18,4.41c1.73,1.96,3.1,4.4,4.11,7.31C341.69,421.05,342.2,424.44,342.2,428.3z M335.62,428.47
		c0-6.03-1.2-10.53-3.62-13.51c-2.41-2.98-5.6-4.48-9.57-4.48c-3.96,0-7.14,1.49-9.52,4.48c-2.39,2.98-3.58,7.49-3.58,13.51
		s1.19,10.57,3.58,13.64c2.39,3.07,5.56,4.6,9.52,4.6c3.97,0,7.16-1.53,9.57-4.6C334.42,439.04,335.62,434.5,335.62,428.47z
		 M414.58,451.31l-26.39-41.43c-0.34-0.52-0.72-1.14-1.13-1.86c-0.4-0.72-0.8-1.44-1.2-2.16c-0.4-0.72-0.8-1.4-1.17-2.03
		s-0.65-1.15-0.82-1.56v4.15v44.89h-6.49v-60.54h6.57l26.13,42.21c0.34,0.52,0.72,1.14,1.12,1.86c0.4,0.72,0.81,1.44,1.21,2.16
		c0.4,0.72,0.79,1.4,1.16,2.03c0.37,0.64,0.65,1.15,0.82,1.56v-4.15v-45.67h6.57v60.54H414.58z M462.07,451.31l0.09-5.54
		c-1.62,1.73-3.56,3.24-5.84,4.54c-2.28,1.3-5.06,1.95-8.35,1.95c-1.79,0-3.54-0.25-5.27-0.74c-1.73-0.49-3.29-1.3-4.67-2.42
		c-1.38-1.12-2.49-2.61-3.33-4.45c-0.84-1.85-1.25-4.15-1.25-6.92c0-2.54,0.49-4.73,1.46-6.57c0.98-1.84,2.26-3.36,3.84-4.54
		c1.58-1.18,3.42-2.05,5.53-2.6c2.09-0.55,4.27-0.82,6.5-0.82c2.3,0,4.43,0.25,6.38,0.74c1.96,0.49,3.59,1.11,4.91,1.86v-5.33
		c0-6.65-3.26-9.98-9.78-9.98c-2.4,0-4.59,0.3-6.56,0.91c-1.98,0.61-3.88,1.46-5.71,2.55l-2.42-5.3c2.01-1.11,4.31-2.01,6.9-2.68
		c2.58-0.67,5.34-1.01,8.28-1.01c4.88,0,8.75,1.14,11.6,3.42c2.84,2.28,4.27,6.04,4.27,11.29v31.66H462.07z M462.07,430.98
		c-1.49-0.81-3.1-1.44-4.85-1.9c-1.75-0.46-3.99-0.69-6.74-0.69c-3.32,0-5.91,0.77-7.76,2.29c-1.86,1.53-2.79,3.73-2.79,6.62
		c0,3.4,0.84,5.87,2.53,7.39c1.69,1.53,3.91,2.29,6.65,2.29c2.92,0,5.46-0.66,7.64-1.99c2.17-1.33,3.95-2.94,5.32-4.84V430.98z
		 M510.34,415.07c-1.68-1.5-3.33-2.64-4.98-3.42c-1.64-0.78-3.62-1.17-5.93-1.17c-1.79,0-3.44,0.39-4.97,1.17
		c-1.53,0.78-2.86,1.94-3.98,3.48c-1.13,1.54-2.01,3.41-2.64,5.61c-0.63,2.2-0.95,4.72-0.95,7.56c0,5.62,1.12,10.1,3.37,13.43
		c2.25,3.33,5.39,4.99,9.42,4.99c2.2,0,4.1-0.43,5.71-1.3c1.62-0.87,3.2-2.05,4.76-3.55l3.89,4.15c-1.9,1.94-4.01,3.46-6.31,4.56
		c-2.31,1.11-5.07,1.66-8.31,1.66c-2.48,0-4.87-0.48-7.17-1.43c-2.31-0.95-4.34-2.41-6.1-4.37c-1.76-1.96-3.17-4.4-4.24-7.31
		c-1.07-2.91-1.6-6.36-1.6-10.34c0-4.21,0.58-7.81,1.73-10.81c1.15-2.99,2.65-5.46,4.5-7.39c1.84-1.93,3.93-3.36,6.26-4.28
		c2.34-0.92,4.69-1.38,7.05-1.38c3.11,0,5.84,0.5,8.17,1.49c2.34,0.99,4.4,2.26,6.19,3.79L510.34,415.07z M533.86,393.18
		c0,1.27-0.45,2.35-1.34,3.24s-1.94,1.34-3.15,1.34c-1.33,0-2.46-0.44-3.38-1.34s-1.38-1.97-1.38-3.24c0-1.33,0.46-2.44,1.38-3.33
		s2.05-1.34,3.38-1.34c1.21,0,2.26,0.45,3.15,1.34S533.86,391.86,533.86,393.18z M525.98,451.31V405.9h6.57v45.41H525.98z
		 M584.28,428.3c0,3.86-0.52,7.28-1.56,10.25c-1.03,2.97-2.45,5.48-4.24,7.52c-1.79,2.05-3.89,3.59-6.31,4.63
		c-2.42,1.04-5.02,1.56-7.78,1.56s-5.35-0.5-7.74-1.51c-2.39-1.01-4.46-2.51-6.18-4.5c-1.73-1.99-3.1-4.45-4.11-7.39
		c-1.01-2.94-1.51-6.34-1.51-10.21c0-3.86,0.52-7.26,1.56-10.21c1.03-2.94,2.45-5.41,4.24-7.39c1.79-1.99,3.89-3.5,6.31-4.54
		c2.42-1.04,5.02-1.56,7.78-1.56c2.77,0,5.35,0.49,7.74,1.47c2.39,0.98,4.46,2.45,6.18,4.41c1.73,1.96,3.1,4.4,4.11,7.31
		C583.77,421.05,584.28,424.44,584.28,428.3z M577.7,428.47c0-6.03-1.2-10.53-3.62-13.51c-2.41-2.98-5.6-4.48-9.57-4.48
		c-3.96,0-7.14,1.49-9.52,4.48c-2.39,2.98-3.58,7.49-3.58,13.51s1.19,10.57,3.58,13.64c2.39,3.07,5.56,4.6,9.52,4.6
		c3.97,0,7.16-1.53,9.57-4.6C576.5,439.04,577.7,434.5,577.7,428.47z M624.58,451.31V424.7c0-4.91-0.87-8.51-2.62-10.79
		c-1.74-2.28-4.41-3.42-8.02-3.42c-3.15,0-5.79,1.13-7.94,3.38c-2.15,2.25-3.22,5.86-3.22,10.83v26.61h-6.57V405.9h6.57l-0.08,5.53
		c1.32-1.9,3.03-3.46,5.1-4.67c2.08-1.21,4.56-1.82,7.44-1.82c2.42,0,4.62,0.36,6.57,1.08c1.96,0.72,3.63,1.85,5.02,3.38
		c1.38,1.53,2.45,3.46,3.2,5.8c0.75,2.33,1.12,5.15,1.12,8.43v27.68H624.58z M671.2,451.31l0.09-5.54
		c-1.62,1.73-3.56,3.24-5.84,4.54c-2.28,1.3-5.06,1.95-8.35,1.95c-1.79,0-3.54-0.25-5.27-0.74c-1.73-0.49-3.29-1.3-4.67-2.42
		c-1.38-1.12-2.49-2.61-3.33-4.45c-0.84-1.85-1.25-4.15-1.25-6.92c0-2.54,0.49-4.73,1.46-6.57c0.98-1.84,2.26-3.36,3.84-4.54
		c1.58-1.18,3.42-2.05,5.53-2.6c2.09-0.55,4.27-0.82,6.5-0.82c2.3,0,4.43,0.25,6.38,0.74c1.96,0.49,3.59,1.11,4.91,1.86v-5.33
		c0-6.65-3.26-9.98-9.78-9.98c-2.4,0-4.59,0.3-6.56,0.91c-1.98,0.61-3.88,1.46-5.71,2.55l-2.42-5.3c2.01-1.11,4.31-2.01,6.9-2.68
		c2.58-0.67,5.34-1.01,8.28-1.01c4.88,0,8.75,1.14,11.6,3.42c2.84,2.28,4.27,6.04,4.27,11.29v31.66H671.2z M671.2,430.98
		c-1.49-0.81-3.1-1.44-4.85-1.9c-1.75-0.46-3.99-0.69-6.74-0.69c-3.32,0-5.91,0.77-7.76,2.29c-1.86,1.53-2.79,3.73-2.79,6.62
		c0,3.4,0.84,5.87,2.53,7.39c1.69,1.53,3.91,2.29,6.65,2.29c2.92,0,5.46-0.66,7.64-1.99s3.95-2.94,5.32-4.84V430.98z M692.3,451.31
		v-59.42l6.57-3.63v63.05H692.3z M763.48,451.31l0.08-5.54c-1.61,1.73-3.51,3.24-5.71,4.54c-2.19,1.3-4.84,1.95-7.95,1.95
		c-2.25,0-4.37-0.45-6.36-1.34c-1.99-0.89-3.72-2.26-5.19-4.11c-1.47-1.84-2.63-4.22-3.46-7.13c-0.84-2.91-1.25-6.36-1.25-10.34
		c0-4.04,0.44-7.57,1.34-10.6c0.89-3.03,2.11-5.56,3.66-7.61c1.56-2.04,3.36-3.59,5.43-4.62c2.07-1.04,4.29-1.56,6.64-1.56
		c2.87,0,5.31,0.55,7.33,1.64c2.01,1.1,3.82,2.57,5.43,4.41v-19.12l6.57-3.63v63.05H763.48z M763.48,417.35
		c-1.27-1.91-2.94-3.53-5.04-4.87c-2.1-1.33-4.5-2-7.19-2c-3.79,0-6.61,1.59-8.45,4.78c-1.84,3.19-2.76,7.85-2.76,13.99
		c0,5.79,1.01,10.15,3.02,13.08c2.01,2.92,4.82,4.39,8.45,4.39c2.41,0,4.6-0.59,6.59-1.78c1.98-1.19,3.78-2.79,5.38-4.82V417.35z
		 M819.01,427.26c0,0.81-0.01,1.47-0.04,1.99c-0.03,0.52-0.1,1.04-0.22,1.56h-30.18c0.29,4.93,1.53,8.82,3.72,11.66
		s5.16,4.26,8.91,4.26c2.65,0,4.88-0.37,6.7-1.12c1.82-0.75,3.77-1.82,5.84-3.2l3.03,4.66c-1.39,0.85-2.68,1.6-3.89,2.26
		c-1.21,0.65-2.46,1.19-3.72,1.62c-1.27,0.42-2.59,0.75-3.98,0.98c-1.39,0.23-2.94,0.34-4.67,0.34c-2.07,0-4.21-0.4-6.4-1.21
		c-2.19-0.81-4.17-2.15-5.94-4.02c-1.77-1.87-3.24-4.34-4.41-7.39c-1.17-3.05-1.75-6.8-1.75-11.24c0-3.63,0.47-6.89,1.43-9.77
		c0.95-2.88,2.26-5.33,3.93-7.35c1.67-2.02,3.65-3.57,5.92-4.67c2.28-1.09,4.77-1.64,7.48-1.64c2.94,0,5.55,0.55,7.83,1.64
		c2.28,1.1,4.2,2.64,5.76,4.63c1.56,1.99,2.72,4.35,3.5,7.09C818.62,421.05,819.01,424.03,819.01,427.26z M809.67,414.66
		c-1.96-2.78-4.93-4.18-8.91-4.18c-3.4,0-6.18,1.23-8.34,3.7c-2.17,2.46-3.45,6.25-3.85,11.35h24.47
		C812.75,421.07,811.63,417.44,809.67,414.66z M900.05,451.31v-41v-6.49c-0.18,0.58-0.39,1.28-0.65,2.12
		c-0.26,0.84-0.56,1.7-0.91,2.59c-0.34,0.89-0.69,1.8-1.03,2.72c-0.34,0.93-0.68,1.79-1.03,2.6l-16.1,39l-15.84-39
		c-0.34-0.75-0.69-1.6-1.03-2.55c-0.34-0.95-0.68-1.88-0.99-2.77c-0.31-0.89-0.6-1.76-0.86-2.59c-0.26-0.83-0.47-1.54-0.65-2.12
		v6.49v41h-6.57v-60.54h7.53L876.18,427c0.34,0.92,0.74,1.93,1.17,3.03c0.43,1.1,0.85,2.19,1.25,3.29c0.4,1.1,0.78,2.12,1.13,3.07
		c0.34,0.95,0.61,1.74,0.77,2.38c0.18-0.63,0.44-1.44,0.78-2.42c0.34-0.98,0.72-2.02,1.13-3.11c0.4-1.09,0.82-2.19,1.25-3.29
		c0.43-1.09,0.82-2.08,1.17-2.94l14.44-36.24h7.35v60.54H900.05z M956.36,427.26c0,0.81-0.01,1.47-0.04,1.99
		c-0.03,0.52-0.1,1.04-0.22,1.56h-30.18c0.29,4.93,1.53,8.82,3.72,11.66c2.19,2.84,5.16,4.26,8.91,4.26c2.65,0,4.88-0.37,6.7-1.12
		c1.82-0.75,3.77-1.82,5.84-3.2l3.03,4.66c-1.39,0.85-2.68,1.6-3.89,2.26c-1.21,0.65-2.46,1.19-3.72,1.62
		c-1.27,0.42-2.59,0.75-3.98,0.98c-1.39,0.23-2.94,0.34-4.67,0.34c-2.07,0-4.21-0.4-6.4-1.21c-2.19-0.81-4.17-2.15-5.94-4.02
		c-1.77-1.87-3.24-4.34-4.41-7.39c-1.17-3.05-1.75-6.8-1.75-11.24c0-3.63,0.47-6.89,1.43-9.77c0.95-2.88,2.26-5.33,3.93-7.35
		c1.67-2.02,3.65-3.57,5.92-4.67c2.28-1.09,4.77-1.64,7.48-1.64c2.94,0,5.55,0.55,7.83,1.64c2.28,1.1,4.2,2.64,5.76,4.63
		c1.56,1.99,2.72,4.35,3.5,7.09C955.97,421.05,956.36,424.03,956.36,427.26z M947.02,414.66c-1.96-2.78-4.93-4.18-8.91-4.18
		c-3.4,0-6.18,1.23-8.34,3.7c-2.17,2.46-3.45,6.25-3.85,11.35h24.47C950.1,421.07,948.97,417.44,947.02,414.66z M939.31,399.84h-5.1
		l8.91-13.84h9.26L939.31,399.84z M993.29,451.31l-9-15.74l-1.39-2.51l-1.39,2.51l-9.08,15.74h-6.74l14.01-23.44l-13.06-21.97h7.18
		l8.05,14.09l1.38,2.51l1.39-2.51l8.13-14.09h6.74l-13.06,21.8l14.01,23.61H993.29z M1020.36,393.18c0,1.27-0.45,2.35-1.34,3.24
		s-1.94,1.34-3.15,1.34c-1.33,0-2.46-0.44-3.38-1.34s-1.38-1.97-1.38-3.24c0-1.33,0.46-2.44,1.38-3.33s2.05-1.34,3.38-1.34
		c1.21,0,2.26,0.45,3.15,1.34S1020.36,391.86,1020.36,393.18z M1012.49,451.31V405.9h6.57v45.41H1012.49z M1061.36,415.07
		c-1.68-1.5-3.33-2.64-4.98-3.42c-1.64-0.78-3.62-1.17-5.93-1.17c-1.79,0-3.44,0.39-4.97,1.17c-1.53,0.78-2.86,1.94-3.98,3.48
		c-1.13,1.54-2.01,3.41-2.64,5.61c-0.63,2.2-0.95,4.72-0.95,7.56c0,5.62,1.12,10.1,3.37,13.43c2.25,3.33,5.39,4.99,9.42,4.99
		c2.2,0,4.1-0.43,5.71-1.3c1.62-0.87,3.2-2.05,4.76-3.55l3.89,4.15c-1.9,1.94-4.01,3.46-6.31,4.56c-2.31,1.11-5.07,1.66-8.31,1.66
		c-2.48,0-4.87-0.48-7.17-1.43c-2.31-0.95-4.34-2.41-6.1-4.37s-3.17-4.4-4.24-7.31c-1.07-2.91-1.6-6.36-1.6-10.34
		c0-4.21,0.58-7.81,1.73-10.81c1.15-2.99,2.65-5.46,4.5-7.39c1.84-1.93,3.93-3.36,6.26-4.28c2.34-0.92,4.69-1.38,7.05-1.38
		c3.11,0,5.84,0.5,8.17,1.49c2.34,0.99,4.4,2.26,6.19,3.79L1061.36,415.07z M1112.13,428.3c0,3.86-0.52,7.28-1.56,10.25
		s-2.45,5.48-4.24,7.52c-1.79,2.05-3.89,3.59-6.31,4.63s-5.02,1.56-7.78,1.56c-2.77,0-5.35-0.5-7.74-1.51
		c-2.39-1.01-4.46-2.51-6.18-4.5c-1.73-1.99-3.1-4.45-4.11-7.39c-1.01-2.94-1.51-6.34-1.51-10.21c0-3.86,0.52-7.26,1.56-10.21
		c1.03-2.94,2.45-5.41,4.24-7.39c1.79-1.99,3.89-3.5,6.31-4.54s5.02-1.56,7.78-1.56c2.77,0,5.35,0.49,7.74,1.47
		c2.39,0.98,4.46,2.45,6.18,4.41c1.73,1.96,3.1,4.4,4.11,7.31C1111.62,421.05,1112.13,424.44,1112.13,428.3z M1105.55,428.47
		c0-6.03-1.2-10.53-3.62-13.51c-2.41-2.98-5.6-4.48-9.57-4.48c-3.96,0-7.14,1.49-9.52,4.48c-2.39,2.98-3.58,7.49-3.58,13.51
		s1.19,10.57,3.58,13.64c2.39,3.07,5.56,4.6,9.52,4.6c3.97,0,7.16-1.53,9.57-4.6C1104.35,439.04,1105.55,434.5,1105.55,428.47z
		 M1140.65,206.43c0,1.37-0.24,2.65-0.74,3.83c-0.49,1.18-1.17,2.2-2.04,3.07c-0.86,0.87-1.88,1.54-3.06,2.03
		c-1.18,0.49-2.46,0.74-3.83,0.74c-1.38,0-2.66-0.25-3.83-0.74c-1.18-0.49-2.2-1.17-3.07-2.03c-0.86-0.87-1.54-1.89-2.04-3.07
		c-0.49-1.18-0.74-2.45-0.74-3.83c0-1.38,0.24-2.65,0.74-3.83c0.49-1.18,1.18-2.2,2.04-3.07c0.87-0.87,1.89-1.54,3.07-2.03
		c1.18-0.49,2.45-0.74,3.83-0.74c1.37,0,2.65,0.25,3.83,0.74c1.18,0.49,2.2,1.17,3.06,2.03c0.87,0.87,1.54,1.89,2.04,3.07
		C1140.4,203.78,1140.65,205.05,1140.65,206.43z M1139.09,206.43c0-1.14-0.21-2.21-0.61-3.2c-0.41-0.99-0.99-1.85-1.72-2.58
		c-0.73-0.73-1.59-1.3-2.58-1.71c-0.99-0.41-2.05-0.61-3.19-0.61c-1.17,0-2.23,0.2-3.21,0.61c-0.99,0.41-1.84,0.98-2.57,1.71
		c-0.74,0.73-1.3,1.59-1.71,2.58c-0.41,0.99-0.62,2.06-0.62,3.2c0,1.16,0.21,2.23,0.62,3.21c0.41,0.98,0.98,1.84,1.71,2.57
		c0.74,0.73,1.59,1.31,2.57,1.71c0.98,0.41,2.05,0.61,3.21,0.61c1.14,0,2.21-0.2,3.19-0.61c1-0.41,1.86-0.98,2.58-1.71
		c0.74-0.73,1.31-1.59,1.72-2.57C1138.89,208.66,1139.09,207.59,1139.09,206.43z M1135.37,204.15c0,0.84-0.21,1.52-0.61,2.04
		c-0.41,0.52-0.96,0.87-1.63,1.07l2.16,4.26h-2.1l-2.05-4.07h-2.03v4.07h-1.79v-10.55h4.61c0.47,0,0.91,0.06,1.33,0.18
		c0.41,0.13,0.78,0.32,1.09,0.58c0.3,0.26,0.56,0.59,0.74,0.99C1135.28,203.12,1135.37,203.6,1135.37,204.15z M1133.58,204.21
		c0-0.5-0.16-0.87-0.48-1.13c-0.32-0.25-0.73-0.37-1.21-0.37h-2.78v3h2.78c0.48,0,0.89-0.12,1.21-0.36
		C1133.41,205.1,1133.58,204.73,1133.58,204.21z M314.12,214.11c-9.94,0-19.31,4.7-26.18,11.03V186.5l-19.13,10.26V311h19.13v-8.86
		c5.24,5.78,15.7,10.85,25.28,10.85c19.7,0,39.64-15.36,39.64-47.9C352.86,228.93,334.54,214.11,314.12,214.11z M311.41,295.81
		c-9.4,0-19.49-6.87-23.65-12.47v-39.95c4.88-6.15,14.07-12.11,22.93-12.11c13.74,0,23.45,10.48,23.45,34.35
		C334.14,285.69,324.78,295.81,311.41,295.81z M536.48,256.59V311h-19.13v-53.69c0-19.16-7.23-26.03-19.52-26.03
		c-12.47,0-20.23,8.86-20.23,24.22V311h-19.13v-94.9h19.13v9.04c4.7-6.87,15.14-11.03,24.9-11.03
		C524.56,214.11,536.48,226.37,536.48,256.59z M403.54,214.11c-13.38,0-23.86,2.89-32.9,8.5l7.23,14.1c7.41-4.16,15-5.96,24.76-5.96
		c11.57,0,19.31,5.78,19.31,16.09v7.05c-5.24-2.35-13-3.62-21.86-3.62c-21.51,0-38.74,9.58-38.74,30.73
		c0,23.32,18.49,31.99,33.86,31.99c10.3,0,20.23-4.88,26.74-11.39v9.4h19.13v-65.07C441.08,224.41,424.69,214.11,403.54,214.11z
		 M421.95,284.07c-4.34,5.97-13.72,12.11-23.66,12.11c-12.29,0-18.97-6.33-18.97-15.73c0-8.68,8.3-14.1,20.23-14.1
		c10.12,0,17.34,1.63,22.4,4.16V284.07z M590.14,214.11c-13.38,0-23.86,2.89-32.9,8.5l7.23,14.1c7.41-4.16,15-5.96,24.76-5.96
		c11.57,0,19.31,5.78,19.31,16.09v7.05c-5.24-2.35-13-3.62-21.86-3.62c-21.51,0-38.74,9.58-38.74,30.73
		c0,23.32,18.49,31.99,33.86,31.99c10.3,0,20.23-4.88,26.74-11.39v9.4h19.13v-65.07C627.68,224.41,611.29,214.11,590.14,214.11z
		 M608.55,284.07c-4.34,5.97-13.72,12.11-23.66,12.11c-12.29,0-18.97-6.33-18.97-15.73c0-8.68,8.3-14.1,20.23-14.1
		c10.12,0,17.34,1.63,22.4,4.16V284.07z M775.69,255.88V311h-19.13v-53.69c0-19.16-5.97-26.03-18.26-26.03
		c-12.47,0-18,8.86-18,24.22V311h-19.13v-53.69c0-19.16-5.71-26.03-18-26.03c-12.47,0-18.96,8.86-18.96,24.22V311h-19.13v-94.9
		h19.13v9.04c4.7-6.87,13.54-11.03,23.3-11.03c12.84,0,20.97,4.88,26.03,13.92c6.87-8.5,14.28-13.92,29.1-13.92
		C764.69,214.11,775.69,224.07,775.69,255.88z M873.07,261.65c0-25.67-14.43-47.54-41.37-47.54c-24.58,0-43.36,17.35-43.36,49.53
		c0,31.45,20.58,49.35,42.81,49.35c14.46,0,25.82-4.52,34.14-12.47l-10.32-12.17c-6.33,4.7-14.78,7.59-22.73,7.59
		c-11.57,0-23.29-7.53-25.28-25.79h65.56C872.71,268.16,873.07,265.09,873.07,261.65z M807.33,254.78
		c1.63-15.18,10.64-23.86,23.11-23.86c15.36,0,22.93,10.85,23.83,23.86H807.33z M954.87,311h-22.24l-9.04-16.45
		c-3.8-6.87-8.13-15.55-9.94-19.16c-1.63,3.62-6.69,12.83-10.3,19.34L894.13,311h-21.09l29.12-49.17l-27.13-45.73h21.63l7.41,13.38
		c3.8,6.87,8.31,15.36,9.94,18.98c1.99-3.61,6.51-12.65,10.12-19.34l7.23-13.01h21.51l-27.31,45.73L954.87,311z M31,263.63
		c0,17.76,12.4,30.53,29.52,30.53c8.23,0,16.2-3.68,23.06-10.67l0.41-0.45l11.08,13.31l-0.31,0.35c-9.2,10.85-20.19,16.1-33.7,16.1
		c-13.56,0-25.92-4.53-34.92-12.79c-9.64-8.93-14.79-21.52-14.79-36.38c0-14.9,5.14-27.46,14.79-36.38
		c9-8.25,21.36-12.77,34.92-12.77c13.51,0,24.5,5.22,33.7,16.08l0.31,0.33l-11.08,13.34l-0.41-0.42
		c-6.86-7.05-14.82-10.75-23.06-10.75C43.4,233.05,31,245.94,31,263.63z M106.15,215.98h19.48v94.99h-19.48V215.98z M201.89,290.31
		l1.11-0.71l-4.67,18.32l-0.21,0.13c-3.18,1.96-8.51,4.54-17.23,4.36c-12.96-0.21-21.62-10.21-21.62-24.84v-53.62h-16.45V216.1
		h16.45v-19.34l19.13-10.26v29.6h19.76v17.86h-19.76v50.43c0,7.39,2.78,10.71,9.1,10.71C191.83,295.09,196.69,293.48,201.89,290.31z
		 M217.98,215.98h19.5v94.99h-19.5V215.98z"/>
</g>
</svg>
