<?xml version="1.0" encoding="UTF-8"?>
<svg width="1411px" height="392px" viewBox="0 0 1411 392" version="1.1" xmlns="http://www.w3.org/2000/svg" xmlns:xlink="http://www.w3.org/1999/xlink">
    <!-- Generator: Sketch 57.1 (83088) - https://sketch.com -->
    <title>Logotype/Citibanamex/Black</title>
    <desc>Created with Sketch.</desc>
    <g id="Logotype/Citibanamex/Black" stroke="none" stroke-width="1" fill="none" fill-rule="evenodd">
        <path d="M361.678,148.04401 L337.403,148.04401 C320.803,130.93401 298.999,121.62901 276.784,121.62901 C254.185,121.68601 232.758,130.93401 216.115,148.04401 L191.89,148.04401 C210.058,121.06801 242.564,103 276.784,103 C311.514,102.98401 344.083,121.60501 361.678,148.04401 Z" id="Path" fill="#000000"></path>
        <path d="M1206.461,121.62501 C1213.131,121.62501 1217.491,124.48401 1223.011,131.55801 C1226.771,136.59301 1231.061,143.16501 1233.511,147.02201 C1236.551,142.27801 1240.021,137.20201 1243.561,132.43001 C1246.801,128.48101 1250.771,126.84901 1254.791,126.84901 C1262.001,126.84901 1269.501,131.22001 1274.461,134.77101 C1281.271,139.93401 1289.311,147.81501 1293.841,155.98901 C1296.421,160.44401 1297.761,164.10001 1297.761,167.61701 C1297.761,171.74901 1295.901,175.83101 1292.031,181.08001 C1288.311,186.12301 1283.291,192.27601 1280.331,195.72501 C1285.881,197.08801 1291.861,198.83701 1297.491,200.69801 C1305.391,203.27101 1307.731,209.18801 1307.731,215.57201 C1307.731,227.56301 1299.381,245.72901 1290.481,255.20601 C1285.411,260.59801 1281.371,263.12601 1276.301,263.12601 C1273.371,263.12601 1270.151,262.48101 1266.181,261.19901 C1260.131,259.26201 1252.701,256.42201 1248.491,254.75001 C1248.841,260.37001 1248.971,263.12101 1248.971,272.48201 C1248.971,287.42601 1232.151,288.54901 1222.671,288.54901 C1213.611,288.54901 1202.541,286.81201 1193.861,282.85901 C1184.091,278.14101 1180.931,273.56301 1180.931,257.97301 C1180.931,251.73301 1181.361,247.31501 1181.681,242.76501 C1176.321,244.82001 1170.511,246.88401 1164.821,248.70401 C1150.451,253.42101 1144.221,237.90101 1141.311,228.93901 C1138.441,220.48701 1137.471,212.73101 1137.471,206.04501 C1137.471,190.49801 1142.391,185.23701 1154.251,181.40301 C1160.281,179.47201 1167.971,177.51801 1172.381,176.36901 C1168.811,172.04201 1165.011,167.19501 1161.521,162.35301 C1159.371,159.51601 1158.471,156.74201 1158.471,154.13601 C1158.471,145.48301 1167.371,138.39901 1173.251,134.14701 C1180.571,129.17601 1194.201,121.62501 1206.461,121.62501 Z M1202.111,231.75901 C1200.381,233.59101 1198.191,234.83901 1196.091,236.02201 C1193.121,237.80901 1188.871,239.71201 1184.381,241.72301 C1189.261,246.77301 1201.901,256.94301 1220.671,256.94301 C1224.931,256.94301 1226.351,254.86301 1226.351,252.53001 C1226.351,249.39601 1223.251,247.74101 1218.371,246.28201 C1212.201,244.40301 1201.751,241.84501 1201.751,234.02201 C1201.751,233.19201 1201.881,232.40101 1202.111,231.75901 Z M1270.441,215.62401 C1268.031,215.62401 1265.801,217.46201 1263.321,220.91501 C1259.631,226.17401 1253.911,235.23601 1246.431,232.78801 C1245.591,232.48901 1244.811,232.18701 1244.271,231.75001 C1245.491,233.92801 1246.061,236.34401 1246.611,238.65501 C1247.301,242.07301 1247.901,246.69901 1248.281,251.89101 C1252.871,249.41401 1260.861,244.42001 1267.411,235.57001 C1272.161,228.68201 1274.791,222.21401 1274.791,219.45301 C1274.791,216.74701 1272.161,215.62401 1270.441,215.62401 Z M1223.351,171.41901 C1222.461,176.01501 1217.501,181.30101 1210.171,186.59901 C1201.941,192.47701 1196.481,193.99001 1192.381,193.43601 C1196.521,195.68601 1200.051,201.95401 1202.871,210.53701 C1204.551,215.54801 1205.291,219.16101 1205.291,222.34801 C1205.291,225.11301 1204.781,227.20101 1203.941,228.90001 C1207.461,225.72201 1214.561,224.28901 1223.651,224.28901 C1233.761,224.28901 1239.141,226.26501 1242.091,229.11001 C1241.401,227.47601 1241.041,225.49101 1241.071,223.18401 C1241.071,219.35701 1242.041,214.94601 1243.751,209.57901 C1246.881,200.15201 1250.411,195.72501 1254.121,193.75101 C1249.391,194.32701 1242.841,191.34601 1235.441,186.04601 C1227.301,180.14701 1224.121,175.47701 1223.351,171.41901 Z M1174.241,178.57301 C1171.051,185.14501 1165.211,200.17001 1170.961,217.34601 C1172.231,221.29701 1174.731,222.04601 1176.961,221.33201 C1180.031,220.33601 1180.651,217.33501 1180.571,212.35801 C1180.401,205.98001 1179.631,195.31601 1187.191,192.93801 C1187.931,192.58401 1188.501,192.51201 1189.081,192.57501 C1185.971,191.03301 1180.781,186.04601 1174.241,178.57301 Z M1253.401,159.85901 C1251.161,159.85901 1249.221,161.87001 1249.221,164.08301 C1249.221,166.13401 1250.671,168.49001 1252.801,171.32801 C1255.741,175.22001 1260.541,180.90101 1260.541,186.16201 C1260.541,189.56501 1258.541,191.73601 1257.331,192.58401 C1258.371,192.35201 1259.411,192.27601 1260.481,192.27601 C1264.281,192.27601 1271.041,193.33101 1277.721,195.06501 C1276.651,187.77701 1272.481,172.23801 1257.291,161.37601 C1255.801,160.32401 1254.551,159.85901 1253.401,159.85901 Z M1223.841,148.91001 C1215.381,148.91001 1204.061,150.64801 1193.181,158.47401 C1191.031,159.96101 1190.301,161.53601 1190.301,162.80901 C1190.301,164.12801 1191.351,167.14101 1195.011,167.14101 C1200.271,167.14101 1207.311,162.55601 1214.561,162.55601 C1221.361,162.55601 1223.011,167.38501 1223.251,168.11501 C1223.451,164.99301 1226.221,158.36301 1231.921,149.46201 C1229.901,149.12601 1227.101,148.91001 1223.841,148.91001 Z" id="Combined-Shape" fill="#000000"></path>
        <polygon id="Path" fill="#000000" points="327.269 267.79801 348.432 267.79801 348.432 164.69401 327.269 164.69401"></polygon>
        <path d="M309.8,245.36601 L311.003,244.59701 L305.931,264.48301 L305.704,264.62801 C302.257,266.75501 296.471,269.55901 287,269.35701 C272.934,269.12801 263.53,258.27901 263.53,242.40101 L263.53,184.20801 L245.677,184.20801 L245.677,164.82001 L263.53,164.82001 L263.53,143.82801 L284.289,132.69601 L284.289,164.82001 L305.742,164.82001 L305.742,184.20801 L284.289,184.20801 L284.289,238.94101 C284.289,246.95801 287.308,250.56201 294.165,250.56201 C298.885,250.56201 304.159,248.81401 309.8,245.36601 Z" id="Path" fill="#000000"></path>
        <polygon id="Path" fill="#000000" points="205.893 267.79801 227.036 267.79801 227.036 164.69401 205.893 164.69401"></polygon>
        <path d="M124.319,216.40801 C124.319,235.68601 137.78,249.55101 156.358,249.55101 C165.295,249.55101 173.941,245.55501 181.383,237.96501 L181.832,237.47601 L193.861,251.91701 L193.528,252.29501 C183.545,264.06701 171.61,269.77401 156.951,269.77401 C142.236,269.77401 128.819,264.85501 119.051,255.89301 C108.583,246.20101 103,232.53501 103,216.40801 C103,200.24001 108.583,186.60001 119.051,176.92601 C128.819,167.96801 142.236,163.06501 156.951,163.06501 C171.61,163.06501 183.545,168.73401 193.528,180.51601 L193.861,180.87801 L181.832,195.35301 L181.383,194.89401 C173.941,187.23901 165.295,183.22501 156.358,183.22501 C137.78,183.22501 124.319,197.21001 124.319,216.40801 Z" id="Path" fill="#000000"></path>
        <path d="M1127.071,267.82701 L1102.941,267.82701 L1093.131,249.97301 C1089.011,242.51801 1084.301,233.10001 1082.331,229.17601 C1080.571,233.10001 1075.081,243.10601 1071.151,250.16901 L1061.151,267.82701 L1038.261,267.82701 L1069.861,214.46201 L1040.421,164.82401 L1063.891,164.82401 L1071.941,179.34301 C1076.061,186.79801 1080.961,196.01901 1082.731,199.94201 C1084.891,196.01901 1089.791,186.21001 1093.711,178.94901 L1101.561,164.82401 L1124.911,164.82401 L1095.271,214.46201 L1127.071,267.82701 Z" id="Path" fill="#000000"></path>
        <path d="M993.391,162.66601 C1022.621,162.66601 1038.291,186.40601 1038.291,214.26601 C1038.291,217.99301 1037.901,221.32901 1037.701,223.48601 L1037.701,223.48601 L966.541,223.48601 C968.701,243.30201 981.421,251.47701 993.981,251.47701 C1002.611,251.47701 1011.791,248.33801 1018.651,243.23801 L1018.651,243.23801 L1029.851,256.44801 C1020.831,265.08001 1008.501,269.98501 992.801,269.98501 C968.671,269.98501 946.331,250.56201 946.331,216.42301 C946.331,181.50001 966.711,162.66601 993.391,162.66601 Z M992.021,180.91201 C978.481,180.91201 968.701,190.32901 966.941,206.80901 L966.941,206.80901 L1017.891,206.80901 C1016.901,192.68301 1008.691,180.91201 992.021,180.91201 Z" id="Combined-Shape" fill="#000000"></path>
        <path d="M932.591,208.00301 L932.591,267.82701 L911.831,267.82701 L911.831,209.55601 C911.831,188.75901 905.361,181.30401 892.011,181.30401 C878.481,181.30401 872.481,190.91801 872.481,207.59501 L872.481,267.82701 L851.721,267.82701 L851.721,209.55601 C851.721,188.75901 845.521,181.30401 832.171,181.30401 C818.641,181.30401 811.591,190.91801 811.591,207.59501 L811.591,267.82701 L790.831,267.82701 L790.831,164.82401 L811.591,164.82401 L811.591,174.63301 C816.691,167.17801 826.291,162.66601 836.881,162.66601 C850.821,162.66601 859.641,167.96201 865.141,177.77201 C872.591,168.55201 880.641,162.66601 896.721,162.66601 C920.661,162.66601 932.591,173.47801 932.591,208.00301 Z" id="Path" fill="#000000"></path>
        <path d="M731.202,162.66601 C754.156,162.66601 771.941,173.84901 771.941,197.19601 L771.941,197.19601 L771.941,267.82701 L751.186,267.82701 L751.186,257.62501 C744.124,264.68801 733.349,269.98501 722.165,269.98501 C705.489,269.98501 685.418,260.56801 685.418,235.25901 C685.418,212.30301 704.116,201.90501 727.464,201.90501 C737.075,201.90501 745.498,203.27901 751.186,205.82901 L751.186,205.82901 L751.186,198.17701 C751.186,186.99401 742.781,180.71601 730.226,180.71601 C719.631,180.71601 711.391,182.67801 703.347,187.19001 L703.347,187.19001 L695.499,171.88701 C705.308,165.80501 716.682,162.66601 731.202,162.66601 Z M726.875,219.36601 C713.925,219.36601 704.916,225.25201 704.916,234.66901 C704.916,244.87201 712.16,251.73801 725.501,251.73801 C736.291,251.73801 746.479,245.06801 751.186,238.59401 L751.186,238.59401 L751.186,223.87801 C745.693,221.13301 737.862,219.36601 726.875,219.36601 Z" id="Combined-Shape" fill="#000000"></path>
        <path d="M528.669,162.66601 C551.623,162.66601 569.412,173.84901 569.412,197.19601 L569.412,197.19601 L569.412,267.82701 L548.653,267.82701 L548.653,257.62501 C541.591,264.68801 530.816,269.98501 519.632,269.98501 C502.956,269.98501 482.884,260.56801 482.884,235.25901 C482.884,212.30301 501.583,201.90501 524.931,201.90501 C534.542,201.90501 542.964,203.27901 548.653,205.82901 L548.653,205.82901 L548.653,198.17701 C548.653,186.99401 540.248,180.71601 527.692,180.71601 C517.098,180.71601 508.858,182.67801 500.814,187.19001 L500.814,187.19001 L492.965,171.88701 C502.775,165.80501 514.149,162.66601 528.669,162.66601 Z M524.341,219.36601 C511.392,219.36601 502.383,225.25201 502.383,234.66901 C502.383,244.87201 509.627,251.73801 522.968,251.73801 C533.758,251.73801 543.946,245.06801 548.653,238.59401 L548.653,238.59401 L548.653,223.87801 C543.16,221.13301 535.329,219.36601 524.341,219.36601 Z" id="Combined-Shape" fill="#000000"></path>
        <path d="M672.965,208.77201 L672.965,267.82701 L652.206,267.82701 L652.206,209.55601 C652.206,188.75901 644.358,181.30401 631.016,181.30401 C617.48,181.30401 609.058,190.91801 609.058,207.59501 L609.058,267.82701 L588.299,267.82701 L588.299,164.82401 L609.058,164.82401 L609.058,174.63301 C614.16,167.17801 625.488,162.66601 636.084,162.66601 C660.019,162.66601 672.965,175.96901 672.965,208.77201 Z" id="Path" fill="#000000"></path>
        <path d="M403.196,132.69601 L403.196,174.63301 C410.651,167.76601 420.823,162.66601 431.613,162.66601 C453.783,162.66601 473.661,178.75301 473.661,217.99301 C473.661,253.30901 452.018,269.98501 430.632,269.98501 C420.233,269.98501 408.886,264.49201 403.196,258.21301 L403.196,258.21301 L403.196,267.82701 L382.437,267.82701 L382.437,143.82801 L403.196,132.69601 Z M427.886,181.30401 C418.272,181.30401 408.297,187.77901 403,194.44901 L403,194.44901 L403,237.80801 C407.512,243.89101 418.468,251.34601 428.67,251.34601 C443.189,251.34601 453.343,240.35901 453.343,218.58201 C453.343,192.68301 442.796,181.30401 427.886,181.30401 Z" id="Combined-Shape" fill="#000000"></path>
        <path d="M1322.99943,163 C1314.4822,163 1308,156.517798 1308,148.000566 C1308,139.483334 1314.4822,133 1322.99943,133 C1331.51667,133 1338,139.482202 1338,148.000566 C1338,156.518931 1331.5178,163 1322.99943,163 Z M1322.99943,135.409875 C1315.85248,135.409875 1310.40988,140.853611 1310.40988,148.000566 C1310.40988,155.147522 1315.85248,160.58786 1322.99943,160.58786 C1330.14639,160.58786 1335.59012,155.152052 1335.59012,148.000566 C1335.59012,140.849081 1330.14639,135.409875 1322.99943,135.409875 L1322.99943,135.409875 Z M1326.36511,149.288173 L1329.73078,155.894945 L1326.44664,155.894945 L1323.24744,149.579216 L1320.08788,149.579216 L1320.08788,155.894945 L1317.30769,155.894945 L1317.30769,139.524103 L1324.49541,139.524103 C1327.4047,139.524103 1329.85535,141.060851 1329.85535,144.468423 C1329.85535,147.04477 1328.48507,148.66532 1326.36511,149.288173 L1326.36511,149.288173 Z M1324.41274,142.22502 L1320.08788,142.22502 L1320.08788,146.878298 L1324.40935,146.878298 C1325.90533,146.878298 1327.02647,146.171643 1327.02647,144.551093 C1327.02986,143.014344 1325.90872,142.22502 1324.41274,142.22502 L1324.41274,142.22502 Z" id="Shape" fill="#000000" fill-rule="nonzero"></path>
    </g>
</svg>