<?xml version="1.0" encoding="UTF-8"?>
<svg width="665px" height="242px" viewBox="0 0 665 242" version="1.1" xmlns="http://www.w3.org/2000/svg" xmlns:xlink="http://www.w3.org/1999/xlink">
    <!-- Generator: Sketch 57.1 (83088) - https://sketch.com -->
    <title>Logotype/135-Años/White</title>
    <desc>Created with Sketch.</desc>
    <g id="Logotype/135-Años/White" stroke="none" stroke-width="1" fill="none" fill-rule="evenodd">
        <path d="M150.39,209.61 C115.82,209.61 87.7,181.55 87.7,147.06 L115.69,147.06 C115.69,166.15 131.25,181.68 150.39,181.68 C169.52,181.68 185.09,166.15 185.09,147.06 C185.09,127.97 169.53,112.44 150.39,112.44 L125.27,112.44 L151.59,69.99 L110.34,69.99 L110.34,42.06 L201.82,42.06 L172.91,88.68 C196.38,97.73 213.070003,120.49 213.070003,147.06 C213.08,181.55 184.95,209.61 150.39,209.61" id="Path" fill="#FFFFFF"></path>
        <polygon id="Path" fill="#FFFFFF" points="81.62 147.2 53.63 147.2 53.63 69.99 32 69.99 32 42.05 81.62 42.05"></polygon>
        <path d="M280.49,110.68 C265.24,89.17 238.73,80.22 214.51,86.17 L224.61,69.89 L282.02,69.89 L282.02,42.06 L209.45,42.06 L182.38,85.71 C195.58,92.58 206.05,103.58 212.47,116.65 C227.71,108.03 247.39,112.17 257.72,126.75 C268.73,142.28 265.02,163.85 249.46,174.83 C238.23,182.76 223.86,183 212.58,176.7 C208.41,185.22 202.52,192.75 195.37,198.85 C205.6,205.5 217.53,208.97 229.58,208.97 C242.05,208.97 254.63,205.26 265.56,197.55 C293.68,177.7 300.38,138.73 280.49,110.68" id="Path" fill="#FFFFFF"></path>
        <path d="M405.3,116.02 L398.19,116.02 L390.67,105.64 C389.27,103.71 386.57,99.66 385.76,98.27 C385.99,99.66 386.03,103.84 386.03,106.4 L386.03,116.02 L377.65,116.02 L377.65,84.57 L385.35,84.57 L392.28,93.87 C393.72,95.8 396.51,99.98 397.19,101.28 C396.96,99.89 396.92,95.71 396.92,93.15 L396.92,84.57 L405.3,84.57 L405.3,116.02 Z M358.96,100.34 C358.96,94.68 356.89,91.67 353.38,91.67 C349.87,91.67 347.89,94.59 347.89,100.25 C347.89,105.91 349.96,108.92 353.47,108.92 C356.98,108.92 358.96,106 358.96,100.34 Z M368.01,100.25 C368.01,110.72 361.93,116.51 353.38,116.51 C344.82,116.51 338.84,110.8 338.84,100.33 C338.84,89.86 344.92,84.07 353.47,84.07 C362.03,84.08 368.01,89.78 368.01,100.25 Z M331.94,108.39 C329.82,112.52 326.31,116.52 318.84,116.52 C309.47,116.52 304.48,109.6 304.48,100.3 C304.48,90.19 310.42,84.08 318.89,84.08 C326.63,84.08 329.7,87.4 331.86,93.34 L323.94,96.44 C322.81,93.52 321.73,91.68 318.85,91.68 C315.2,91.68 313.63,95.32 313.63,100.31 C313.63,105.12 315.16,108.94 318.94,108.94 C321.69,108.94 322.86,107.46 324.57,104.49 L331.94,108.39 Z" id="Shape" fill="#FFFFFF"></path>
        <path d="M438.43,63.73 C438.43,70.92 432.98,73.88 425.42,73.88 C420.33,73.88 415.42,72.22 412.14,70.06 L416.37,63.23 C418.67,64.8 422.67,66.38 425.6,66.38 C428.71,66.38 429.7,65.84 429.7,64.36 C429.7,63.19 428.57,62.47 424.34,61.48 C416.73,59.73 413.08,57.66 413.08,51.37 C413.08,45.44 417.9,41.44 425.51,41.44 C430.87,41.44 434.74,42.74 438.07,45.08 L433.84,51.91 C431.05,50.02 428.26,48.94 425.06,48.94 C422.45,48.94 421.82,49.75 421.82,50.87 C421.82,52.04 422.95,52.58 427,53.52 C434.92,55.41 438.43,57.84 438.43,63.73 Z M396.89,57.71 C396.89,52.05 394.82,49.04 391.31,49.04 C387.8,49.04 385.82,51.96 385.82,57.62 C385.82,63.28 387.89,66.29 391.4,66.29 C394.91,66.29 396.89,63.37 396.89,57.71 Z M405.94,57.62 C405.94,68.09 399.86,73.89 391.31,73.89 C382.75,73.89 376.77,68.18 376.77,57.71 C376.77,47.24 382.85,41.4499869 391.4,41.4499869 C399.95,41.44 405.94,47.15 405.94,57.62 Z M365.16,33.13 C365.16,37.13 362.91,40.18 359.26,40.18 C357.59,40.18 356.6,39.87 355.25,39.06 C353.94,38.3 353.18,37.76 352.5,37.76 C351.51,37.76 351.06,38.48 350.83,40.05 L346.19,40.05 C346.19,36.05 348.44,33 352.09,33 C353.76,33 354.75,33.31 356.1,34.12 C357.41,34.88 358.17,35.42 358.85,35.42 C359.84,35.42 360.34,34.61 360.52,33.13 L365.16,33.13 Z M369.35,73.39 L362.24,73.39 L354.72,63.01 C353.32,61.08 350.62,57.03 349.81,55.64 C350.04,57.03 350.08,61.21 350.08,63.77 L350.08,73.39 L341.7,73.39 L341.7,41.94 L349.4,41.94 L356.33,51.24 C357.77,53.17 360.56,57.35 361.24,58.65 C361.01,57.26 360.97,53.08 360.97,50.52 L360.97,41.94 L369.35,41.94 L369.35,73.39 Z M321.59,60.94 L321,58.87 C319.87,54.83 319.38,53.12 318.97,51.01 C318.56,53.12 318.07,54.87 316.94,58.87 L316.35,60.94 L321.59,60.94 Z M334.87,73.39 L325.41,73.39 L323.7,67.86 L314.24,67.86 L312.53,73.39 L303.16,73.39 L314.6,41.94 L323.43,41.94 L334.87,73.39 Z" id="Shape" fill="#FFFFFF"></path>
        <path d="M623.06,100.34 C623.06,94.68 620.99,91.67 617.48,91.67 C613.97,91.67 611.99,94.59 611.99,100.25 C611.99,105.91 614.06,108.92 617.57,108.92 C621.08,108.92 623.06,106 623.06,100.34 Z M632.11,100.25 C632.11,110.72 626.03,116.51 617.48,116.51 C608.93,116.51 602.94,110.8 602.94,100.33 C602.94,89.86 609.02,84.07 617.57,84.07 C626.12,84.08 632.11,89.78 632.11,100.25 Z M595.36,108.39 C593.24,112.52 589.73,116.52 582.26,116.52 C572.89,116.52 567.9,109.6 567.9,100.3 C567.9,90.19 573.84,84.08 582.31,84.08 C590.05,84.08 593.12,87.4 595.28,93.34 L587.36,96.44 C586.23,93.52 585.15,91.68 582.27,91.68 C578.62,91.68 577.05,95.32 577.05,100.31 C577.05,105.12 578.58,108.94 582.36,108.94 C585.11,108.94 586.28,107.46 587.99,104.49 L595.36,108.39 Z M558.42,116.02 L549.5,116.02 L549.5,84.57 L558.42,84.57 L558.42,116.02 Z M540.62,116.02 L530.49,116.02 L528.37,112.38 C527.24,110.4 526.12,108.29 525.35,106.58 C524.63,108.24 523.46,110.4 522.29,112.38 L520.17,116.02 L510.26,116.02 L520.57,100.11 L510.62,84.56 L520.75,84.56 L522.51,87.62 C523.64,89.6 524.85,91.71 525.53,93.37 C526.25,91.71 527.47,89.6 528.59,87.62 L530.35,84.56 L540.26,84.56 L530.31,99.93 L540.62,116.02 Z M499.04,75.36 L491.97,82.55 L486.21,82.55 L489.45,75.36 L499.04,75.36 Z M502.42,116.02 L477.97,116.02 L477.97,84.57 L502.1,84.57 L502.1,91.89 L486.61,91.89 L486.61,96.07 L495.93,96.07 L495.93,103.3 L486.61,103.3 L486.61,108.69 L502.41,108.69 L502.41,116.02 L502.42,116.02 Z M467.42,116.02 L459.23,116.02 L459.23,108.52 C459.23,105.42 459.28,102.59 459.41,100.16 C458.46,102.5 456.84,106.14 455.76,108.38 L451.62,117.1 L447.48,108.38 C446.4,106.13 444.78,102.49 443.83,100.16 C443.97,102.59 444.01,105.42 444.01,108.52 L444.01,116.02 L435.82,116.02 L435.82,84.57 L443.83,84.57 L447.7,92.97 C449.59,97.01 451.17,100.7 451.66,102.45 C452.2,100.65 453.64,97.24 455.62,92.97 L459.49,84.57 L467.41,84.57 L467.41,116.02 L467.42,116.02 Z" id="Shape" fill="#FFFFFF"></path>
    </g>
</svg>