<?xml version="1.0" encoding="utf-8"?>
<!-- Generator: Adobe Illustrator 23.0.4, SVG Export Plug-In . SVG Version: 6.00 Build 0)  -->
<svg version="1.1" id="Layer_1" xmlns="http://www.w3.org/2000/svg" xmlns:xlink="http://www.w3.org/1999/xlink" x="0px" y="0px"
	 viewBox="0 0 1152 612" style="enable-background:new 0 0 1152 612;" xml:space="preserve">
<style type="text/css">
	.st0{fill:#666666;}
</style>
<g>
	<g>
		<path class="st0" d="M1111.91,310.65c-5.19-1.71-10.69-3.32-15.8-4.58c2.73-3.17,7.34-8.84,10.77-13.48
			c3.57-4.83,5.27-8.59,5.27-12.39c0-3.24-1.23-6.6-3.61-10.7c-4.17-7.52-11.56-14.77-17.83-19.53c-4.56-3.27-11.47-7.29-18.1-7.29
			c-3.71,0-7.36,1.5-10.34,5.14c-3.26,4.39-6.45,9.06-9.25,13.43c-2.25-3.55-6.2-9.6-9.67-14.23c-5.08-6.51-9.09-9.14-15.23-9.14
			c-11.28,0-23.82,6.95-30.56,11.52c-5.42,3.91-13.6,10.43-13.6,18.4c0,2.4,0.83,4.95,2.81,7.56c3.21,4.46,6.71,8.92,9.99,12.9
			c-4.06,1.06-11.14,2.86-16.68,4.63c-10.92,3.53-15.45,8.37-15.45,22.68c0,6.15,0.89,13.29,3.53,21.07
			c2.68,8.25,8.41,22.53,21.64,18.19c5.23-1.67,10.58-3.57,15.52-5.47c-0.3,4.19-0.7,8.25-0.7,14c0,14.35,2.91,18.56,11.9,22.9
			c7.99,3.64,18.18,5.24,26.51,5.24c8.72,0,24.21-1.03,24.21-14.79c0-8.62-0.12-11.15-0.45-16.32c3.87,1.54,10.71,4.15,16.28,5.94
			c3.65,1.18,6.61,1.77,9.31,1.77c4.66,0,8.38-2.33,13.05-7.29c8.19-8.72,15.88-25.44,15.88-36.48
			C1121.33,318.46,1119.18,313.01,1111.91,310.65z M1015.91,271.79c10.01-7.2,20.43-8.8,28.21-8.8c3,0,5.58,0.2,7.44,0.51
			c-5.25,8.19-7.79,14.29-7.98,17.17c-0.23-0.67-1.74-5.12-8-5.12c-6.67,0-13.15,4.22-18,4.22c-3.36,0-4.33-2.77-4.33-3.99
			C1013.26,274.6,1013.93,273.16,1015.91,271.79z M1004.31,321.38c0.07,4.58-0.5,7.34-3.33,8.26c-2.05,0.66-4.35-0.03-5.52-3.67
			c-5.3-15.81,0.08-29.64,3.01-35.68c6.03,6.88,10.79,11.47,13.66,12.89c-0.54-0.06-1.06,0.01-1.74,0.33
			C1003.44,305.69,1004.15,315.51,1004.31,321.38z M1041.21,362.41c-17.27,0-28.91-9.36-33.4-14.01c4.14-1.85,8.05-3.6,10.78-5.25
			c1.93-1.09,3.94-2.24,5.54-3.92c-0.22,0.59-0.33,1.32-0.33,2.08c0,7.2,9.62,9.55,15.3,11.28c4.49,1.34,7.35,2.87,7.35,5.75
			C1046.44,360.5,1045.13,362.41,1041.21,362.41z M1060.92,336.79c-2.72-2.62-7.66-4.44-16.97-4.44c-8.36,0-14.9,1.32-18.14,4.24
			c0.77-1.56,1.24-3.49,1.24-6.03c0-2.93-0.68-6.26-2.22-10.87c-2.6-7.9-5.85-13.67-9.66-15.74c3.77,0.51,8.8-0.88,16.38-6.29
			c6.75-4.88,11.31-9.74,12.13-13.97c0.71,3.73,3.64,8.03,11.12,13.46c6.81,4.88,12.84,7.62,17.19,7.09
			c-3.42,1.82-6.67,5.89-9.54,14.57c-1.58,4.94-2.46,9-2.46,12.52C1059.95,333.46,1060.29,335.29,1060.92,336.79z M1084.23,342.74
			c-6.03,8.14-13.38,12.74-17.6,15.02c-0.36-4.78-0.9-9.04-1.54-12.18c-0.5-2.13-1.03-4.35-2.15-6.35c0.49,0.4,1.21,0.68,1.98,0.96
			c6.89,2.25,12.15-6.09,15.55-10.93c2.28-3.18,4.33-4.87,6.55-4.87c1.58,0,4,1.03,4,3.52
			C1091.02,330.45,1088.6,336.4,1084.23,342.74z M1077.85,302.9c-0.99,0-1.94,0.07-2.9,0.28c1.12-0.78,2.96-2.78,2.96-5.91
			c0-4.84-4.41-10.07-7.12-13.65c-1.97-2.61-3.3-4.78-3.3-6.67c0-2.04,1.79-3.89,3.85-3.89c1.05,0,2.2,0.43,3.58,1.4
			c13.98,10,17.82,24.3,18.8,31C1087.57,303.87,1081.35,302.9,1077.85,302.9z"/>
		<path class="st0" d="M1140.65,267.97c0,1.37-0.24,2.65-0.73,3.82c-0.49,1.18-1.17,2.2-2.03,3.06s-1.88,1.54-3.06,2.03
			s-2.46,0.74-3.83,0.74c-1.38,0-2.65-0.25-3.83-0.74c-1.17-0.49-2.2-1.17-3.06-2.03c-0.86-0.86-1.54-1.89-2.03-3.06
			c-0.49-1.17-0.73-2.45-0.73-3.82c0-1.38,0.24-2.65,0.73-3.83s1.17-2.2,2.03-3.06c0.87-0.86,1.89-1.54,3.06-2.03
			s2.45-0.74,3.83-0.74c1.37,0,2.64,0.25,3.83,0.74c1.17,0.49,2.2,1.17,3.06,2.03c0.87,0.86,1.54,1.89,2.03,3.06
			C1140.4,265.33,1140.65,266.6,1140.65,267.97z M1139.09,267.97c0-1.14-0.21-2.21-0.61-3.2c-0.41-0.99-0.99-1.85-1.72-2.58
			c-0.73-0.73-1.59-1.3-2.58-1.71s-2.05-0.61-3.19-0.61c-1.17,0-2.23,0.2-3.21,0.61c-0.99,0.41-1.84,0.98-2.57,1.71
			s-1.3,1.59-1.71,2.58s-0.62,2.06-0.62,3.2c0,1.16,0.21,2.23,0.62,3.21c0.41,0.98,0.98,1.84,1.71,2.57s1.59,1.3,2.57,1.71
			s2.04,0.61,3.21,0.61c1.14,0,2.2-0.2,3.19-0.61c0.99-0.41,1.85-0.98,2.58-1.71c0.73-0.73,1.31-1.59,1.72-2.57
			C1138.89,270.2,1139.09,269.13,1139.09,267.97z M1135.38,265.7c0,0.84-0.21,1.51-0.61,2.03c-0.41,0.52-0.96,0.87-1.63,1.07
			l2.16,4.25h-2.1l-2.05-4.07h-2.03v4.07h-1.79v-10.54h4.61c0.47,0,0.91,0.06,1.33,0.18c0.41,0.13,0.78,0.32,1.09,0.58
			c0.3,0.26,0.56,0.59,0.74,0.99C1135.29,264.67,1135.38,265.15,1135.38,265.7z M1133.58,265.75c0-0.5-0.16-0.87-0.47-1.12
			c-0.32-0.25-0.73-0.37-1.21-0.37h-2.78v2.99h2.78c0.48,0,0.89-0.12,1.21-0.36C1133.42,266.65,1133.58,266.27,1133.58,265.75z"/>
	</g>
	<path class="st0" d="M249.74,262.01h-22.37c-15.3-15.77-35.39-24.34-55.86-24.34c-20.83,0.05-40.57,8.57-55.91,24.34H93.27
		c16.74-24.86,46.7-41.51,78.23-41.51C203.51,220.49,233.52,237.65,249.74,262.01z"/>
	<path class="st0" d="M314.18,275.49c-9.94,0-19.32,4.7-26.19,11.03v-38.65l-19.13,10.26V372.4H288v-8.86
		c5.24,5.79,15.7,10.85,25.28,10.85c19.71,0,39.65-15.37,39.65-47.91C352.93,290.31,334.61,275.49,314.18,275.49z M311.47,357.21
		c-9.4,0-19.5-6.87-23.66-12.48v-39.96c4.88-6.15,14.07-12.11,22.93-12.11c13.74,0,23.46,10.49,23.46,34.35
		C334.21,347.08,324.85,357.21,311.47,357.21z M536.6,317.97v54.42h-19.13v-53.7c0-19.17-7.23-26.04-19.53-26.04
		c-12.47,0-20.23,8.86-20.23,24.23v55.51h-19.13v-94.92h19.13v9.04c4.7-6.87,15.14-11.03,24.9-11.03
		C524.67,275.49,536.6,287.74,536.6,317.97z M403.62,275.49c-13.38,0-23.86,2.89-32.9,8.5l7.23,14.1
		c7.41-4.16,15.01-5.97,24.77-5.97c11.57,0,19.32,5.79,19.32,16.09v7.05c-5.24-2.35-13-3.62-21.86-3.62
		c-21.52,0-38.75,9.58-38.75,30.74c0,23.32,18.5,32,33.86,32c10.31,0,20.24-4.88,26.74-11.39v9.4h19.13V307.3
		C441.17,285.79,424.78,275.49,403.62,275.49z M422.04,345.46c-4.34,5.97-13.73,12.11-23.67,12.11c-12.29,0-18.97-6.33-18.97-15.73
		c0-8.68,8.3-14.1,20.24-14.1c10.12,0,17.34,1.63,22.4,4.16L422.04,345.46L422.04,345.46z M590.26,275.49
		c-13.38,0-23.86,2.89-32.9,8.5l7.23,14.1c7.41-4.16,15.01-5.97,24.77-5.97c11.57,0,19.32,5.79,19.32,16.09v7.05
		c-5.24-2.35-13-3.62-21.86-3.62c-21.52,0-38.75,9.58-38.75,30.74c0,23.32,18.5,32,33.86,32c10.31,0,20.24-4.88,26.74-11.39v9.4
		h19.13V307.3C627.81,285.79,611.42,275.49,590.26,275.49z M608.68,345.46c-4.34,5.97-13.73,12.11-23.67,12.11
		c-12.29,0-18.97-6.33-18.97-15.73c0-8.68,8.3-14.1,20.24-14.1c10.12,0,17.34,1.63,22.4,4.16L608.68,345.46L608.68,345.46z
		 M775.85,317.27v55.13h-19.13v-53.7c0-19.17-5.97-26.04-18.26-26.04c-12.47,0-18.01,8.86-18.01,24.23v55.51h-19.13v-53.7
		c0-19.17-5.71-26.04-18.01-26.04c-12.47,0-18.97,8.86-18.97,24.23v55.51h-19.13v-94.92h19.13v9.04
		c4.7-6.87,13.54-11.03,23.31-11.03c12.84,0,20.97,4.88,26.04,13.92c6.87-8.5,14.28-13.92,29.11-13.92
		C764.86,275.49,775.85,285.45,775.85,317.27z M873.26,323.04c0-25.67-14.43-47.55-41.37-47.55c-24.59,0-43.37,17.36-43.37,49.54
		c0,31.46,20.59,49.36,42.82,49.36c14.46,0,25.83-4.52,34.14-12.48l-10.32-12.17c-6.33,4.7-14.78,7.59-22.74,7.59
		c-11.57,0-23.29-7.53-25.28-25.79h65.57C872.89,329.55,873.26,326.47,873.26,323.04z M807.5,316.17
		c1.63-15.19,10.64-23.87,23.11-23.87c15.37,0,22.93,10.85,23.84,23.87H807.5z M955.07,372.39h-22.24l-9.04-16.45
		c-3.8-6.87-8.14-15.55-9.95-19.17c-1.63,3.62-6.69,12.84-10.3,19.35l-9.22,16.27h-21.09l29.12-49.18l-27.14-45.74h21.63l7.41,13.38
		c3.8,6.87,8.32,15.37,9.94,18.98c1.99-3.62,6.51-12.66,10.12-19.35l7.23-13.02h21.52l-27.31,45.74L955.07,372.39z M31,325.01
		c0,17.77,12.4,30.54,29.52,30.54c8.24,0,16.2-3.68,23.06-10.68l0.41-0.45l11.09,13.31l-0.31,0.35
		c-9.2,10.85-20.2,16.11-33.71,16.11c-13.56,0-25.92-4.53-34.93-12.79c-9.65-8.93-14.79-21.53-14.79-36.39
		c0-14.9,5.15-27.47,14.79-36.38c9-8.26,21.37-12.77,34.93-12.77c13.51,0,24.51,5.22,33.71,16.08l0.31,0.33L84,305.61l-0.41-0.42
		c-6.86-7.05-14.83-10.75-23.06-10.75C43.41,294.43,31,307.32,31,325.01z M106.17,277.35h19.48v84.76v10.25h-19.48V277.35z
		 M201.93,351.7l1.11-0.71l-4.67,18.33l-0.21,0.13c-3.18,1.96-8.51,4.54-17.24,4.36c-12.96-0.21-21.63-10.21-21.63-24.84v-53.63
		h-16.45v-17.87h16.45v-19.34l19.13-10.26v29.6h19.77v17.87h-19.77v50.44c0,7.39,2.78,10.71,9.1,10.71
		C191.87,356.48,196.73,354.87,201.93,351.7z M218.03,277.35h19.5v82.56v12.45h-19.5V277.35z"/>
</g>
</svg>
