<?xml version="1.0" encoding="UTF-8"?>
<svg width="260px" height="257px" viewBox="0 0 260 257" version="1.1" xmlns="http://www.w3.org/2000/svg" xmlns:xlink="http://www.w3.org/1999/xlink">
    <!-- Generator: Sketch 57.1 (83088) - https://sketch.com -->
    <title>Logotype/Roseta/Full-Color</title>
    <desc>Created with Sketch.</desc>
    <g id="Logotype/Roseta/Full-Color" stroke="none" stroke-width="1" fill="none" fill-rule="evenodd">
        <path d="M113.884647,45 C120.544461,45 124.897803,47.8603017 130.409374,54.9375225 C134.163632,59.9748149 138.447081,66.5498071 140.89334,70.4085632 C143.928697,65.6624032 147.393398,60.5840922 150.927992,55.8099195 C154.163045,51.8591215 158.126982,50.2263785 162.140843,50.2263785 C169.339833,50.2263785 176.82838,54.5993686 181.780806,58.1519853 C188.580406,63.317336 196.608129,71.2019242 201.131211,79.3796458 C203.707271,83.8366742 205.045225,87.4943387 205.045225,91.01294 C205.045225,95.1468213 203.188065,99.2306798 199.323975,104.48207 C195.609656,109.527366 190.597322,115.683167 187.641842,119.133738 C193.183367,120.497358 199.154235,122.247154 204.775637,124.109002 C212.663573,126.683173 215,132.602867 215,138.989774 C215,150.986233 206.662751,169.160504 197.776342,178.641819 C192.714084,184.036274 188.680254,186.565425 183.617996,186.565425 C180.69247,186.565425 177.477388,185.920131 173.51345,184.637548 C167.472689,182.699666 160.054035,179.858373 155.850464,178.185611 C156.185951,183.583268 156.318995,186.33565 156.329102,194.832989 L156.329731,195.925685 C156.329731,210.876489 139.535416,212 130.069893,212 C121.023728,212 109.970633,210.262209 101.303888,206.307409 C91.5488077,201.587261 88.3936333,197.007177 88.3936333,181.410079 C88.3936333,175.167238 88.8229766,170.747226 89.142488,166.195155 C83.7906731,168.25109 77.9895454,170.31603 72.3082345,172.136859 C57.9601786,176.856006 51.7396922,161.32894 48.834136,152.36286 C45.9685187,143.907012 45,136.14748 45,129.458436 C45,113.904358 49.9124868,108.640962 61.7543757,104.805217 C67.7751674,102.873338 75.4534242,100.918448 79.8566898,99.7689248 C76.2921414,95.4399547 72.4979443,90.5907479 69.0132738,85.7465433 C66.866557,82.9082517 65.9679314,80.1329887 65.9679314,77.5258022 C65.9679314,68.8688625 74.8543404,61.7816372 80.7253612,57.5277012 C88.034183,52.5544379 101.643369,45 113.884647,45 Z M109.54129,155.184144 C107.813932,157.016978 105.627276,158.265546 103.530483,159.449085 C100.565018,161.236898 96.3215083,163.140765 91.8383649,165.15268 C96.7109127,170.20498 109.33161,180.37961 128.072947,180.37961 C132.326442,180.37961 133.744273,178.298663 133.744273,175.964601 C133.744273,172.829174 130.649007,171.17342 125.77646,169.713756 C119.615882,167.8339 109.18184,165.274736 109.18184,157.448174 C109.18184,156.617796 109.311641,155.826436 109.54129,155.184144 Z M177.766945,139.041797 C175.360625,139.041797 173.13403,140.880634 170.657817,144.335206 C166.973452,149.596601 161.262187,158.662727 153.79361,156.213612 C152.954893,155.914476 152.176084,155.612339 151.636908,155.17514 C152.855045,157.354131 153.424175,159.771231 153.973335,162.083283 C154.662281,165.50284 155.261365,170.130946 155.640785,175.32531 C160.223775,172.847182 168.201574,167.850908 174.741572,158.996879 C179.484318,152.105743 182.110302,145.634798 182.110302,142.872541 C182.110302,140.165309 179.484318,139.041797 177.766945,139.041797 Z M130.748855,94.8166711 C129.860214,99.4147636 124.907788,104.70317 117.588982,110.003582 C109.371549,115.884259 103.919887,117.397948 99.8261482,116.843695 C103.959826,119.09472 107.484436,125.365574 110.300129,133.952481 C111.977564,138.965763 112.716434,142.580408 112.716434,145.768859 C112.716434,148.535118 112.207212,150.624068 111.368495,152.323842 C114.88312,149.144395 121.972278,147.710743 131.048397,147.710743 C141.142958,147.710743 146.514742,149.687642 149.460237,152.533938 C148.771291,150.899194 148.411841,148.91329 148.441795,146.60524 C148.441795,142.776497 149.410314,138.363489 151.117702,132.994045 C154.242923,123.562753 157.767532,119.133738 161.471867,117.158839 C156.74909,117.735101 150.209092,114.752744 142.820392,109.450331 C134.692823,103.548645 131.517679,98.8765187 130.748855,94.8166711 Z M81.7138494,101.973928 C78.5287208,108.54892 72.6976389,123.580761 78.4388582,140.764581 C79.7069188,144.71738 82.2031011,145.466721 84.4296958,144.752396 C87.4950076,143.755943 88.1140608,140.753576 88.034183,135.77431 C87.8644426,129.393407 87.0956185,118.724551 94.6440738,116.345469 C95.3829437,115.991307 95.9520733,115.919275 96.5311876,115.982303 C93.4259368,114.439601 88.2438623,109.450331 81.7138494,101.973928 Z M160.752966,83.2514078 C158.516387,83.2514078 156.579349,85.2633234 156.579349,87.477331 C156.579349,89.5292648 158.027135,91.8863375 160.153882,94.7256296 C163.089393,98.6194016 167.882063,104.302988 167.882063,109.566384 C167.882063,112.970933 165.885117,115.142921 164.676965,115.991307 C165.715376,115.759202 166.753788,115.683167 167.822154,115.683167 C171.616351,115.683167 178.366028,116.738648 185.035828,118.473437 C183.967462,111.182119 179.803829,95.6360439 164.637026,84.7690985 C163.149301,83.7166195 161.90121,83.2514078 160.752966,83.2514078 Z M131.238106,72.2974228 C122.791025,72.2974228 111.488312,74.0362141 100.624927,81.8657772 C98.4782098,83.3534543 97.7493246,84.9291714 97.7493246,86.202751 C97.7493246,87.5223515 98.7977211,90.5367233 102.452132,90.5367233 C107.7041,90.5367233 114.733349,85.9496358 121.972278,85.9496358 C128.761894,85.9496358 130.409374,90.7808344 130.649007,91.5111668 C130.848702,88.3877453 133.614472,81.7547267 139.305768,72.8496741 C137.288852,72.5135211 134.493128,72.2974228 131.238106,72.2974228 Z" id="Rosets" fill="#D8232A"></path>
        <path d="M229.999434,86 C221.482202,86 215,79.5177985 215,71.0005662 C215,62.483334 221.482202,56 229.999434,56 C238.516666,56 245,62.4822015 245,71.0005662 C245,79.518931 238.517798,86 229.999434,86 Z M229.999434,58.4098751 C222.852478,58.4098751 217.409875,63.8536107 217.409875,71.0005662 C217.409875,78.1475218 222.852478,83.58786 229.999434,83.58786 C237.146389,83.58786 242.590125,78.1520516 242.590125,71.0005662 C242.590125,63.8490808 237.146389,58.4098751 229.999434,58.4098751 L229.999434,58.4098751 Z M233.365105,72.2881733 L236.730776,78.8949455 L233.446642,78.8949455 L230.247443,72.5792156 L227.087879,72.5792156 L227.087879,78.8949455 L224.307689,78.8949455 L224.307689,62.5241025 L231.495414,62.5241025 C234.404703,62.5241025 236.855347,64.0608509 236.855347,67.4684232 C236.855347,70.0447699 235.48507,71.6653203 233.365105,72.2881733 L233.365105,72.2881733 Z M231.412744,65.2250198 L227.087879,65.2250198 L227.087879,69.8782983 L231.409347,69.8782983 C232.905326,69.8782983 234.02647,69.1716432 234.02647,67.5510928 C234.029859,66.0143445 232.908724,65.2250198 231.412744,65.2250198 L231.412744,65.2250198 Z" id="®" fill="#056DAE" fill-rule="nonzero"></path>
    </g>
</svg>