<?xml version="1.0" encoding="UTF-8"?>
<svg width="825px" height="308px" viewBox="0 0 825 308" version="1.1" xmlns="http://www.w3.org/2000/svg" xmlns:xlink="http://www.w3.org/1999/xlink">
    <!-- Generator: Sketch 57.1 (83088) - https://sketch.com -->
    <title>Logotype/Thank-You/Full-Color</title>
    <desc>Created with Sketch.</desc>
    <g id="Logotype/Thank-You/Full-Color" stroke="none" stroke-width="1" fill="none" fill-rule="evenodd">
        <rect id="Rectangle" fill="#004785" x="646.62" y="164.61" width="14.56" height="71.02"></rect>
        <path d="M718.21,220.18 C714.32,222.54 710.71,223.73 707.47,223.73 C702.76,223.73 700.64,221.25 700.64,215.72 L700.64,178.04 L715.46,178.04 L715.46,164.67 L700.64,164.67 L700.64,142.57 L686.36,150.2 L686.36,164.66 L674.05,164.66 L674.05,178.03 L686.36,178.03 L686.36,218.12 C686.36,229.04 692.84,236.5 702.51,236.7 C709.07,236.83 713.03,234.87 715.43,233.44 L715.58,233.34 L719.08,219.65 L718.21,220.18 Z" id="Path" fill="#004785"></path>
        <rect id="Rectangle" fill="#004785" x="730.26" y="164.61" width="14.57" height="71.02"></rect>
        <path d="M753.33,152.16 C740.03,133.34 717.95,122.11 695.47,122.11 C673,122.11 650.91,133.34 637.64,152.16 L636.95,153.13 L653.7,153.13 L653.89,152.93 C665.29,141.18 680.17,134.96 695.47,134.96 C710.77,134.96 725.64,141.18 737.07,152.93 L737.26,153.13 L753.99,153.13 L753.33,152.16 Z" id="Path" fill="#ED1C24"></path>
        <path d="M89.18,107.05 L89.18,151.4 C89.18,157.49 90.87,159.57 96.07,159.57 C99.96,159.57 102.56,158.92 105.67,157.62 L105.02,166.05 C101.25,167.61 97.61,168.39 92.42,168.39 C83.98,168.39 79.44,164.23 79.44,152.95 L79.44,107.05 L71,107.05 L71,98.88 L79.44,98.88 L79.44,82.89 L89.17,77.44 L89.17,98.87 L106.05,98.87 L106.05,107.04 L89.18,107.04 L89.18,107.05 L89.18,107.05 Z" id="Path" fill="#004785"></path>
        <path d="M161.75,166.97 L161.75,127.15 C161.75,112.5 156.56,105.88 145.66,105.88 C136.17,105.88 128.77,112.23 128.77,127.15 L128.77,166.97 L119.04,166.97 L119.04,77.15 L128.77,71 L128.77,107.16 C132.67,101.45 139.03,97.45 147.61,97.45 C162.02,97.45 171.49,105.87 171.49,125.44 L171.49,166.96 L161.75,166.96 L161.75,166.97 L161.75,166.97 Z" id="Path" fill="#004785"></path>
        <path d="M223.85,166.97 L223.85,158.66 C219.04,163.85 212.29,168.39 202.54,168.39 C191.91,168.39 180.75,163.07 180.75,146.59 C180.75,131.28 193.34,124.81 206.84,124.81 C213.71,124.81 219.82,126.49 223.85,128.71 L223.85,120.66 C223.85,110.54 219.04,105.61 209.05,105.61 C201.9,105.61 196.07,107.56 190.48,110.79 L186.85,102.89 C192.81,99.65 200.86,97.45 209.71,97.45 C224.36,97.45 233.59,103.66 233.59,119.5 L233.59,166.97 L223.85,166.97 L223.85,166.97 Z M223.85,136.48 C219.43,134.01 214.63,132.6 206.31,132.6 C196.33,132.6 190.35,137.4 190.35,145.95 C190.35,156.07 195.93,160.49 204.24,160.49 C213.08,160.49 219.69,155.95 223.85,150.24 L223.85,136.48 L223.85,136.48 Z" id="Shape" fill="#004785"></path>
        <polygon id="Path" fill="#004785" points="351.04 166.97 333.77 131.17 321.97 147.39 321.97 166.97 312.24 166.97 312.24 77.85 321.97 72.4 321.97 131.17 321.97 134.66 324.69 130.51 347.02 98.87 357.92 98.87 340.02 123 361.55 166.97"></polygon>
        <path d="M403.86,132.48 C402.1,137.41 399.79,145.17 398.46,149.74 C397.11,145.18 393.99,137.22 392.25,132.22 L380.33,99.25 L364.8,99.25 L391.24,165.11 L381.39,190.38 L396.41,190.38 L396.55,190.03 L430.32,99.24 L415.3,99.24 L403.86,132.48 Z" id="Path" fill="#004785"></path>
        <path d="M540.96,99.26 L540.96,138.75 C540.91,149.37 536.26,155.15 527.82,155.18 C523.59,155.17 520.37,154.02 518.15,151.3 C515.92,148.56 514.66,144.13 514.66,137.48 L514.66,99.26 L500.49,99.26 L500.49,137.98 C500.49,147.88 502.56,155.45 506.67,160.59 C510.77,165.72 516.9,168.33 524.74,168.33 L524.77,168.33 C531.15,168.32 537.31,165.87 540.96,161.66 L540.96,166.94 L555.15,166.94 L555.15,99.26 L540.96,99.26 L540.96,99.26 Z" id="Path" fill="#004785"></path>
        <path d="M461.93,97.86 C453.41,97.86 445.81,101.16 440.39,107.25 C434.95,113.31 431.67,122.15 431.67,133.15 C431.67,143.67 434.85,152.46 440.2,158.63 C445.53,164.8 453.02,168.32 461.56,168.32 L461.58,168.32 C470.27,168.32 477.95,165.03 483.43,158.91 C488.92,152.81 492.18,143.91 492.18,132.77 C492.18,122.27 488.97,113.53 483.57,107.44 C478.16,101.32 470.58,97.86 461.93,97.86 M473.5,148.51 C470.71,152.42 466.8,154.81 462.06,154.81 C452.52,154.78 446.01,147.22 445.99,132.78 C446.02,119.73 451.92,111.39 461.42,111.39 C471.59,111.41 477.82,119.74 477.88,133.15 C477.88,139.16 476.27,144.59 473.5,148.51" id="Shape" fill="#004785"></path>
        <path d="M289.48,166.97 L289.48,127.15 C289.48,112.5 284.28,105.88 273.37,105.88 C263.91,105.88 256.51,112.23 256.51,127.15 L256.51,166.97 L246.77,166.97 L246.77,98.87 L256.51,98.87 L256.51,107.16 C260.39,101.45 266.76,97.45 275.32,97.45 C289.73,97.45 299.21,105.87 299.21,125.44 L299.21,166.96 L289.48,166.96 L289.48,166.97 L289.48,166.97 Z" id="Path" fill="#004785"></path>
        <path d="M428.23,192.54 C425.9,192.54 424.93,193.43 424.93,196.04 L424.93,200.16 L431.59,200.16 L431.59,206.75 L424.93,206.75 L424.93,236.2 L417.86,236.2 L417.86,206.75 L413.19,206.75 L413.19,200.16 L417.86,200.16 L417.86,195.43 C417.86,188.84 421.91,186.37 427,186.37 C428.86,186.37 430.85,186.64 432.36,187.05 L432.36,193.23 C430.71,192.74 429.47,192.54 428.23,192.54" id="Path" fill="#004785"></path>
        <path d="M459.9,207.64 C458.39,206.82 456.81,206.34 454.47,206.34 C450,206.34 447.39,209.5 447.39,215.61 L447.39,236.2 L440.31,236.2 L440.31,200.16 L447.39,200.16 L447.39,203.59 C449.04,201.19 452.06,199.4 455.63,199.4 C458.52,199.4 460.3,199.95 461.75,200.91 L459.9,207.64 Z" id="Path" fill="#004785"></path>
        <path d="M481.48,236.95 C472.41,236.95 465.61,229.47 465.61,218.21 C465.61,206.4 472.62,199.4 481.68,199.4 C490.89,199.4 497.76,206.74 497.76,218 C497.76,229.95 490.76,236.95 481.48,236.95 M481.41,206.13 C476.05,206.13 472.75,210.87 472.75,218.01 C472.75,225.9 476.39,230.23 481.75,230.23 C487.11,230.23 490.610021,224.81 490.610021,218.22 C490.62,210.87 487.12,206.13 481.41,206.13" id="Shape" fill="#004785"></path>
        <path d="M548.39,236.2 L548.39,215.81 C548.39,208.53 546.12,205.92 541.45,205.92 C536.71,205.92 534.51,209.28 534.51,215.12 L534.51,236.19 L527.43,236.19 L527.43,215.8 C527.43,208.52 525.16,205.91 520.49,205.91 C515.75,205.91 513.55,209.27 513.55,215.11 L513.55,236.18 L506.48,236.18 L506.48,200.14 L513.55,200.14 L513.55,203.58 C515.34,200.97 518.43,199.39 522.14,199.39 C527.02,199.39 530.11,201.24 532.03,204.67 C534.64,201.44 537.46,199.39 543.09,199.39 C551.47,199.39 555.45,204.88 555.45,215.52 L555.45,236.18 L548.39,236.18 L548.39,236.2 L548.39,236.2 Z" id="Path" fill="#004785"></path>
        <path d="M775.24,146.61 C775.24,150.37 772.28,153.33 768.43,153.33 C764.63,153.33 761.59,150.38 761.59,146.61 C761.59,142.93 764.63,139.97 768.43,139.97 C772.28,139.98 775.24,142.93 775.24,146.61 Z M763.29,146.61 C763.29,149.56 765.48,151.91 768.47,151.91 C771.39,151.91 773.54,149.56 773.54,146.65 C773.54,143.7 771.39,141.31 768.43,141.31 C765.48,141.31 763.29,143.7 763.29,146.61 Z M767.38,150.09 L765.85,150.09 L765.85,143.45 C766.46,143.33 767.31,143.25 768.4,143.25 C769.65,143.25 770.22,143.45 770.71,143.74 C771.07,144.02 771.36,144.55 771.36,145.2 C771.36,145.93 770.79,146.5 769.98,146.74 L769.98,146.82 C770.63,147.06 770.99,147.55 771.2,148.44 C771.4,149.45 771.53,149.86 771.69,150.1 L770.03,150.1 C769.83,149.86 769.71,149.25 769.51,148.48 C769.38,147.75 768.98,147.43 768.13,147.43 L767.4,147.43 L767.4,150.09 L767.38,150.09 L767.38,150.09 Z M767.42,146.33 L768.15,146.33 C769,146.33 769.69,146.05 769.69,145.36 C769.69,144.75 769.24,144.35 768.27,144.35 C767.86,144.35 767.58,144.39 767.42,144.43 L767.42,146.33 Z" id="Shape" fill="#004785"></path>
        <path d="M630.05,214.73 L629.73,215.05 C624.58,220.29 618.62,223.06 612.48,223.06 C599.67,223.06 590.36,213.45 590.36,200.2 C590.36,186.97 599.67,177.36 612.48,177.36 C618.62,177.36 624.58,180.14 629.73,185.4 L630.05,185.72 L638.29,175.76 L638.07,175.49 C631.21,167.4 622.99,163.47 612.88,163.47 C602.74,163.47 593.46,166.88 586.78,173.03 C579.51,179.69 575.68,189.09 575.68,200.21 C575.68,211.34 579.51,220.76 586.78,227.42 C593.47,233.6 602.74,236.99 612.88,236.99 C622.99,236.99 631.21,233.06 638.07,224.96 L638.29,224.71 L630.05,214.73 Z" id="Path" fill="#004785"></path>
    </g>
</svg>