<?xml version="1.0" encoding="UTF-8"?>
<svg width="825px" height="308px" viewBox="0 0 825 308" version="1.1" xmlns="http://www.w3.org/2000/svg" xmlns:xlink="http://www.w3.org/1999/xlink">
    <!-- Generator: Sketch 57.1 (83088) - https://sketch.com -->
    <title>Logotype/Thank-You/Reversed</title>
    <desc>Created with Sketch.</desc>
    <g id="Logotype/Thank-You/Reversed" stroke="none" stroke-width="1" fill="none" fill-rule="evenodd">
        <g id="Group" transform="translate(71.000000, 71.000000)">
            <rect id="Rectangle" fill="#FFFFFF" x="575.62" y="93.61" width="14.56" height="71.02"></rect>
            <path d="M647.21,149.18 C643.32,151.54 639.71,152.73 636.47,152.73 C631.76,152.73 629.64,150.25 629.64,144.72 L629.64,107.04 L644.46,107.04 L644.46,93.67 L629.64,93.67 L629.64,71.57 L615.36,79.2 L615.36,93.66 L603.05,93.66 L603.05,107.03 L615.36,107.03 L615.36,147.12 C615.36,158.04 621.84,165.5 631.51,165.7 C638.07,165.83 642.03,163.87 644.43,162.44 L644.58,162.34 L648.08,148.65 L647.21,149.18 Z" id="Path" fill="#FFFFFF"></path>
            <rect id="Rectangle" fill="#FFFFFF" x="659.26" y="93.61" width="14.57" height="71.02"></rect>
            <path d="M682.33,81.16 C669.03,62.34 646.95,51.11 624.47,51.11 C602,51.11 579.91,62.34 566.64,81.16 L565.95,82.13 L582.7,82.13 L582.89,81.93 C594.29,70.18 609.17,63.96 624.47,63.96 C639.77,63.96 654.64,70.18 666.07,81.93 L666.26,82.13 L682.99,82.13 L682.33,81.16 Z" id="Path" fill="#ED1C24"></path>
            <path d="M18.18,36.05 L18.18,80.4 C18.18,86.49 19.87,88.57 25.07,88.57 C28.96,88.57 31.56,87.92 34.67,86.62 L34.02,95.05 C30.25,96.61 26.61,97.39 21.42,97.39 C12.98,97.39 8.44,93.23 8.44,81.95 L8.44,36.05 L1.44950718e-12,36.05 L1.44950718e-12,27.88 L8.44,27.88 L8.44,11.89 L18.17,6.44 L18.17,27.87 L35.05,27.87 L35.05,36.04 L18.18,36.04 L18.18,36.05 L18.18,36.05 Z" id="Path" fill="#FFFFFF"></path>
            <path d="M90.75,95.97 L90.75,56.15 C90.75,41.5 85.56,34.88 74.66,34.88 C65.17,34.88 57.77,41.23 57.77,56.15 L57.77,95.97 L48.04,95.97 L48.04,6.15 L57.77,-2.84217094e-14 L57.77,36.16 C61.67,30.45 68.03,26.45 76.61,26.45 C91.02,26.45 100.49,34.87 100.49,54.44 L100.49,95.96 L90.75,95.96 L90.75,95.97 L90.75,95.97 Z" id="Path" fill="#FFFFFF"></path>
            <path d="M152.85,95.97 L152.85,87.66 C148.04,92.85 141.29,97.39 131.54,97.39 C120.91,97.39 109.75,92.07 109.75,75.59 C109.75,60.28 122.34,53.81 135.84,53.81 C142.71,53.81 148.82,55.49 152.85,57.71 L152.85,49.66 C152.85,39.54 148.04,34.61 138.05,34.61 C130.9,34.61 125.07,36.56 119.48,39.79 L115.85,31.89 C121.81,28.65 129.86,26.45 138.71,26.45 C153.36,26.45 162.59,32.66 162.59,48.5 L162.59,95.97 L152.85,95.97 L152.85,95.97 Z M152.85,65.48 C148.43,63.01 143.63,61.6 135.31,61.6 C125.33,61.6 119.35,66.4 119.35,74.95 C119.35,85.07 124.93,89.49 133.24,89.49 C142.08,89.49 148.69,84.95 152.85,79.24 L152.85,65.48 L152.85,65.48 Z" id="Shape" fill="#FFFFFF"></path>
            <polygon id="Path" fill="#FFFFFF" points="280.04 95.97 262.77 60.17 250.97 76.39 250.97 95.97 241.24 95.97 241.24 6.85 250.97 1.4 250.97 60.17 250.97 63.66 253.69 59.51 276.02 27.87 286.92 27.87 269.02 52 290.55 95.97"></polygon>
            <path d="M332.86,61.48 C331.1,66.41 328.79,74.17 327.46,78.74 C326.11,74.18 322.99,66.22 321.25,61.22 L309.33,28.25 L293.8,28.25 L320.24,94.11 L310.39,119.38 L325.41,119.38 L325.55,119.03 L359.32,28.24 L344.3,28.24 L332.86,61.48 Z" id="Path" fill="#FFFFFF"></path>
            <path d="M469.96,28.26 L469.96,67.75 C469.91,78.37 465.26,84.15 456.82,84.18 C452.59,84.17 449.37,83.02 447.15,80.3 C444.92,77.56 443.66,73.13 443.66,66.48 L443.66,28.26 L429.49,28.26 L429.49,66.98 C429.49,76.88 431.56,84.45 435.67,89.59 C439.77,94.72 445.9,97.33 453.74,97.33 L453.77,97.33 C460.15,97.32 466.31,94.87 469.96,90.66 L469.96,95.94 L484.15,95.94 L484.15,28.26 L469.96,28.26 L469.96,28.26 Z" id="Path" fill="#FFFFFF"></path>
            <path d="M390.93,26.86 C382.41,26.86 374.81,30.16 369.39,36.25 C363.95,42.31 360.67,51.15 360.67,62.15 C360.67,72.67 363.85,81.46 369.2,87.63 C374.53,93.8 382.02,97.32 390.56,97.32 L390.58,97.32 C399.27,97.32 406.95,94.03 412.43,87.91 C417.92,81.81 421.18,72.91 421.18,61.77 C421.18,51.27 417.97,42.53 412.57,36.44 C407.16,30.32 399.58,26.86 390.93,26.86 M402.5,77.51 C399.71,81.42 395.8,83.81 391.06,83.81 C381.52,83.78 375.01,76.22 374.99,61.78 C375.02,48.73 380.92,40.39 390.42,40.39 C400.59,40.41 406.82,48.74 406.88,62.15 C406.88,68.16 405.27,73.59 402.5,77.51" id="Shape" fill="#FFFFFF"></path>
            <path d="M218.48,95.97 L218.48,56.15 C218.48,41.5 213.28,34.88 202.37,34.88 C192.91,34.88 185.51,41.23 185.51,56.15 L185.51,95.97 L175.77,95.97 L175.77,27.87 L185.51,27.87 L185.51,36.16 C189.39,30.45 195.76,26.45 204.32,26.45 C218.73,26.45 228.21,34.87 228.21,54.44 L228.21,95.96 L218.48,95.96 L218.48,95.97 L218.48,95.97 Z" id="Path" fill="#FFFFFF"></path>
            <path d="M357.23,121.54 C354.9,121.54 353.93,122.43 353.93,125.04 L353.93,129.16 L360.59,129.16 L360.59,135.75 L353.93,135.75 L353.93,165.2 L346.86,165.2 L346.86,135.75 L342.19,135.75 L342.19,129.16 L346.86,129.16 L346.86,124.43 C346.86,117.84 350.91,115.37 356,115.37 C357.86,115.37 359.85,115.64 361.36,116.05 L361.36,122.23 C359.71,121.74 358.47,121.54 357.23,121.54" id="Path" fill="#FFFFFF"></path>
            <path d="M388.9,136.64 C387.39,135.82 385.81,135.34 383.47,135.34 C379,135.34 376.39,138.5 376.39,144.61 L376.39,165.2 L369.31,165.2 L369.31,129.16 L376.39,129.16 L376.39,132.59 C378.04,130.19 381.06,128.4 384.63,128.4 C387.52,128.4 389.3,128.95 390.75,129.91 L388.9,136.64 Z" id="Path" fill="#FFFFFF"></path>
            <path d="M410.48,165.95 C401.41,165.95 394.61,158.47 394.61,147.21 C394.61,135.4 401.62,128.4 410.68,128.4 C419.89,128.4 426.76,135.74 426.76,147 C426.76,158.95 419.76,165.95 410.48,165.95 M410.41,135.13 C405.05,135.13 401.75,139.87 401.75,147.01 C401.75,154.9 405.39,159.23 410.75,159.23 C416.11,159.23 419.610021,153.81 419.610021,147.22 C419.62,139.87 416.12,135.13 410.41,135.13" id="Shape" fill="#FFFFFF"></path>
            <path d="M477.39,165.2 L477.39,144.81 C477.39,137.53 475.12,134.92 470.45,134.92 C465.71,134.92 463.51,138.28 463.51,144.12 L463.51,165.19 L456.43,165.19 L456.43,144.8 C456.43,137.52 454.16,134.91 449.49,134.91 C444.75,134.91 442.55,138.27 442.55,144.11 L442.55,165.18 L435.48,165.18 L435.48,129.14 L442.55,129.14 L442.55,132.58 C444.34,129.97 447.43,128.39 451.14,128.39 C456.02,128.39 459.11,130.24 461.03,133.67 C463.64,130.44 466.46,128.39 472.09,128.39 C480.47,128.39 484.45,133.88 484.45,144.52 L484.45,165.18 L477.39,165.18 L477.39,165.2 L477.39,165.2 Z" id="Path" fill="#FFFFFF"></path>
            <path d="M704.24,75.61 C704.24,79.37 701.28,82.33 697.43,82.33 C693.63,82.33 690.59,79.38 690.59,75.61 C690.59,71.93 693.63,68.97 697.43,68.97 C701.28,68.98 704.24,71.93 704.24,75.61 Z M692.29,75.61 C692.29,78.56 694.48,80.91 697.47,80.91 C700.39,80.91 702.54,78.56 702.54,75.65 C702.54,72.7 700.39,70.31 697.43,70.31 C694.48,70.31 692.29,72.7 692.29,75.61 Z M696.38,79.09 L694.85,79.09 L694.85,72.45 C695.46,72.33 696.31,72.25 697.4,72.25 C698.65,72.25 699.22,72.45 699.71,72.74 C700.07,73.02 700.36,73.55 700.36,74.2 C700.36,74.93 699.79,75.5 698.98,75.74 L698.98,75.82 C699.63,76.06 699.99,76.55 700.2,77.44 C700.4,78.45 700.53,78.86 700.69,79.1 L699.03,79.1 C698.83,78.86 698.71,78.25 698.51,77.48 C698.38,76.75 697.98,76.43 697.13,76.43 L696.4,76.43 L696.4,79.09 L696.38,79.09 L696.38,79.09 Z M696.42,75.33 L697.15,75.33 C698,75.33 698.69,75.05 698.69,74.36 C698.69,73.75 698.24,73.35 697.27,73.35 C696.86,73.35 696.58,73.39 696.42,73.43 L696.42,75.33 Z" id="Shape" fill="#FFFFFF"></path>
            <path d="M559.05,143.73 L558.73,144.05 C553.58,149.29 547.62,152.06 541.48,152.06 C528.67,152.06 519.36,142.45 519.36,129.2 C519.36,115.97 528.67,106.36 541.48,106.36 C547.62,106.36 553.58,109.14 558.73,114.4 L559.05,114.72 L567.29,104.76 L567.07,104.49 C560.21,96.4 551.99,92.47 541.88,92.47 C531.74,92.47 522.46,95.88 515.78,102.03 C508.51,108.69 504.68,118.09 504.68,129.21 C504.68,140.34 508.51,149.76 515.78,156.42 C522.47,162.6 531.74,165.99 541.88,165.99 C551.99,165.99 560.21,162.06 567.07,153.96 L567.29,153.71 L559.05,143.73 Z" id="Path" fill="#FFFFFF"></path>
        </g>
    </g>
</svg>